<svg width="100%" viewBox="-150 0 60 423" fill="none" xmlns="http://www.w3.org/2000/svg">
<path d="M211.175 0C94.5378 0 0 94.5378 0 211.175C0 327.813 94.5378 422.351 211.175 422.351C327.813 422.351 422.351 327.813 422.351 211.175C422.351 94.5378 326.585 0 211.175 0ZM211.175 374.468C120.321 374.468 47.8828 300.802 47.8828 211.175C47.8828 121.549 121.549 47.8828 211.175 47.8828C300.802 47.8828 374.468 121.549 374.468 211.175C374.468 300.802 300.802 374.468 211.175 374.468Z" fill="url(#paint0_linear_1341_56769)"/>
<path d="M211.175 359.737C293.222 359.737 359.734 293.225 359.734 211.178C359.734 129.13 293.222 62.6182 211.175 62.6182C129.128 62.6182 62.6157 129.13 62.6157 211.178C62.6157 293.225 129.128 359.737 211.175 359.737Z" fill="white"/>
<path d="M211.173 374.467C301.357 374.467 374.465 301.359 374.465 211.175C374.465 120.991 301.357 47.8823 211.173 47.8823C120.989 47.8823 47.8804 120.991 47.8804 211.175C47.8804 301.359 120.989 374.467 211.173 374.467Z" fill="white"/>
<path d="M281.157 79.8105C267.651 72.444 252.918 67.5329 236.957 63.8496C235.73 77.355 223.452 88.4049 209.947 88.4049C195.213 88.4049 184.164 77.355 182.936 63.8496C166.975 67.5329 152.242 72.444 138.736 79.8105C147.331 111.732 175.569 135.06 209.947 135.06C244.324 135.06 273.79 111.732 281.157 79.8105Z" fill="url(#paint1_linear_1341_56769)"/>
<path d="M332.722 207.494C332.722 193.989 343.772 181.711 357.277 180.483C353.594 164.522 348.683 149.789 341.317 136.284C310.622 144.878 287.295 173.117 287.295 206.266C287.295 240.644 311.85 270.11 343.772 277.476C351.139 263.971 356.05 249.238 358.505 233.277C343.772 233.277 332.722 222.227 332.722 207.494Z" fill="url(#paint2_linear_1341_56769)"/>
<path d="M135.051 207.494C135.051 174.345 111.724 146.106 81.0298 137.512C73.6632 151.017 67.5244 165.75 65.0688 181.711C78.5742 182.939 89.6241 193.989 89.6241 208.722C89.6241 223.455 78.5742 234.505 65.0688 235.733C67.5244 251.694 72.4354 266.427 79.802 279.932C110.496 271.338 135.051 243.099 135.051 207.494Z" fill="url(#paint3_linear_1341_56769)"/>
<path d="M139.964 341.316C153.469 348.682 168.202 353.593 184.163 357.277C185.391 343.771 197.669 332.721 211.174 332.721C225.907 332.721 236.957 343.771 238.185 357.277C254.146 353.593 268.879 348.682 282.384 341.316C273.79 309.394 245.552 286.066 211.174 286.066C176.797 286.066 147.33 310.622 139.964 341.316Z" fill="url(#paint4_linear_1341_56769)"/>
<path d="M246.781 227.137L243.098 218.543L241.87 217.315H240.642C240.642 217.315 240.642 217.315 239.415 217.315C239.415 217.315 239.415 217.315 239.415 214.86V191.532C239.415 182.938 239.415 166.977 223.454 166.977C218.543 166.977 212.404 168.205 206.265 171.888V170.66V171.888H205.037L198.899 168.205H197.671H196.443L175.571 179.255L174.343 180.482L175.571 181.71L179.254 190.305L180.482 191.532L181.71 190.305L184.165 189.077C185.393 189.077 185.393 187.849 186.621 187.849V261.515V262.743H187.849H203.81H205.037V261.515V189.077C211.176 185.393 214.859 185.393 216.087 185.393C217.315 185.393 219.771 185.393 219.771 192.76V216.088C219.771 233.276 228.365 235.732 233.276 235.732C236.959 235.732 241.87 233.276 246.781 229.593V227.137Z" fill="url(#paint5_linear_1341_56769)"/>
<defs>
<linearGradient id="paint0_linear_1341_56769" x1="366.274" y1="351.219" x2="47.8509" y2="63.5945" gradientUnits="userSpaceOnUse">
<stop stop-color="#00DEE7"/>
<stop offset="0.0751114" stop-color="#05CCEC"/>
<stop offset="0.2244" stop-color="#139FFA"/>
<stop offset="0.2719" stop-color="#188FFF"/>
<stop offset="0.401" stop-color="#1D87FD"/>
<stop offset="0.5988" stop-color="#2C72F6"/>
<stop offset="0.8394" stop-color="#444FEA"/>
<stop offset="0.9605" stop-color="#523BE4"/>
</linearGradient>
<linearGradient id="paint1_linear_1341_56769" x1="277.132" y1="115.432" x2="135.022" y2="75.4286" gradientUnits="userSpaceOnUse">
<stop stop-color="#00DEE7"/>
<stop offset="0.0215771" stop-color="#02D7E9"/>
<stop offset="0.1529" stop-color="#0EB0F5"/>
<stop offset="0.2577" stop-color="#1598FC"/>
<stop offset="0.3223" stop-color="#188FFF"/>
<stop offset="0.4419" stop-color="#1D87FD"/>
<stop offset="0.6253" stop-color="#2C72F6"/>
<stop offset="0.8482" stop-color="#444FEA"/>
<stop offset="0.9605" stop-color="#523BE4"/>
</linearGradient>
<linearGradient id="paint2_linear_1341_56769" x1="388.998" y1="241.771" x2="297.042" y2="182.055" gradientUnits="userSpaceOnUse">
<stop offset="0.1199" stop-color="#00DEE7"/>
<stop offset="0.1691" stop-color="#07C5EE"/>
<stop offset="0.241" stop-color="#10A8F7"/>
<stop offset="0.3027" stop-color="#1695FD"/>
<stop offset="0.3469" stop-color="#188FFF"/>
<stop offset="0.6204" stop-color="#3368F2"/>
<stop offset="0.9022" stop-color="#523BE4"/>
</linearGradient>
<linearGradient id="paint3_linear_1341_56769" x1="121.24" y1="257.128" x2="58.2167" y2="155.178" gradientUnits="userSpaceOnUse">
<stop stop-color="#00DEE7"/>
<stop offset="0.0232223" stop-color="#02D7E9"/>
<stop offset="0.1645" stop-color="#0EB0F5"/>
<stop offset="0.2773" stop-color="#1598FC"/>
<stop offset="0.3469" stop-color="#188FFF"/>
<stop offset="0.6204" stop-color="#3368F2"/>
<stop offset="0.9022" stop-color="#523BE4"/>
</linearGradient>
<linearGradient id="paint4_linear_1341_56769" x1="286.464" y1="321.819" x2="142.944" y2="321.819" gradientUnits="userSpaceOnUse">
<stop stop-color="#00DEE7"/>
<stop offset="0.0232223" stop-color="#02D7E9"/>
<stop offset="0.1645" stop-color="#0EB0F5"/>
<stop offset="0.2773" stop-color="#1598FC"/>
<stop offset="0.3469" stop-color="#188FFF"/>
<stop offset="0.6204" stop-color="#3368F2"/>
<stop offset="0.9022" stop-color="#523BE4"/>
</linearGradient>
<linearGradient id="paint5_linear_1341_56769" x1="174.029" y1="215.134" x2="247.222" y2="215.134" gradientUnits="userSpaceOnUse">
<stop offset="0.3469" stop-color="#188FFF"/>
<stop offset="0.6204" stop-color="#3368F2"/>
<stop offset="0.9022" stop-color="#523BE4"/>
</linearGradient>
</defs>
</svg>
