<svg width="487" height="487" viewBox="0 0 487 487" fill="none" xmlns="http://www.w3.org/2000/svg">
<path d="M243.175 32C126.538 32 32 126.538 32 243.175C32 359.813 126.538 454.351 243.175 454.351C359.813 454.351 454.351 359.813 454.351 243.175C454.351 126.538 358.585 32 243.175 32ZM243.175 406.468C152.321 406.468 79.8828 332.802 79.8828 243.175C79.8828 153.549 153.549 79.8828 243.175 79.8828C332.802 79.8828 406.468 153.549 406.468 243.175C406.468 332.802 332.802 406.468 243.175 406.468Z" fill="url(#paint0_linear_1015_56095)"/>
<path d="M243.175 391.737C325.222 391.737 391.734 325.225 391.734 243.178C391.734 161.13 325.222 94.6182 243.175 94.6182C161.128 94.6182 94.6157 161.13 94.6157 243.178C94.6157 325.225 161.128 391.737 243.175 391.737Z" fill="white"/>
<path d="M243.173 406.467C333.357 406.467 406.465 333.359 406.465 243.175C406.465 152.991 333.357 79.8823 243.173 79.8823C152.989 79.8823 79.8804 152.991 79.8804 243.175C79.8804 333.359 152.989 406.467 243.173 406.467Z" fill="white"/>
<path d="M313.157 111.811C299.651 104.444 284.918 99.5329 268.957 95.8496C267.73 109.355 255.452 120.405 241.947 120.405C227.213 120.405 216.164 109.355 214.936 95.8496C198.975 99.5329 184.242 104.444 170.736 111.811C179.331 143.732 207.569 167.06 241.947 167.06C276.324 167.06 305.79 143.732 313.157 111.811Z" fill="url(#paint1_linear_1015_56095)"/>
<path d="M364.722 239.494C364.722 225.989 375.772 213.711 389.277 212.483C385.594 196.522 380.683 181.789 373.317 168.284C342.622 176.878 319.295 205.117 319.295 238.266C319.295 272.644 343.85 302.11 375.772 309.476C383.139 295.971 388.05 281.238 390.505 265.277C375.772 265.277 364.722 254.227 364.722 239.494Z" fill="url(#paint2_linear_1015_56095)"/>
<path d="M167.051 239.494C167.051 206.345 143.724 178.106 113.03 169.512C105.663 183.017 99.5244 197.75 97.0688 213.711C110.574 214.939 121.624 225.989 121.624 240.722C121.624 255.455 110.574 266.505 97.0688 267.733C99.5244 283.694 104.435 298.427 111.802 311.932C142.496 303.338 167.051 275.099 167.051 239.494Z" fill="url(#paint3_linear_1015_56095)"/>
<path d="M171.964 373.316C185.469 380.682 200.202 385.593 216.163 389.277C217.391 375.771 229.669 364.721 243.174 364.721C257.907 364.721 268.957 375.771 270.185 389.277C286.146 385.593 300.879 380.682 314.384 373.316C305.79 341.394 277.552 318.066 243.174 318.066C208.797 318.066 179.33 342.622 171.964 373.316Z" fill="url(#paint4_linear_1015_56095)"/>
<path d="M278.781 259.137L275.098 250.543L273.87 249.315H272.642C272.642 249.315 272.642 249.315 271.415 249.315C271.415 249.315 271.415 249.315 271.415 246.86V223.532C271.415 214.938 271.415 198.977 255.454 198.977C250.543 198.977 244.404 200.205 238.265 203.888V202.66V203.888H237.037L230.899 200.205H229.671H228.443L207.571 211.255L206.343 212.482L207.571 213.71L211.254 222.305L212.482 223.532L213.71 222.305L216.165 221.077C217.393 221.077 217.393 219.849 218.621 219.849V293.515V294.743H219.849H235.81H237.037V293.515V221.077C243.176 217.393 246.859 217.393 248.087 217.393C249.315 217.393 251.771 217.393 251.771 224.76V248.088C251.771 265.276 260.365 267.732 265.276 267.732C268.959 267.732 273.87 265.276 278.781 261.593V259.137Z" fill="url(#paint5_linear_1015_56095)"/>
<defs>
<linearGradient id="paint0_linear_1015_56095" x1="398.274" y1="383.219" x2="79.8509" y2="95.5945" gradientUnits="userSpaceOnUse">
<stop stop-color="#00DEE7"/>
<stop offset="0.0751114" stop-color="#05CCEC"/>
<stop offset="0.2244" stop-color="#139FFA"/>
<stop offset="0.2719" stop-color="#188FFF"/>
<stop offset="0.401" stop-color="#1D87FD"/>
<stop offset="0.5988" stop-color="#2C72F6"/>
<stop offset="0.8394" stop-color="#444FEA"/>
<stop offset="0.9605" stop-color="#523BE4"/>
</linearGradient>
<linearGradient id="paint1_linear_1015_56095" x1="309.132" y1="147.432" x2="167.022" y2="107.429" gradientUnits="userSpaceOnUse">
<stop stop-color="#00DEE7"/>
<stop offset="0.0215771" stop-color="#02D7E9"/>
<stop offset="0.1529" stop-color="#0EB0F5"/>
<stop offset="0.2577" stop-color="#1598FC"/>
<stop offset="0.3223" stop-color="#188FFF"/>
<stop offset="0.4419" stop-color="#1D87FD"/>
<stop offset="0.6253" stop-color="#2C72F6"/>
<stop offset="0.8482" stop-color="#444FEA"/>
<stop offset="0.9605" stop-color="#523BE4"/>
</linearGradient>
<linearGradient id="paint2_linear_1015_56095" x1="420.998" y1="273.771" x2="329.042" y2="214.055" gradientUnits="userSpaceOnUse">
<stop offset="0.1199" stop-color="#00DEE7"/>
<stop offset="0.1691" stop-color="#07C5EE"/>
<stop offset="0.241" stop-color="#10A8F7"/>
<stop offset="0.3027" stop-color="#1695FD"/>
<stop offset="0.3469" stop-color="#188FFF"/>
<stop offset="0.6204" stop-color="#3368F2"/>
<stop offset="0.9022" stop-color="#523BE4"/>
</linearGradient>
<linearGradient id="paint3_linear_1015_56095" x1="153.24" y1="289.128" x2="90.2167" y2="187.178" gradientUnits="userSpaceOnUse">
<stop stop-color="#00DEE7"/>
<stop offset="0.0232223" stop-color="#02D7E9"/>
<stop offset="0.1645" stop-color="#0EB0F5"/>
<stop offset="0.2773" stop-color="#1598FC"/>
<stop offset="0.3469" stop-color="#188FFF"/>
<stop offset="0.6204" stop-color="#3368F2"/>
<stop offset="0.9022" stop-color="#523BE4"/>
</linearGradient>
<linearGradient id="paint4_linear_1015_56095" x1="318.464" y1="353.819" x2="174.944" y2="353.819" gradientUnits="userSpaceOnUse">
<stop stop-color="#00DEE7"/>
<stop offset="0.0232223" stop-color="#02D7E9"/>
<stop offset="0.1645" stop-color="#0EB0F5"/>
<stop offset="0.2773" stop-color="#1598FC"/>
<stop offset="0.3469" stop-color="#188FFF"/>
<stop offset="0.6204" stop-color="#3368F2"/>
<stop offset="0.9022" stop-color="#523BE4"/>
</linearGradient>
<linearGradient id="paint5_linear_1015_56095" x1="206.029" y1="247.134" x2="279.222" y2="247.134" gradientUnits="userSpaceOnUse">
<stop offset="0.3469" stop-color="#188FFF"/>
<stop offset="0.6204" stop-color="#3368F2"/>
<stop offset="0.9022" stop-color="#523BE4"/>
</linearGradient>
</defs>
</svg>
