<svg width="100%" height="auto" viewBox="-150 0 60 415" fill="none" xmlns="http://www.w3.org/2000/svg">
<path d="M207.365 0.43457C92.9196 0.43457 0.389648 92.9646 0.389648 207.41C0.389648 321.855 92.9196 414.385 207.365 414.385C321.81 414.385 414.34 321.855 414.34 207.41C414.34 92.9646 321.81 0.43457 207.365 0.43457ZM207.365 368.435C118.487 368.435 46.339 296.287 46.339 207.41C46.339 118.532 118.487 46.3839 207.365 46.3839C296.242 46.3839 368.39 118.532 368.39 207.41C368.39 296.287 296.242 368.435 207.365 368.435Z" fill="url(#paint0_linear_1015_56096)"/>
<path d="M207.365 353.87C288.228 353.87 353.781 288.318 353.781 207.455C353.781 126.592 288.228 61.0391 207.365 61.0391C126.502 61.0391 60.9492 126.592 60.9492 207.455C60.9492 288.318 126.502 353.87 207.365 353.87Z" fill="white"/>
<path d="M207.365 368.48C296.297 368.48 368.39 296.387 368.39 207.455C368.39 118.523 296.297 46.4292 207.365 46.4292C118.433 46.4292 46.3389 118.523 46.3389 207.455C46.3389 296.387 118.433 368.48 207.365 368.48Z" fill="white"/>
<path d="M277.078 78.6705C263.685 71.3655 249.075 66.1798 233.834 63.4292C232.301 76.8217 221.028 87.4635 207.365 87.4635C193.341 87.4635 182.113 76.8217 180.895 63.4292C165.654 66.4955 151.044 71.3655 137.651 78.6705C145.588 109.739 173.861 132.872 207.365 132.872C240.868 132.872 269.141 109.739 277.078 78.6705Z" fill="url(#paint1_linear_1015_56096)"/>
<path d="M326.996 204.704C326.996 190.996 337.367 179.723 350.76 178.505C347.693 163.264 342.237 148.654 334.617 135.577C304.179 143.784 281.633 171.787 281.633 204.659C281.633 238.749 305.397 267.067 337.052 274.688C344.041 261.295 348.911 246.685 351.346 231.173C337.953 229.956 326.996 218.683 326.996 204.704Z" fill="url(#paint2_linear_1015_56096)"/>
<path d="M132.782 204.704C132.782 171.516 110.235 143.829 79.7979 135.622C72.1773 148.699 66.7211 163.309 63.6548 178.55C77.0473 180.083 87.4186 191.041 87.4186 204.749C87.4186 218.773 76.4611 230.001 62.7529 231.218C65.1879 246.73 70.0579 261.34 77.0473 274.733C109.018 267.112 132.782 238.794 132.782 204.704Z" fill="url(#paint3_linear_1015_56096)"/>
<path d="M137.651 336.194C151.044 343.499 165.654 348.685 180.895 351.435C182.428 338.043 193.701 327.401 207.365 327.401C221.388 327.401 232.616 338.043 233.834 351.435C249.075 348.369 263.685 343.499 277.078 336.194C269.141 305.125 240.868 281.993 207.365 281.993C173.861 281.993 145.543 305.125 137.651 336.194Z" fill="url(#paint4_linear_1015_56096)"/>
<path d="M215.797 192.304V165.068H198.932V192.304L172.012 165.789L159.837 177.964L198.932 217.06V260.078H215.797V216.699L254.847 177.964L242.672 165.068L215.797 192.304Z" fill="url(#paint5_linear_1015_56096)"/>
<defs>
<linearGradient id="paint0_linear_1015_56096" x1="360.31" y1="345.597" x2="47.393" y2="62.9462" gradientUnits="userSpaceOnUse">
<stop stop-color="#00DEE7"/>
<stop offset="0.0751114" stop-color="#05CCEC"/>
<stop offset="0.2244" stop-color="#139FFA"/>
<stop offset="0.2719" stop-color="#188FFF"/>
<stop offset="0.401" stop-color="#1D87FD"/>
<stop offset="0.5988" stop-color="#2C72F6"/>
<stop offset="0.8394" stop-color="#444FEA"/>
<stop offset="0.9605" stop-color="#523BE4"/>
</linearGradient>
<linearGradient id="paint1_linear_1015_56096" x1="272.712" y1="113.881" x2="133.059" y2="74.5701" gradientUnits="userSpaceOnUse">
<stop stop-color="#00DEE7"/>
<stop offset="0.0215771" stop-color="#02D7E9"/>
<stop offset="0.1529" stop-color="#0EB0F5"/>
<stop offset="0.2577" stop-color="#1598FC"/>
<stop offset="0.3223" stop-color="#188FFF"/>
<stop offset="0.4419" stop-color="#1D87FD"/>
<stop offset="0.6253" stop-color="#2C72F6"/>
<stop offset="0.8482" stop-color="#444FEA"/>
<stop offset="0.9605" stop-color="#523BE4"/>
</linearGradient>
<linearGradient id="paint2_linear_1015_56096" x1="382.643" y1="238.039" x2="292.278" y2="179.355" gradientUnits="userSpaceOnUse">
<stop offset="0.1199" stop-color="#00DEE7"/>
<stop offset="0.1691" stop-color="#07C5EE"/>
<stop offset="0.241" stop-color="#10A8F7"/>
<stop offset="0.3027" stop-color="#1695FD"/>
<stop offset="0.3469" stop-color="#188FFF"/>
<stop offset="0.6204" stop-color="#3368F2"/>
<stop offset="0.9022" stop-color="#523BE4"/>
</linearGradient>
<linearGradient id="paint3_linear_1015_56096" x1="119.517" y1="253.13" x2="57.5824" y2="152.943" gradientUnits="userSpaceOnUse">
<stop stop-color="#00DEE7"/>
<stop offset="0.0232223" stop-color="#02D7E9"/>
<stop offset="0.1645" stop-color="#0EB0F5"/>
<stop offset="0.2773" stop-color="#1598FC"/>
<stop offset="0.3469" stop-color="#188FFF"/>
<stop offset="0.6204" stop-color="#3368F2"/>
<stop offset="0.9022" stop-color="#523BE4"/>
</linearGradient>
<linearGradient id="paint4_linear_1015_56096" x1="281.882" y1="316.708" x2="140.844" y2="316.708" gradientUnits="userSpaceOnUse">
<stop stop-color="#00DEE7"/>
<stop offset="0.0232223" stop-color="#02D7E9"/>
<stop offset="0.1645" stop-color="#0EB0F5"/>
<stop offset="0.2773" stop-color="#1598FC"/>
<stop offset="0.3469" stop-color="#188FFF"/>
<stop offset="0.6204" stop-color="#3368F2"/>
<stop offset="0.9022" stop-color="#523BE4"/>
</linearGradient>
<linearGradient id="paint5_linear_1015_56096" x1="270.208" y1="236.024" x2="166.888" y2="186.988" gradientUnits="userSpaceOnUse">
<stop offset="0.3469" stop-color="#188FFF"/>
<stop offset="0.6204" stop-color="#3368F2"/>
<stop offset="0.9022" stop-color="#523BE4"/>
</linearGradient>
</defs>
</svg>
