<svg xmlns="http://www.w3.org/2000/svg" viewBox="0 0 1069 487" fill="none">
    <path d="M307.796 32.9492C191.158 32.9492 96.6206 127.487 96.6206 244.125C96.6206 360.762 191.158 455.3 307.796 455.3C424.433 455.3 518.971 360.762 518.971 244.125C518.971 127.487 423.206 32.9492 307.796 32.9492ZM307.796 407.417C216.941 407.417 144.503 333.751 144.503 244.125C144.503 154.498 218.169 80.832 307.796 80.832C397.423 80.832 471.088 154.498 471.088 244.125C471.088 333.751 397.423 407.417 307.796 407.417Z" fill="url(#paint0_linear_1341_56595)"/>
    <path d="M307.796 392.686C389.843 392.686 456.355 326.174 456.355 244.127C456.355 162.08 389.843 95.5674 307.796 95.5674C225.749 95.5674 159.236 162.08 159.236 244.127C159.236 326.174 225.749 392.686 307.796 392.686Z" fill="white"/>
    <path d="M307.793 407.417C397.977 407.417 471.086 334.308 471.086 244.124C471.086 153.94 397.977 80.8315 307.793 80.8315C217.61 80.8315 144.501 153.94 144.501 244.124C144.501 334.308 217.61 407.417 307.793 407.417Z" fill="white"/>
    <path d="M377.777 112.76C364.272 105.393 349.539 100.482 333.578 96.7988C332.35 110.304 320.073 121.354 306.567 121.354C291.834 121.354 280.784 110.304 279.556 96.7988C263.595 100.482 248.862 105.393 235.357 112.76C243.951 144.682 272.19 168.009 306.567 168.009C340.945 168.009 370.411 144.682 377.777 112.76Z" fill="url(#paint1_linear_1341_56595)"/>
    <path d="M429.343 240.443C429.343 226.938 440.393 214.66 453.898 213.432C450.215 197.471 445.304 182.738 437.937 169.233C407.243 177.827 383.916 206.066 383.916 239.215C383.916 273.593 408.471 303.059 440.393 310.426C447.759 296.92 452.67 282.187 455.126 266.226C440.393 266.226 429.343 255.176 429.343 240.443Z" fill="url(#paint2_linear_1341_56595)"/>
    <path d="M231.672 240.443C231.672 207.294 208.344 179.055 177.65 170.461C170.284 183.966 164.145 198.699 161.689 214.66C175.195 215.888 186.245 226.938 186.245 241.671C186.245 256.404 175.195 267.454 161.689 268.682C164.145 284.643 169.056 299.376 176.423 312.881C207.117 304.287 231.672 276.049 231.672 240.443Z" fill="url(#paint3_linear_1341_56595)"/>
    <path d="M236.584 374.265C250.09 381.632 264.823 386.543 280.784 390.226C282.012 376.721 294.289 365.671 307.795 365.671C322.528 365.671 333.578 376.721 334.806 390.226C350.766 386.543 365.5 381.632 379.005 374.265C370.411 342.343 342.172 319.016 307.795 319.016C273.417 319.016 243.951 343.571 236.584 374.265Z" fill="url(#paint4_linear_1341_56595)"/>
    <path d="M343.402 260.087L339.719 251.492L338.491 250.265H337.263C337.263 250.265 337.263 250.265 336.035 250.265C336.035 250.265 336.035 250.265 336.035 247.809V224.482C336.035 215.887 336.035 199.926 320.074 199.926C315.163 199.926 309.025 201.154 302.886 204.837V203.61V204.837H301.658L295.519 201.154H294.291H293.064L272.192 212.204L270.964 213.432L272.192 214.659L275.875 223.254L277.103 224.482L278.33 223.254L280.786 222.026C282.014 222.026 282.014 220.798 283.241 220.798V294.464V295.692H284.469H300.43H301.658V294.464V222.026C307.797 218.343 311.48 218.343 312.708 218.343C313.936 218.343 316.391 218.343 316.391 225.709V249.037C316.391 266.225 324.985 268.681 329.897 268.681C333.58 268.681 338.491 266.225 343.402 262.542V260.087Z" fill="url(#paint5_linear_1341_56595)"/>
    <path d="M566.467 312.204V189.874H614.939C624.233 189.874 632.129 191.563 638.725 194.843C645.321 198.122 650.318 202.793 653.816 208.755C657.314 214.718 659.013 221.773 659.013 229.822C659.013 237.971 657.214 244.927 653.716 250.79C650.218 256.653 645.121 261.125 638.425 264.206C631.729 267.287 623.734 268.877 614.239 268.877H581.758V248.107H610.042C615.039 248.107 619.136 247.412 622.434 246.12C625.732 244.828 628.131 242.741 629.83 240.058C631.429 237.375 632.229 233.996 632.229 229.922C632.229 225.847 631.429 222.469 629.83 219.686C628.231 216.904 625.732 214.817 622.434 213.326C619.136 211.836 614.939 211.14 609.942 211.14H592.452V312.303H566.467V312.204ZM632.828 256.554L663.411 312.204H634.727L604.845 256.554H632.828Z" fill="white"/>
    <path d="M717.078 313.993C707.783 313.993 699.688 312.005 692.892 308.03C686.096 304.056 680.899 298.491 677.201 291.435C673.503 284.379 671.704 276.032 671.704 266.691C671.704 257.25 673.503 248.903 677.201 241.847C680.899 234.692 686.096 229.227 692.892 225.252C699.688 221.277 707.783 219.289 717.078 219.289C726.372 219.289 734.468 221.277 741.264 225.252C748.06 229.227 753.257 234.792 756.955 241.847C760.652 248.903 762.451 257.25 762.451 266.691C762.451 276.131 760.652 284.379 756.955 291.435C753.257 298.491 748.06 304.056 741.264 308.03C734.468 312.005 726.372 313.993 717.078 313.993ZM698.788 207.961C695.39 207.961 692.392 206.768 689.893 204.383C687.395 201.998 686.196 199.116 686.196 195.837C686.196 192.458 687.395 189.576 689.893 187.191C692.392 184.806 695.29 183.713 698.788 183.713C702.286 183.713 705.185 184.906 707.683 187.191C710.082 189.576 711.281 192.359 711.281 195.837C711.281 199.116 710.082 201.998 707.683 204.383C705.185 206.768 702.186 207.961 698.788 207.961ZM717.178 294.317C721.375 294.317 724.973 293.124 727.772 290.739C730.57 288.354 732.769 285.075 734.268 280.901C735.767 276.728 736.467 271.958 736.467 266.591C736.467 261.225 735.767 256.455 734.268 252.282C732.769 248.108 730.67 244.828 727.772 242.344C724.973 239.959 721.375 238.667 717.178 238.667C712.88 238.667 709.282 239.86 706.384 242.344C703.486 244.729 701.287 248.108 699.888 252.282C698.389 256.455 697.689 261.225 697.689 266.591C697.689 271.958 698.389 276.728 699.888 280.901C701.387 285.075 703.486 288.354 706.384 290.739C709.282 293.124 712.88 294.317 717.178 294.317ZM735.467 207.961C732.069 207.961 729.071 206.768 726.572 204.383C724.074 201.998 722.874 199.116 722.874 195.837C722.874 192.458 724.074 189.576 726.572 187.191C729.071 184.806 731.969 183.713 735.467 183.713C738.965 183.713 741.863 184.906 744.362 187.191C746.76 189.576 747.96 192.359 747.96 195.837C747.96 199.116 746.76 201.998 744.362 204.383C741.963 206.768 738.965 207.961 735.467 207.961Z" fill="white"/>
    <path d="M804.728 259.139V312.205H779.143V220.483H803.528V236.681H804.628C806.627 231.314 810.125 227.141 814.922 223.961C819.719 220.88 825.516 219.29 832.412 219.29C838.808 219.29 844.405 220.681 849.202 223.464C853.999 226.246 857.697 230.221 860.295 235.389C862.894 240.556 864.293 246.717 864.293 253.773V312.205H838.708V258.344C838.708 252.779 837.309 248.307 834.41 245.227C831.512 242.047 827.415 240.457 822.317 240.457C818.919 240.457 815.821 241.152 813.223 242.643C810.624 244.134 808.526 246.22 807.126 249.102C805.527 251.885 804.828 255.263 804.728 259.139Z" fill="white"/>
    <path d="M918.36 313.697C911.364 313.697 904.968 311.909 899.371 308.331C893.674 304.754 889.177 299.388 885.879 292.431C882.581 285.376 880.882 276.73 880.882 266.594C880.882 256.06 882.581 247.315 885.979 240.359C889.377 233.403 893.874 228.136 899.571 224.658C905.268 221.18 911.464 219.391 918.26 219.391C923.457 219.391 927.755 220.286 931.153 221.975C934.651 223.664 937.449 225.851 939.548 228.434C941.647 231.018 943.346 233.502 944.445 235.987H945.244V189.977H970.73V312.306H945.544V297.599H944.445C943.246 300.183 941.547 302.667 939.348 305.151C937.149 307.636 934.351 309.722 930.853 311.312C927.455 312.902 923.257 313.697 918.36 313.697ZM926.455 293.425C930.553 293.425 934.051 292.332 936.949 290.046C939.848 287.761 942.046 284.68 943.545 280.606C945.045 276.531 945.844 271.762 945.844 266.296C945.844 260.83 945.045 256.06 943.545 252.085C942.046 248.11 939.848 244.93 936.949 242.744C934.051 240.558 930.553 239.465 926.455 239.465C922.258 239.465 918.66 240.558 915.862 242.844C912.963 245.129 910.764 248.309 909.365 252.284C907.866 256.259 907.167 260.93 907.167 266.296C907.167 271.662 907.966 276.333 909.465 280.407C910.964 284.481 913.163 287.661 915.961 289.947C918.66 292.332 922.258 293.425 926.455 293.425Z" fill="white"/>
    <defs>
        <linearGradient id="paint0_linear_1341_56595" x1="462.894" y1="384.168" x2="144.471" y2="96.5437" gradientUnits="userSpaceOnUse">
            <stop stop-color="#00DEE7"/>
            <stop offset="0.0751114" stop-color="#05CCEC"/>
            <stop offset="0.2244" stop-color="#139FFA"/>
            <stop offset="0.2719" stop-color="#188FFF"/>
            <stop offset="0.401" stop-color="#1D87FD"/>
            <stop offset="0.5988" stop-color="#2C72F6"/>
            <stop offset="0.8394" stop-color="#444FEA"/>
            <stop offset="0.9605" stop-color="#523BE4"/>
        </linearGradient>
        <linearGradient id="paint1_linear_1341_56595" x1="373.753" y1="148.381" x2="231.643" y2="108.378" gradientUnits="userSpaceOnUse">
            <stop stop-color="#00DEE7"/>
            <stop offset="0.0215771" stop-color="#02D7E9"/>
            <stop offset="0.1529" stop-color="#0EB0F5"/>
            <stop offset="0.2577" stop-color="#1598FC"/>
            <stop offset="0.3223" stop-color="#188FFF"/>
            <stop offset="0.4419" stop-color="#1D87FD"/>
            <stop offset="0.6253" stop-color="#2C72F6"/>
            <stop offset="0.8482" stop-color="#444FEA"/>
            <stop offset="0.9605" stop-color="#523BE4"/>
        </linearGradient>
        <linearGradient id="paint2_linear_1341_56595" x1="485.619" y1="274.72" x2="393.663" y2="215.004" gradientUnits="userSpaceOnUse">
            <stop offset="0.1199" stop-color="#00DEE7"/>
            <stop offset="0.1691" stop-color="#07C5EE"/>
            <stop offset="0.241" stop-color="#10A8F7"/>
            <stop offset="0.3027" stop-color="#1695FD"/>
            <stop offset="0.3469" stop-color="#188FFF"/>
            <stop offset="0.6204" stop-color="#3368F2"/>
            <stop offset="0.9022" stop-color="#523BE4"/>
        </linearGradient>
        <linearGradient id="paint3_linear_1341_56595" x1="217.861" y1="290.077" x2="154.837" y2="188.127" gradientUnits="userSpaceOnUse">
            <stop stop-color="#00DEE7"/>
            <stop offset="0.0232223" stop-color="#02D7E9"/>
            <stop offset="0.1645" stop-color="#0EB0F5"/>
            <stop offset="0.2773" stop-color="#1598FC"/>
            <stop offset="0.3469" stop-color="#188FFF"/>
            <stop offset="0.6204" stop-color="#3368F2"/>
            <stop offset="0.9022" stop-color="#523BE4"/>
        </linearGradient>
        <linearGradient id="paint4_linear_1341_56595" x1="383.085" y1="354.768" x2="239.564" y2="354.768" gradientUnits="userSpaceOnUse">
            <stop stop-color="#00DEE7"/>
            <stop offset="0.0232223" stop-color="#02D7E9"/>
            <stop offset="0.1645" stop-color="#0EB0F5"/>
            <stop offset="0.2773" stop-color="#1598FC"/>
            <stop offset="0.3469" stop-color="#188FFF"/>
            <stop offset="0.6204" stop-color="#3368F2"/>
            <stop offset="0.9022" stop-color="#523BE4"/>
        </linearGradient>
        <linearGradient id="paint5_linear_1341_56595" x1="270.65" y1="248.083" x2="343.843" y2="248.083" gradientUnits="userSpaceOnUse">
            <stop offset="0.3469" stop-color="#188FFF"/>
            <stop offset="0.6204" stop-color="#3368F2"/>
            <stop offset="0.9022" stop-color="#523BE4"/>
        </linearGradient>
    </defs>
</svg>
