<svg width="190" height="77" viewBox="0 0 190 77" fill="none" xmlns="http://www.w3.org/2000/svg">
<path d="M6.5543 43.3091L1.65326 56.0045H5.19618L6.08191 53.7607H10.6287L11.4553 56.0045H14.9983L10.2153 43.25H6.5543V43.3091ZM6.96764 51.2806L8.32576 47.2063H8.38481L9.74293 51.2806H6.96764Z" fill="#005172"/>
<path d="M25.5681 48.2699L24.7415 48.0337C24.151 47.8566 23.2653 47.5613 23.2653 46.7937C23.2653 46.0851 24.0919 45.7308 24.6824 45.7308C25.5091 45.7308 26.2767 46.0851 26.8672 46.5575L28.1663 43.9594C27.0444 43.3098 25.4501 42.8965 24.151 42.8965C21.6119 42.8965 19.7814 44.6089 19.7814 47.148C19.7814 49.628 21.1395 50.1595 23.2062 50.75C23.9148 50.9271 25.2139 51.2814 25.2139 52.2262C25.2139 53.1119 24.3872 53.5253 23.6195 53.5253C22.4976 53.5253 21.4938 52.9348 20.6671 52.2262L19.2499 54.8834C20.549 55.7691 22.1433 56.3596 23.7376 56.3596C25.0367 56.3596 26.3358 56.0053 27.3396 55.1786C28.3434 54.2929 28.6387 52.9938 28.6387 51.7538C28.7568 49.6871 27.3396 48.8014 25.5681 48.2699Z" fill="#005172"/>
<path d="M39.9168 48.2699L39.0902 48.0337C38.4997 47.8566 37.6139 47.5613 37.6139 46.7937C37.6139 46.0851 38.4406 45.7308 39.0311 45.7308C39.8578 45.7308 40.6254 46.0851 41.2159 46.5575L42.515 43.9594C41.3931 43.3098 39.7987 42.8965 38.4997 42.8965C35.9606 42.8965 34.1301 44.6089 34.1301 47.148C34.1301 49.628 35.4882 50.1595 37.5549 50.75C38.2635 50.9271 39.5626 51.2814 39.5626 52.2262C39.5626 53.1119 38.7359 53.5253 37.9682 53.5253C36.8463 53.5253 35.8425 52.9348 35.0158 52.2262L33.5986 54.8834C34.8977 55.7691 36.492 56.3596 38.0863 56.3596C39.3854 56.3596 40.6845 56.0053 41.6883 55.1786C42.6921 54.2929 42.9874 52.9938 42.9874 51.7538C43.0464 49.6871 41.6883 48.8014 39.9168 48.2699Z" fill="#005172"/>
<path d="M51.7857 43.3086H48.479V56.0631H51.7857V43.3086Z" fill="#005172"/>
<path d="M59.1077 45.0206C57.8677 46.2606 57.2181 47.973 57.2181 49.6854C57.2181 51.575 57.8677 53.2284 59.2848 54.5274C60.5839 55.7084 62.2963 56.417 64.0678 56.417C65.0716 56.417 65.8983 56.1808 67.0202 55.8265V51.8702C66.3116 52.6969 65.2488 53.2284 64.1859 53.2284C62.1192 53.2284 60.7611 51.7521 60.7611 49.7445C60.7611 47.7959 62.1192 46.2016 64.1859 46.2016C65.3078 46.2016 66.4297 46.674 67.0793 47.6187V43.6625C66.0754 43.2491 65.1307 43.0129 64.0678 43.0129C62.1782 42.9539 60.3477 43.7215 59.1077 45.0206Z" fill="#005172"/>
<path d="M80.6605 49.9811C80.6605 51.6345 80.5424 53.465 78.4166 53.465C76.2909 53.465 76.1728 51.6345 76.1728 49.9811V43.3086H72.866V50.4535C72.866 52.1068 72.9251 53.7012 74.2241 54.9412C75.287 56.0041 76.9404 56.3584 78.4756 56.3584C79.9519 56.3584 81.6643 56.0041 82.7272 54.9412C83.9672 53.7012 84.0853 52.1068 84.0853 50.4535V43.3086H80.7786V49.9811H80.6605Z" fill="#005172"/>
<path d="M99.3198 47.2058C99.3198 44.4896 97.4303 43.3086 94.8912 43.3086H89.9311V56.0631H93.2378V51.1621H93.2969L96.4264 56.0631H100.56L96.5445 50.8078C98.3751 50.4535 99.3198 48.9773 99.3198 47.2058ZM93.5921 48.9773H93.2969V45.7886H93.5921C94.655 45.7886 95.895 45.9658 95.895 47.3829C95.895 48.8001 94.655 48.9773 93.5921 48.9773Z" fill="#005172"/>
<path d="M109.063 43.3086L104.162 56.0631H107.705L108.591 53.8193H113.137L113.964 56.0631H117.507L112.724 43.3086H109.063ZM109.476 51.2802L110.834 47.2058H110.893L112.252 51.2802H109.476Z" fill="#005172"/>
<path d="M122.526 43.3086V46.0839H127.545L121.522 56.0041H132.446V53.2288H127.073L133.096 43.3086H122.526Z" fill="#005172"/>
<path d="M141.54 43.3086H138.233V56.0631H141.54V43.3086Z" fill="#005172"/>
<path d="M153.999 42.8379C150.338 42.8379 146.972 45.5541 146.972 49.3923C146.972 53.5257 149.925 56.4191 153.999 56.4191C158.073 56.4191 161.026 53.5257 161.026 49.3923C161.085 45.5541 157.719 42.8379 153.999 42.8379ZM153.999 53.2305C152.05 53.2305 150.397 51.6361 150.397 49.4513C150.397 47.6799 151.991 46.0856 153.999 46.0856C155.948 46.0856 157.601 47.6799 157.601 49.4513C157.601 51.6361 156.007 53.2305 153.999 53.2305Z" fill="#005172"/>
<path d="M175.906 51.044L169.824 43.3086H166.517V56.0041H169.824V48.2096L175.906 56.0041H179.213V43.3086H175.906V51.044Z" fill="#005172"/>
<path d="M188.601 43.3086H185.295V56.0631H188.601V43.3086Z" fill="#005172"/>
<path d="M43.873 6.69942H51.4313V33.7437H56.2733V6.69942H66.9611V33.7437H71.744V6.69942H79.2432V1.85742H43.873V6.69942Z" fill="#005172"/>
<path d="M137.17 1.85742H132.269V33.7437H137.17V1.85742Z" fill="#005172"/>
<path d="M130.202 28.6655H119.574V2.15267V1.85742H114.673V33.7437H115.381H130.202V28.8427V28.6655Z" fill="#005172"/>
<path d="M109.24 7.87891C109.004 8.2332 108.768 8.52844 108.413 8.82369L107.646 9.47322V10.418C107.646 11.3628 107.291 12.3076 106.642 12.9571C107.291 14.4333 107.646 16.0867 107.646 17.7991C107.646 24.5306 102.154 30.0222 95.4226 30.0222C88.691 30.0222 83.1995 24.5306 83.1995 17.7991C83.1995 16.0867 83.5538 14.4333 84.2033 12.9571C83.5538 12.2485 83.1995 11.3628 83.1995 10.418V9.47322L82.4319 8.82369C82.0776 8.52844 81.8414 8.2332 81.6052 7.87891C79.5975 10.6542 78.4166 14.079 78.4166 17.7991C78.4166 27.1878 86.0338 34.8051 95.4226 34.8051C104.811 34.8051 112.429 27.1878 112.429 17.7991C112.429 14.079 111.248 10.6542 109.24 7.87891Z" fill="#005172"/>
<path d="M91.1121 6.34355C92.4702 5.81211 93.8874 5.57591 95.4226 5.57591C96.9579 5.57591 98.3751 5.87116 99.7332 6.34355L103.808 2.97777C101.328 1.5606 98.4932 0.792969 95.4226 0.792969C92.3521 0.792969 89.5178 1.61965 87.0377 2.97777L91.1121 6.34355Z" fill="#005172"/>
<path d="M100.442 7.82067C99.438 8.64735 98.9066 9.82833 98.9066 11.1274V11.836C98.9066 13.6665 97.4894 15.2608 95.6589 15.3789C93.6513 15.497 91.9979 13.9027 91.9979 11.9541V11.1274C91.9979 9.82833 91.4074 8.64735 90.4626 7.82067L81.0148 0.0852926C80.8377 -0.0328048 80.6015 0.0852926 80.6015 0.262439V1.44341C80.6015 2.09295 80.8967 2.68343 81.3691 3.09678L82.7273 4.2187V5.93111C82.7273 6.58065 83.0225 7.17114 83.4949 7.58448L84.853 8.7064V10.4188C84.853 11.0683 85.1483 11.6588 85.6206 12.0722L86.9788 13.1941V14.9065C86.9788 15.5561 87.274 16.1465 87.7464 16.5599L90.4626 18.8037C91.9388 20.0438 92.7655 21.8152 92.7655 23.7048V24.7086C92.7655 26.421 92.0569 28.0153 90.935 29.1963C92.2931 29.7277 93.8284 30.023 95.4227 30.023C97.017 30.023 98.4933 29.7277 99.9104 29.1963C98.7885 28.0744 98.0799 26.4801 98.0799 24.7086V23.6457C98.0799 21.7562 98.9066 19.9257 100.383 18.7447L103.099 16.5008C103.571 16.0875 103.867 15.497 103.867 14.8475V13.1351L105.225 12.0131C105.697 11.5998 105.992 11.0093 105.992 10.3598V8.64735L107.351 7.52543C107.823 7.11209 108.118 6.5216 108.118 5.87206V4.2187L109.476 3.09678C109.949 2.68343 110.244 2.09295 110.244 1.44341V0.262439C110.244 0.0262439 110.008 -0.0918535 109.831 0.0852926L100.442 7.82067Z" fill="#4FC7B5"/>
<path d="M97.8438 11.954C97.8438 13.2531 96.781 14.316 95.4819 14.316C94.1828 14.316 93.1199 13.2531 93.1199 11.954C93.1199 10.655 94.1828 9.59207 95.4819 9.59207C96.7219 9.53303 97.8438 10.655 97.8438 11.954Z" fill="#4FC7B5"/>
<path d="M45.4675 33.7421H50.7228L36.9054 1.85585H33.5396L21.6708 29.2544C20.3718 29.7268 19.0136 29.963 17.5965 29.963C10.8649 29.963 5.43245 24.4715 5.43245 17.799C5.43245 11.0674 10.924 5.63496 17.5965 5.63496C21.1985 5.63496 24.4461 7.22928 26.69 9.70932V3.45016C24.0918 1.7968 20.9623 0.792969 17.5965 0.792969C8.20774 0.792969 0.590454 8.41025 0.590454 17.799C0.590454 27.1877 8.20774 34.805 17.5965 34.805C20.3718 34.805 23.029 34.0964 25.3319 32.9155L28.3433 26.0068H42.1607L45.4675 33.7421ZM30.1739 21.7553L35.252 10.0636L40.3302 21.7553H30.1739Z" fill="#005172"/>
<path d="M184.35 33.7421H189.605L175.788 1.85585H172.422L160.554 29.2544C159.254 29.7268 157.896 29.963 156.479 29.963C149.748 29.963 144.315 24.4715 144.315 17.799C144.315 11.0674 149.807 5.63496 156.479 5.63496C160.081 5.63496 163.329 7.22928 165.573 9.70932V3.45016C162.975 1.7968 159.845 0.792969 156.479 0.792969C147.09 0.792969 139.473 8.41025 139.473 17.799C139.473 27.1877 147.09 34.805 156.479 34.805C159.254 34.805 161.912 34.0964 164.215 32.9155L167.226 26.0068H181.043L184.35 33.7421ZM169.057 21.7553L174.135 10.0636L179.213 21.7553H169.057Z" fill="#005172"/>
<path d="M188.602 65.5703H0V76.1991H188.602V65.5703Z" fill="#4FC7B5"/>
<path d="M69.6774 67.6953H72.0394C73.8108 67.6953 75.2871 69.1125 75.2871 70.8839C75.2871 72.6554 73.8108 74.0726 72.0394 74.0726H69.6774V67.6953ZM71.3308 72.6554H71.6851C72.6889 72.6554 73.5156 72.124 73.5156 70.8839C73.5156 69.762 72.748 69.1125 71.6851 69.1125H71.2717V72.6554H71.3308Z" fill="white"/>
<path d="M78.7711 72.9506L78.3578 74.0726H76.5863L79.0663 67.6953H80.8969L83.3179 74.0726H81.5464L81.1331 72.9506H78.7711ZM79.9521 69.703L79.2435 71.7106H80.6016L79.9521 69.703Z" fill="white"/>
<path d="M95.7771 69.1125V67.6953H98.3162V74.0726H96.6628V69.1125H95.7771Z" fill="white"/>
<path d="M106.347 69.2895C106.347 69.939 105.933 70.5295 105.343 70.7067C106.11 70.9429 106.583 71.5333 106.583 72.36C106.583 73.6591 105.225 74.3086 104.162 74.3086C103.04 74.3086 101.741 73.7181 101.741 72.36C101.741 71.5333 102.272 70.9429 102.981 70.7067C102.39 70.5295 101.977 69.939 101.977 69.2895C101.977 68.0495 103.04 67.459 104.162 67.459C105.284 67.459 106.347 68.0495 106.347 69.2895ZM103.453 72.1829C103.453 72.5962 103.807 72.9505 104.221 72.9505C104.634 72.9505 104.988 72.5962 104.988 72.1829C104.988 71.7695 104.634 71.4153 104.221 71.4153C103.807 71.4153 103.453 71.7695 103.453 72.1829ZM103.512 69.3485C103.512 69.7619 103.807 70.0571 104.221 70.0571C104.634 70.0571 104.929 69.7619 104.929 69.3485C104.929 68.9352 104.634 68.64 104.221 68.64C103.807 68.64 103.512 68.9352 103.512 69.3485Z" fill="white"/>
<path d="M109.535 74.0724L111.366 71.9467C111.071 72.0648 110.835 72.1238 110.48 72.1238C109.24 72.1238 108.414 71.061 108.414 69.88C108.414 68.3447 109.713 67.459 111.13 67.459C111.72 67.459 112.429 67.6361 112.96 67.9904C113.492 68.4038 113.787 69.0533 113.787 69.7619C113.787 70.7067 113.315 71.5924 112.783 72.301L111.425 74.0724H109.535ZM110.126 69.8209C110.126 70.4114 110.539 70.8838 111.13 70.8838C111.72 70.8838 112.193 70.4114 112.193 69.8209C112.193 69.2304 111.72 68.7581 111.13 68.7581C110.539 68.7581 110.126 69.2304 110.126 69.8209Z" fill="white"/>
<path d="M119.574 67.6953L117.743 69.8801C118.038 69.762 118.274 69.703 118.629 69.703C119.869 69.703 120.695 70.7658 120.695 71.9468C120.695 73.4821 119.396 74.3678 117.979 74.3678C117.389 74.3678 116.68 74.1907 116.149 73.8364C115.617 73.423 115.322 72.7735 115.322 72.0649C115.322 71.1201 115.794 70.2344 116.326 69.5258L117.684 67.7544H119.574V67.6953ZM118.983 72.0059C118.983 71.4154 118.57 70.943 117.979 70.943C117.389 70.943 116.916 71.4154 116.916 72.0059C116.916 72.5964 117.389 73.0687 117.979 73.0687C118.511 73.0097 118.983 72.5373 118.983 72.0059Z" fill="white"/>
<path d="M86.5065 72.6554H88.4551V74.0726H84.8531V67.6953H86.5065V72.6554Z" fill="white"/>
</svg>
