<svg width="240" height="87" viewBox="0 0 240 87" fill="none" xmlns="http://www.w3.org/2000/svg">
<path d="M103.502 66.4985C102.695 67.6264 101.609 68.5242 100.349 69.1029C99.129 69.6282 97.8125 69.8915 96.4846 69.8757C95.1288 69.8896 93.783 69.643 92.5202 69.1492C91.3583 68.6967 90.305 68.0041 89.429 67.1168C88.5626 66.2284 87.8799 65.178 87.4197 64.0256C86.4613 61.4881 86.4613 58.6882 87.4197 56.1508C87.8809 54.9989 88.5636 53.9487 89.429 53.0596C90.3087 52.1749 91.3609 51.4804 92.5202 51.0194C93.7776 50.5023 95.1251 50.2397 96.4846 50.2466C97.7141 50.234 98.9345 50.4597 100.078 50.9112C101.234 51.3957 102.244 52.1735 103.007 53.1678L101.562 54.3579C101.012 53.5111 100.228 52.8424 99.3053 52.4336C98.4192 52.032 97.4576 51.8239 96.4846 51.8231C95.3453 51.8048 94.2143 52.0205 93.1616 52.4568C92.2088 52.8568 91.3486 53.4487 90.6345 54.1956C89.9302 54.9492 89.386 55.8378 89.0349 56.8077C88.2828 58.9035 88.2828 61.1956 89.0349 63.2914C89.386 64.2613 89.9302 65.1499 90.6345 65.9035C91.3486 66.6504 92.2088 67.2423 93.1616 67.6423C94.2143 68.0786 95.3453 68.2942 96.4846 68.276C96.9891 68.2746 97.4919 68.2176 97.9839 68.106C98.5056 67.9886 99.0114 67.8096 99.4908 67.5727C99.9901 67.332 100.46 67.0338 100.89 66.684C101.347 66.313 101.744 65.8723 102.064 65.378L103.502 66.4985Z" fill="#006172"/>
<path d="M107.273 60.0919C107.264 61.1958 107.452 62.2923 107.829 63.3299C108.183 64.2986 108.727 65.1868 109.429 65.942C110.143 66.6889 111.003 67.2808 111.956 67.6808C114.093 68.5258 116.472 68.5258 118.61 67.6808C119.561 67.2826 120.419 66.6904 121.129 65.942C121.829 65.1982 122.375 64.3237 122.736 63.3686C123.478 61.271 123.478 58.9824 122.736 56.8848C122.38 55.9159 121.833 55.0279 121.129 54.2727C120.419 53.5243 119.561 52.9321 118.61 52.5339C116.472 51.689 114.093 51.689 111.956 52.5339C111.003 52.9339 110.143 53.5258 109.429 54.2727C108.727 55.028 108.183 55.9161 107.829 56.8848C107.452 57.9248 107.263 59.0241 107.273 60.1305M105.503 60.1305C105.487 58.7846 105.733 57.4483 106.23 56.197C106.667 55.0287 107.342 53.9639 108.211 53.0699C109.081 52.176 110.128 51.4724 111.284 51.0038C113.837 50.0144 116.667 50.0144 119.22 51.0038C120.377 51.4629 121.426 52.1565 122.301 53.041C123.176 53.9255 123.858 54.9816 124.305 56.1429C125.274 58.6785 125.274 61.4821 124.305 64.0177C123.851 65.1716 123.171 66.2227 122.304 67.1089C121.425 67.9929 120.372 68.685 119.212 69.1414C116.656 70.1096 113.833 70.1096 111.276 69.1414C110.116 68.685 109.063 67.9929 108.185 67.1089C107.318 66.2227 106.637 65.1716 106.183 64.0177C105.688 62.7633 105.442 61.4248 105.457 60.0764" fill="#006172"/>
<path d="M129.012 50.7578H131.284L142.798 67.1025H142.845V50.7578H144.615V69.4209H142.342L130.828 53.0762H130.774V69.4209H129.012V50.7578Z" fill="#006172"/>
<path d="M165.379 66.4985C164.574 67.6244 163.49 68.5218 162.234 69.1029C161.014 69.6264 159.698 69.8897 158.37 69.8757C157.014 69.8883 155.669 69.6417 154.406 69.1492C153.244 68.6967 152.191 68.0041 151.315 67.1168C150.447 66.2305 149.767 65.1794 149.313 64.0256C148.345 61.49 148.345 58.6864 149.313 56.1508C149.769 54.9979 150.449 53.9471 151.315 53.0596C152.194 52.1749 153.246 51.4804 154.406 51.0194C155.664 50.5039 157.011 50.2413 158.37 50.2466C159.6 50.234 160.82 50.4597 161.964 50.9112C163.12 51.3957 164.129 52.1735 164.893 53.1678L163.447 54.3579C162.9 53.5096 162.115 52.8405 161.191 52.4336C160.305 52.032 159.343 51.8239 158.37 51.8231C157.231 51.8048 156.1 52.0205 155.047 52.4568C154.094 52.8568 153.234 53.4487 152.52 54.1956C151.816 54.9492 151.272 55.8378 150.92 56.8077C150.168 58.9035 150.168 61.1956 150.92 63.2914C151.272 64.2613 151.816 65.1499 152.52 65.9035C153.234 66.6504 154.094 67.2423 155.047 67.6423C156.1 68.0786 157.231 68.2942 158.37 68.276C158.875 68.275 159.378 68.218 159.869 68.106C160.391 67.9886 160.897 67.8096 161.376 67.5727C161.878 67.3322 162.35 67.0339 162.783 66.684C163.237 66.3088 163.632 65.8688 163.958 65.378L165.379 66.4985Z" fill="#006172"/>
<path d="M170.364 50.7578H168.602V69.4209H170.364V50.7578Z" fill="#006172"/>
<path d="M175.542 50.7578H187.111V52.3421H177.304V58.9804H186.492V60.5646H177.304V67.8366H187.536V69.4209H175.542V50.7578Z" fill="#006172"/>
<path d="M193.146 58.9804H196.886C197.653 59.0045 198.418 58.8893 199.143 58.6403C199.647 58.4566 200.108 58.1697 200.495 57.798C200.794 57.4939 201.017 57.1231 201.144 56.7161C201.254 56.3736 201.314 56.017 201.322 55.6573C201.314 55.3003 201.254 54.9462 201.144 54.6063C201.017 54.1993 200.794 53.8285 200.495 53.5244C200.11 53.1502 199.649 52.8629 199.143 52.6821C198.418 52.4297 197.653 52.3144 196.886 52.3421H193.146V58.9804ZM191.384 50.7578H196.353H197.365C197.832 50.7815 198.297 50.8357 198.757 50.9201C199.284 51.0103 199.801 51.15 200.302 51.3374C200.83 51.5346 201.315 51.8341 201.727 52.2187C202.139 52.6032 202.472 53.0653 202.706 53.5785C202.991 54.2252 203.128 54.9276 203.107 55.6342C203.136 56.4011 202.974 57.1632 202.636 57.8521C202.352 58.4013 201.951 58.8815 201.461 59.2586C200.998 59.6188 200.475 59.8936 199.916 60.07C199.382 60.2329 198.837 60.3544 198.285 60.4332L203.787 69.3977H201.786L196.469 60.5414H193.185V69.4209H191.423L191.384 50.7578Z" fill="#006172"/>
<path d="M222.822 68.2062C221.752 68.8241 220.595 69.2774 219.39 69.5509C218.202 69.8078 216.99 69.9374 215.774 69.9373C214.415 69.9505 213.067 69.7039 211.802 69.2109C210.642 68.7545 209.589 68.0624 208.71 67.1784C207.846 66.2896 207.166 65.2392 206.709 64.0872C205.75 61.5497 205.75 58.7499 206.709 56.2124C207.167 55.061 207.847 54.0108 208.71 53.1212C209.593 52.2402 210.644 51.5463 211.802 51.081C213.062 50.5647 214.412 50.3021 215.774 50.3082C217.02 50.2519 218.265 50.4496 219.433 50.8893C220.601 51.329 221.667 52.0016 222.567 52.8662L221.284 54.1799C220.978 53.8269 220.63 53.5129 220.248 53.2449C219.821 52.9399 219.362 52.6809 218.88 52.4721C218.38 52.2665 217.863 52.1061 217.335 51.9929C216.826 51.8861 216.309 51.8292 215.789 51.8229C214.647 51.8045 213.514 52.0201 212.458 52.4566C211.508 52.8567 210.65 53.4487 209.939 54.1954C209.235 54.9506 208.688 55.8386 208.332 56.8075C207.59 58.905 207.59 61.1936 208.332 63.2912C208.688 64.2601 209.235 65.1481 209.939 65.9033C210.65 66.65 211.508 67.2419 212.458 67.6421C213.514 68.0786 214.647 68.2942 215.789 68.2758C216.748 68.2815 217.704 68.2013 218.648 68.0362C219.493 67.9097 220.308 67.6378 221.06 67.2325V60.9342H216.516V59.3886H222.822V68.2062Z" fill="#006172"/>
<path d="M228.007 50.7578H239.568V52.3421H229.769V58.9804H238.958V60.5646H229.769V67.8366H240.001V69.4209H228.007V50.7578Z" fill="#006172"/>
<path d="M30.619 22.334H21.7473V58.4082H30.619V22.334Z" fill="#006172"/>
<path d="M31.3221 22.3418H22.2417L32.0408 43.4315H42.0794L38.965 36.5845L31.3221 22.3418Z" fill="#00A69C"/>
<path d="M43.293 34.4355L32.041 43.4309H43.3471L43.293 34.4355Z" fill="#006172"/>
<path d="M1.88632 55.9815C0.218973 50.5625 -0.351397 44.8655 0.208557 39.2235C0.768511 33.5815 2.44755 28.1077 5.14753 23.1221C7.8856 18.0157 11.614 13.5063 16.1148 9.85733C20.6156 6.20838 25.7986 3.4931 31.3608 1.87018C35.5193 0.632244 39.835 0.00233114 44.1738 1.18836e-05C55.7594 -0.00849231 66.882 4.54769 75.1321 12.6816L69.9466 18.0912C65.2449 13.4647 59.3908 10.1807 52.9918 8.57995C46.5927 6.97917 39.8819 7.11994 33.5556 8.98765C28.9491 10.3325 24.6568 12.582 20.9295 15.6046C17.2023 18.6273 14.1149 22.3625 11.8477 26.592C9.60822 30.7275 8.21558 35.268 7.75116 39.948C7.28675 44.628 7.75988 49.3536 9.1429 53.8486C14.9389 72.8517 35.3098 83.6631 54.5525 77.9521C60.1279 76.3003 65.2281 73.3409 69.4289 69.32L74.8385 74.5673C69.7436 79.4604 63.5507 83.0616 56.7782 85.0696C33.4938 91.963 8.88015 78.9259 1.88632 55.9815Z" fill="url(#paint0_linear_15_1011)"/>
<path d="M66.0595 26.0429C61.2681 21.1975 53.6947 18.1836 46.2836 18.1836H44.9853C44.3284 18.1836 44.2125 18.1836 43.7565 18.1836H43.3469V26.5453H43.8106C44.7998 26.4757 45.0857 26.468 46.2526 26.468C56.4072 26.468 64.9853 34.5669 64.9853 44.1419C64.9853 51.8699 58.4938 59.0492 52.6205 60.6334L52.3037 60.7184V69.451L52.7905 69.3892C64.2666 67.9054 73.3006 56.808 73.4165 44.1032C73.4541 40.7547 72.8227 37.4324 71.5593 34.3311C70.296 31.2299 68.4262 28.412 66.0595 26.0429Z" fill="url(#paint1_linear_15_1011)"/>
<path d="M43.2773 69.4201H52.3809V34.4355H43.2773V69.4201Z" fill="#00A69C"/>
<path d="M86.9558 18.123H95.5107L101.415 34.6532H101.492L107.435 18.123H115.951V43.4554H110.302V24.0272H110.225L103.486 43.4554H99.166L92.6822 24.0272H92.605V43.4554H86.9558V18.123Z" fill="url(#paint2_linear_15_1011)"/>
<path d="M125.194 38.3067H128.131C129.355 38.3157 130.576 38.1835 131.77 37.9126C132.823 37.6799 133.817 37.2355 134.692 36.6066C135.528 35.9791 136.195 35.1531 136.631 34.2032C137.132 33.0624 137.373 31.8242 137.335 30.5788C137.364 29.4585 137.123 28.3477 136.631 27.3407C136.185 26.4319 135.534 25.6385 134.73 25.0223C133.882 24.4082 132.929 23.955 131.917 23.6854C130.812 23.3815 129.671 23.2307 128.525 23.2372H125.194V38.3067ZM119.537 18.1213H128.038C130.008 18.1141 131.972 18.3424 133.888 18.8013C135.631 19.2072 137.275 19.9559 138.726 21.0038C140.124 22.0382 141.251 23.3958 142.01 24.9605C142.869 26.8072 143.284 28.829 143.223 30.8647C143.26 32.7349 142.857 34.5876 142.049 36.2743C141.291 37.7913 140.212 39.1255 138.888 40.1846C137.509 41.2768 135.936 42.0976 134.251 42.6035C132.48 43.1557 130.635 43.432 128.78 43.4227H119.506L119.537 18.1213Z" fill="url(#paint3_linear_15_1011)"/>
<defs>
<linearGradient id="paint0_linear_15_1011" x1="37.5664" y1="86.9166" x2="37.5664" y2="1.03613e-05" gradientUnits="userSpaceOnUse">
<stop offset="0.06" stop-color="#006172"/>
<stop offset="0.41" stop-color="#00A69C"/>
</linearGradient>
<linearGradient id="paint1_linear_15_1011" x1="58.3933" y1="69.4201" x2="58.3933" y2="18.1836" gradientUnits="userSpaceOnUse">
<stop offset="0.17" stop-color="#006172"/>
<stop offset="0.5" stop-color="#00A69C"/>
</linearGradient>
<linearGradient id="paint2_linear_15_1011" x1="101.453" y1="43.4554" x2="101.453" y2="18.123" gradientUnits="userSpaceOnUse">
<stop offset="0.06" stop-color="#006172"/>
<stop offset="0.24" stop-color="#008185"/>
<stop offset="0.41" stop-color="#009994"/>
<stop offset="0.56" stop-color="#00A79C"/>
<stop offset="0.7" stop-color="#00AC9F"/>
</linearGradient>
<linearGradient id="paint3_linear_15_1011" x1="131.407" y1="43.4536" x2="131.407" y2="18.1213" gradientUnits="userSpaceOnUse">
<stop offset="0.06" stop-color="#006172"/>
<stop offset="0.24" stop-color="#008185"/>
<stop offset="0.41" stop-color="#009994"/>
<stop offset="0.56" stop-color="#00A79C"/>
<stop offset="0.7" stop-color="#00AC9F"/>
</linearGradient>
</defs>
</svg>
