<svg width="450" height="199" viewBox="0 0 450 199" fill="none" xmlns="http://www.w3.org/2000/svg">
<path d="M93.49 188.6L103.93 163.26H113.39V198.06H107V169.53L95.33 198.21H90.87L79.32 169.82V198.1H73.25V163.3H83.1L93.49 188.6Z" fill="black"/>
<path d="M128.29 163.26H134.91V198.06H128.29V163.26Z" fill="black"/>
<path d="M173.59 190.9H156L152.81 198.06H146.2L161.83 163.11H168.06L183.74 198.06H176.74L173.59 190.9ZM171.09 185.22L164.81 171.15L158.54 185.22H171.09Z" fill="black"/>
<path d="M211.09 180.66C211.09 170.46 218.44 162.66 228.64 162.66C239.37 162.66 243.93 169.87 244.86 173.93H238.1C237.14 172.286 235.755 170.932 234.09 170.01C232.425 169.088 230.542 168.632 228.64 168.69C222.12 168.69 217.9 174.13 217.9 180.69C217.9 187.25 222.12 192.69 228.64 192.69C234.64 192.69 237.31 189.21 238.2 187.4H244.86C244.08 191.07 239.81 198.72 228.64 198.72C218.44 198.65 211.09 190.82 211.09 180.66Z" fill="black"/>
<path d="M280.35 190.9H262.81L259.62 198.06H253L268.64 163.11H274.86L290.55 198.06H283.55L280.35 190.9ZM277.85 185.22L271.58 171.15L265.31 185.22H277.85Z" fill="black"/>
<path d="M301.83 163.26H321.29C328.93 163.26 333.2 166.79 333.2 173.65C333.2 178.36 330.8 181.65 326.34 183.06L334.52 198.06H327.52L319.63 183.75H308.39V198.06H301.83V163.26ZM308.39 169.09V178.01H320.75C324.52 178.01 326.43 176.54 326.43 173.65C326.43 170.46 324.52 169.09 320.75 169.09H308.39Z" fill="black"/>
<path d="M346.73 163.26H374.91V168.94H353.3V176.89H366.19V182.62H353.3V192.23H376.87V198.06H346.73V163.26Z" fill="black"/>
<path d="M44.84 83.07C42.6839 86.8024 39.8138 90.0736 36.3934 92.6966C32.973 95.3197 29.0694 97.2433 24.9055 98.3577C20.7417 99.472 16.3991 99.7552 12.1258 99.1911C7.85244 98.627 3.73209 97.2266 0 95.07L44.83 17.4C47.7095 12.4105 51.852 8.26709 56.8409 5.38646C61.8298 2.50583 67.4892 0.98951 73.25 0.990006C79.0121 0.989782 84.6728 2.50611 89.6632 5.38663C94.6536 8.26714 98.7981 12.4104 101.68 17.4L146.51 95.07C142.778 97.2266 138.658 98.627 134.384 99.1911C130.111 99.7552 125.768 99.472 121.604 98.3577C117.441 97.2433 113.537 95.3197 110.117 92.6966C106.696 90.0736 103.826 86.8024 101.67 83.07L76.09 38.75C75.802 38.2516 75.388 37.8378 74.8895 37.5501C74.391 37.2624 73.8256 37.111 73.25 37.111C72.6744 37.111 72.109 37.2624 71.6105 37.5501C71.112 37.8378 70.698 38.2516 70.41 38.75L44.84 83.07Z" fill="#00F096"/>
<path d="M168 66.67L184.12 38.75C184.41 38.2518 184.825 37.8384 185.324 37.551C185.823 37.2636 186.389 37.1123 186.965 37.1123C187.541 37.1123 188.107 37.2636 188.607 37.551C189.106 37.8384 189.521 38.2518 189.81 38.75L215.38 83.07C217.536 86.8024 220.407 90.0736 223.827 92.6966C227.247 95.3197 231.151 97.2433 235.315 98.3577C239.479 99.472 243.821 99.7552 248.095 99.1911C252.368 98.627 256.488 97.2266 260.22 95.07L215.39 17.4C212.511 12.4181 208.372 8.28066 203.389 5.4023C198.406 2.52394 192.755 1.00578 187 1C181.238 0.997751 175.576 2.51323 170.586 5.39395C165.595 8.27467 161.451 12.419 158.57 17.41L149.07 33.82L168 66.67Z" fill="#00F096"/>
<path d="M246.359 5.40001C251.347 2.51535 257.008 0.997601 262.769 1C268.53 1.00153 274.188 2.5187 279.177 5.39913C284.165 8.27956 288.308 12.4219 291.189 17.41L335.999 95.08C332.267 97.2366 328.147 98.637 323.874 99.2011C319.6 99.7652 315.258 99.482 311.094 98.3676C306.93 97.2533 303.026 95.3297 299.606 92.7066C296.186 90.0836 293.315 86.8124 291.159 83.08L246.359 5.40001Z" fill="black"/>
<path d="M357.78 66.67L373.9 38.75C374.188 38.2516 374.602 37.8378 375.101 37.5501C375.599 37.2624 376.164 37.111 376.74 37.111C377.316 37.111 377.881 37.2624 378.38 37.5501C378.878 37.8378 379.292 38.2516 379.58 38.75L405.16 83.07C407.316 86.8024 410.186 90.0736 413.607 92.6966C417.027 95.3197 420.931 97.2433 425.095 98.3577C429.258 99.472 433.601 99.7552 437.874 99.1911C442.148 98.627 446.268 97.2266 450 95.07L405.17 17.4C402.287 12.4111 398.143 8.26839 393.153 5.38797C388.162 2.50755 382.502 0.990795 376.74 0.990005C370.978 0.990795 365.318 2.50755 360.328 5.38797C355.337 8.26839 351.193 12.4111 348.31 17.4L338.83 33.82L357.78 66.67Z" fill="#00F0F0"/>
</svg>
