<svg width="844" height="190" viewBox="0 0 844 190" fill="none" xmlns="http://www.w3.org/2000/svg">
<path d="M132.891 11.9849C126.771 14.9577 125.197 18.1052 123.273 29.8213C122.574 34.7175 118.901 41.0127 105.96 53.9529C90.5713 69.1662 88.8224 70.3902 80.4283 71.7891C66.9632 73.8875 67.4444 74.5432 63.5969 93.4288C63.0724 96.0516 52.6232 105.888 43.1799 115.156C27.7909 130.195 26.217 131.244 19.5717 131.244C3.13339 131.244 -5.43552 149.43 5.75654 160.446C15.5496 170.239 31.813 164.643 34.2613 150.654C34.7859 147.156 36.0101 142.26 37.0593 139.637C39.6824 132.643 66.6132 107.112 72.7338 105.888C89.1728 98.0193 95.0746 96.6641 95.0746 84.2482C95.0746 79.527 98.7904 77.3848 113.305 62.5211C129.744 45.9089 130.968 45.0344 140.061 43.6357C151.603 41.887 157.374 36.2913 157.374 27.0234C157.374 18.6298 154.751 14.2582 147.756 11.2854C140.236 8.13785 140.236 8.13785 132.891 11.9849Z" fill="#12324F"/>
<path d="M67.3197 14.9585C64.8717 17.2318 62.9481 21.2537 62.9481 23.7019C62.9481 32.0954 58.0516 39.4398 42.6624 54.4783C28.6723 67.9431 26.224 69.6915 18.7044 70.741C6.98772 72.4894 1.2168 77.9106 1.2168 87.1782C1.2168 95.5717 3.83993 99.419 11.8842 102.741C23.2512 107.463 34.9678 97.4956 34.9678 82.9814C34.9678 79.3095 38.8151 74.2383 51.2311 61.6479C66.7952 45.9097 68.1942 45.0357 77.1128 43.6366C89.7038 41.7131 97.0488 34.1938 95.4748 24.9259C94.0758 15.658 88.3048 10.5869 79.2113 10.5869C73.4407 10.5869 70.4677 11.6361 67.3197 14.9585Z" fill="#3A82C3"/>
<path d="M138.139 71.4396C128.521 73.8875 125.548 78.0842 123.275 91.3741C122.4 96.6203 119.253 100.817 106.487 113.232C89.6988 129.67 88.4747 130.369 77.9822 132.118C68.5387 133.692 62.9426 139.812 62.9426 148.73C62.9426 160.097 70.1126 165.692 83.0537 164.643C88.4747 164.118 96.1693 154.676 96.1693 148.555C96.1693 140.512 99.8418 135.091 115.755 119.703C129.046 106.762 130.969 105.363 139.189 104.314C152.479 102.566 159.474 94.172 156.676 83.1555C154.753 75.2864 145.31 69.3412 138.139 71.4396Z" fill="#3A82C3"/>
<path d="M17.7062 44.2476C27.4851 44.2476 35.4124 36.3207 35.4124 26.5424C35.4124 16.7641 27.4851 8.83716 17.7062 8.83716C7.92733 8.83716 0 16.7641 0 26.5424C0 36.3207 7.92733 44.2476 17.7062 44.2476Z" fill="#12324F"/>
<path d="M140.994 164.905C150.773 164.905 158.7 156.978 158.7 147.2C158.7 137.421 150.773 129.494 140.994 129.494C131.215 129.494 123.288 137.421 123.288 147.2C123.288 156.978 131.215 164.905 140.994 164.905Z" fill="#12324F"/>
<path d="M16.3946 104.577C25.4491 104.577 32.7893 97.237 32.7893 88.183C32.7893 79.129 25.4491 71.7893 16.3946 71.7893C7.34013 71.7893 0 79.129 0 88.183C0 97.237 7.34013 104.577 16.3946 104.577Z" fill="#3A82C3"/>
<path d="M80.6576 41.6246C89.7121 41.6246 97.0522 34.2849 97.0522 25.2309C97.0522 16.1769 89.7121 8.83716 80.6576 8.83716C71.6031 8.83716 64.2629 16.1769 64.2629 25.2309C64.2629 34.2849 71.6031 41.6246 80.6576 41.6246Z" fill="#3A82C3"/>
<path d="M79.3541 44.2476C89.133 44.2476 97.0603 36.3207 97.0603 26.5424C97.0603 16.7641 89.133 8.83716 79.3541 8.83716C69.5753 8.83716 61.6479 16.7641 61.6479 26.5424C61.6479 36.3207 69.5753 44.2476 79.3541 44.2476Z" fill="#3A82C3"/>
<path d="M78.6983 166.217C88.115 166.217 95.7487 158.584 95.7487 149.168C95.7487 139.751 88.115 132.118 78.6983 132.118C69.2817 132.118 61.6479 139.751 61.6479 149.168C61.6479 158.584 69.2817 166.217 78.6983 166.217Z" fill="#3A82C3"/>
<path d="M140.994 104.576C150.773 104.576 158.7 96.6494 158.7 86.8711C158.7 77.0928 150.773 69.1659 140.994 69.1659C131.215 69.1659 123.288 77.0928 123.288 86.8711C123.288 96.6494 131.215 104.576 140.994 104.576Z" fill="#3A82C3"/>
<path d="M17.7064 164.905C26.7609 164.905 34.101 157.566 34.101 148.512C34.101 139.458 26.7609 132.118 17.7064 132.118C8.65189 132.118 1.31177 139.458 1.31177 148.512C1.31177 157.566 8.65189 164.905 17.7064 164.905Z" fill="#12324F"/>
<path d="M80.6661 104.576C90.445 104.576 98.3723 96.6494 98.3723 86.8711C98.3723 77.0928 90.445 69.1659 80.6661 69.1659C70.8873 69.1659 62.96 77.0928 62.96 86.8711C62.96 96.6494 70.8873 104.576 80.6661 104.576Z" fill="#12324F"/>
<path d="M140.994 44.2476C150.773 44.2476 158.7 36.3207 158.7 26.5424C158.7 16.7641 150.773 8.83716 140.994 8.83716C131.215 8.83716 123.288 16.7641 123.288 26.5424C123.288 36.3207 131.215 44.2476 140.994 44.2476Z" fill="#12324F"/>
<path d="M194.783 55.8158H234.517C245.075 55.8158 253.182 58.361 258.838 63.4512C264.494 68.5414 267.323 75.9881 267.323 85.7917C267.323 93.0501 265.39 99.2242 261.525 104.314C257.66 109.311 252.192 112.704 245.122 114.495L266.898 154.651H251.91L230.841 115.626H209.206V154.651H194.783V55.8158ZM232.113 103.466C238.429 103.466 243.425 102.005 247.102 99.0828C250.872 96.0662 252.758 91.6361 252.758 85.7917C252.758 79.3816 250.92 74.8101 247.243 72.0763C243.661 69.3425 238.618 67.9758 232.113 67.9758H209.206V103.466H232.113ZM285.093 55.8158H330.483C339.25 55.8158 346.038 58.0782 350.845 62.6028C355.653 67.1275 358.057 73.7258 358.057 82.3982C358.057 87.2997 356.878 91.6361 354.522 95.4065C352.259 99.0828 349.243 101.817 345.472 103.607C356.03 106.718 361.309 114.401 361.309 126.655C361.309 132.405 360.037 137.401 357.491 141.643C355.04 145.791 351.647 148.995 347.31 151.258C342.974 153.52 338.166 154.651 332.887 154.651H285.093V55.8158ZM328.645 98.2345C333.264 98.2345 336.894 96.9619 339.533 94.4168C342.173 91.8717 343.492 88.1013 343.492 83.1051C343.492 77.3552 342.173 73.3489 339.533 71.0865C336.988 68.7301 333.029 67.5517 327.655 67.5517H299.516V98.2345H328.645ZM329.635 142.915C335.197 142.915 339.439 141.69 342.361 139.239C345.283 136.788 346.745 132.594 346.745 126.655C346.745 120.716 345.189 116.474 342.078 113.929C339.062 111.384 334.49 110.112 328.362 110.112H299.516V142.915H329.635ZM411.937 156.772C405.15 156.772 399.022 155.311 393.555 152.389C388.182 149.372 383.939 145.178 380.829 139.805C377.812 134.338 376.304 128.022 376.304 120.858C376.304 113.788 377.812 107.519 380.829 102.052C383.939 96.585 388.182 92.3431 393.555 89.3265C399.022 86.2158 405.15 84.6605 411.937 84.6605C424.192 84.6605 433.477 88.3841 439.794 95.8307V50.16H454.076V154.651H440.218V144.754C436.447 148.901 432.299 151.965 427.774 153.944C423.344 155.83 418.064 156.772 411.937 156.772ZM415.19 145.46C421.034 145.46 426.124 143.952 430.461 140.936C434.891 137.825 438.002 133.677 439.794 128.493V113.222C438.191 108.038 435.127 103.89 430.603 100.78C426.172 97.6689 421.034 96.1135 415.19 96.1135C410.57 96.1135 406.375 97.1506 402.605 99.2242C398.928 101.298 396.006 104.22 393.838 107.991C391.763 111.761 390.726 116.05 390.726 120.858C390.726 125.665 391.763 129.954 393.838 133.725C396.006 137.495 398.928 140.418 402.605 142.491C406.375 144.471 410.57 145.46 415.19 145.46ZM483.033 73.4903C480.673 73.4903 478.694 72.6892 477.094 71.0865C475.49 69.4839 474.69 67.5044 474.69 65.1479C474.69 62.7915 475.49 60.812 477.094 59.2093C478.694 57.6067 480.673 56.8056 483.033 56.8056C485.481 56.8056 487.509 57.6067 489.113 59.2093C490.81 60.812 491.659 62.7915 491.659 65.1479C491.659 67.5044 490.81 69.4839 489.113 71.0865C487.509 72.6892 485.481 73.4903 483.033 73.4903ZM475.821 86.7814H490.386V154.651H475.821V86.7814ZM547.743 187.172C543.121 187.172 538.596 186.795 534.168 186.041C529.829 185.287 526.152 184.203 523.139 182.789V171.053C530.209 174.258 538.41 175.86 547.743 175.86C556.51 175.86 562.873 173.928 566.832 170.063C570.884 166.293 572.912 160.543 572.912 152.813V145.602C566.691 153.049 557.544 156.772 545.48 156.772C538.596 156.772 532.423 155.264 526.956 152.247C521.486 149.231 517.2 144.989 514.089 139.522C510.978 134.055 509.422 127.786 509.422 120.716C509.422 113.552 510.929 107.284 513.947 101.911C517.058 96.4436 521.3 92.2017 526.674 89.1851C532.14 86.1686 538.269 84.6605 545.056 84.6605C551.371 84.6605 556.695 85.603 561.035 87.4884C565.462 89.2793 569.563 92.2958 573.337 96.5377V86.7814H587.194V151.258C587.194 162.852 583.942 171.713 577.437 177.84C571.026 184.061 561.127 187.172 547.743 187.172ZM548.308 145.46C554.15 145.46 559.289 143.905 563.721 140.794C568.246 137.684 571.308 133.536 572.912 128.352V113.081C571.118 107.802 568.007 103.655 563.58 100.638C559.24 97.6216 554.15 96.1135 548.308 96.1135C543.686 96.1135 539.493 97.1506 535.723 99.2242C532.047 101.204 529.122 104.079 526.956 107.849C524.88 111.62 523.845 115.909 523.845 120.716C523.845 125.618 524.88 129.954 526.956 133.725C529.122 137.401 532.047 140.276 535.723 142.35C539.493 144.423 543.686 145.46 548.308 145.46ZM616.151 73.4903C613.791 73.4903 611.812 72.6892 610.212 71.0865C608.608 69.4839 607.808 67.5044 607.808 65.1479C607.808 62.7915 608.608 60.812 610.212 59.2093C611.812 57.6067 613.791 56.8056 616.151 56.8056C618.599 56.8056 620.627 57.6067 622.231 59.2093C623.928 60.812 624.776 62.7915 624.776 65.1479C624.776 67.5044 623.928 69.4839 622.231 71.0865C620.627 72.6892 618.599 73.4903 616.151 73.4903ZM608.939 86.7814H623.504V154.651H608.939V86.7814ZM671.528 156.772C664.643 156.772 659.319 154.793 655.549 150.834C651.873 146.874 650.035 141.266 650.035 134.007V97.8103H639.712V86.7814H650.035V66.4205H664.458V86.7814H681.143V97.8103H664.458V133.018C664.458 137.542 665.306 140.747 667.003 142.633C668.793 144.518 671.996 145.46 676.618 145.46C679.349 145.46 682.084 144.848 684.82 143.622V154.934C681.236 156.159 676.804 156.772 671.528 156.772ZM722.716 156.772C714.514 156.772 707.913 154.698 702.919 150.551C698.014 146.309 695.566 140.606 695.566 133.442C695.566 125.901 697.922 120.103 702.637 116.05C707.444 111.903 714.232 109.829 722.999 109.829C732.331 109.829 740.25 111.714 746.754 115.485V111.95C746.754 106.577 745.102 102.618 741.805 100.073C738.597 97.4334 733.507 96.1135 726.534 96.1135C722.384 96.1135 718.332 96.5377 714.373 97.3861C710.506 98.1403 707.02 99.2242 703.909 100.638V89.0438C706.737 87.7239 710.414 86.6873 714.939 85.9331C719.463 85.0847 723.847 84.6605 728.089 84.6605C739.304 84.6605 747.603 87.1583 752.976 92.1545C758.442 97.056 761.177 103.89 761.177 112.657V154.651H747.744V147.016C744.819 150.221 741.332 152.672 737.28 154.368C733.321 155.971 728.465 156.772 722.716 156.772ZM726.251 145.885C730.776 145.885 734.876 144.989 738.553 143.198C742.229 141.407 744.96 138.909 746.754 135.704V126.514C740.625 122.554 733.789 120.575 726.251 120.575C720.78 120.575 716.68 121.659 713.949 123.827C711.306 125.901 709.99 129.106 709.99 133.442C709.99 141.737 715.407 145.885 726.251 145.885ZM781.111 50.16H795.393V154.651H781.111V50.16Z" fill="#12324F"/>
</svg>
