<svg width="681" height="405" viewBox="0 0 681 405" fill="none" xmlns="http://www.w3.org/2000/svg">
<g clip-path="url(#clip0_11_2175)">
<rect width="681" height="404.11" fill="#E1F1FE"/>
<path d="M127.44 161.676C127.687 161.716 127.798 161.371 127.572 161.263L117.184 156.275L105.398 150.617L109.381 161.955C115.468 160.386 119.723 160.416 127.44 161.676Z" fill="#8F77ED"/>
<path d="M122.296 145.121C122.545 145.102 122.572 144.741 122.327 144.688L111.06 142.268L98.2781 139.522L104.802 149.615C110.354 146.665 114.497 145.7 122.296 145.121Z" fill="#8F77ED"/>
<path d="M112.067 129C112.293 128.894 112.19 128.546 111.943 128.584L100.551 130.326L87.6275 132.303L97.3125 139.418C101.454 134.688 104.984 132.313 112.067 129Z" fill="#8F77ED"/>
<path d="M95.0806 114.016C95.21 113.802 94.9308 113.571 94.7463 113.74L86.2459 121.521L76.6024 130.348L88.6085 130.879C89.4209 124.645 91.035 120.708 95.0806 114.016Z" fill="#8F77ED"/>
<rect width="6.96109" height="288.189" transform="matrix(-0.993569 -0.113224 -0.113224 0.993569 425.103 32.5156)" fill="url(#paint0_linear_11_2175)" fill-opacity="0.93"/>
<path fill-rule="evenodd" clip-rule="evenodd" d="M102.079 212.331C99.8889 231.549 100.047 253.324 110.493 275.893C115.452 286.606 124.698 294.541 135.395 299.537C236.343 346.681 406.274 364.117 564.686 346.05C580.886 335.051 604.693 303.377 612.048 268.343C621.242 224.552 647.436 259.064 632.797 270.708C621.086 280.023 619.238 281.074 619.777 280.435C618.75 281.252 617.557 282.704 621.003 281.976C624.449 281.248 634.556 273.712 639.178 270.035C642.774 267.175 645.923 258.901 641.306 251.361C636.69 243.821 626.52 233.562 617.038 242.991C614.022 245.99 611.278 251.573 608.04 258.163C601.098 272.288 591.883 291.04 572.834 298.901C570.623 299.814 565.008 300.135 556.673 299.972C557.128 302.716 557.215 305.566 556.885 308.464C554.954 325.412 539.651 337.584 522.703 335.652C515.505 334.832 509.168 331.6 504.407 326.853C498.701 330.407 491.799 332.131 484.601 331.31C477.004 330.445 470.367 326.892 465.529 321.71C459.65 325.671 452.383 327.639 444.786 326.773C437.588 325.953 431.251 322.72 426.491 317.974C420.784 321.528 413.883 323.252 406.684 322.431C398.78 321.531 391.915 317.722 387.035 312.194C381.036 316.482 373.49 318.648 365.585 317.748C358.485 316.939 352.223 313.782 347.485 309.141C341.824 312.597 335.012 314.264 327.911 313.455C320.315 312.589 313.677 309.037 308.84 303.854C302.96 307.815 295.694 309.783 288.097 308.917C280.8 308.086 274.388 304.776 269.607 299.923C263.856 303.575 256.864 305.358 249.567 304.527C242.171 303.684 235.684 300.294 230.882 295.333C225.087 299.087 218.005 300.93 210.608 300.087C193.66 298.156 181.489 282.853 183.42 265.905C183.763 262.899 184.526 260.043 185.644 257.389C176.353 256.084 170.596 255.244 169.376 255.026C158.516 253.086 115.908 215.164 110.502 169.148C103.745 111.628 58.7359 125.416 61.2916 146.025C63.3362 162.512 67.6295 170.333 69.5206 172.182C70.4457 162.012 75.7157 144.864 89.3947 157.632C98.9418 169 104.439 191.622 102.079 212.331ZM555.357 299.943C555.828 302.645 555.927 305.457 555.601 308.318C553.75 324.556 539.088 336.219 522.849 334.368C516.05 333.593 510.054 330.573 505.515 326.131C512.662 321.245 517.726 313.399 518.783 304.122C519.031 301.947 519.044 299.799 518.842 297.703C533.577 298.921 546.038 299.712 555.357 299.943ZM517.532 297.594C511.398 297.081 504.881 296.496 498.042 295.849C497.448 297.691 497.027 299.619 496.799 301.617C495.777 310.587 498.878 319.077 504.597 325.191C511.544 320.52 516.476 312.946 517.499 303.976C517.745 301.812 517.749 299.676 517.532 297.594ZM496.725 295.724C491.054 295.184 485.165 294.602 479.095 293.983C479.222 295.819 479.184 297.692 478.969 299.585C477.956 308.47 473.269 316.042 466.596 320.957C471.221 325.853 477.532 329.204 484.747 330.026C491.546 330.801 498.069 329.207 503.491 325.9C497.626 319.532 494.457 310.748 495.515 301.47C495.741 299.484 496.151 297.564 496.725 295.724ZM477.789 293.849C471.947 293.251 465.94 292.619 459.799 291.959C459.279 293.664 458.906 295.44 458.697 297.275C457.721 305.834 460.5 313.956 465.725 319.994C472.174 315.286 476.709 307.998 477.684 299.438C477.9 297.548 477.93 295.679 477.789 293.849ZM458.491 291.818C452.77 291.201 446.935 290.559 441.01 289.897C441.116 291.651 441.072 293.437 440.866 295.243C439.809 304.52 434.745 312.366 427.598 317.251C432.137 321.693 438.134 324.714 444.933 325.489C452.148 326.311 459.052 324.466 464.659 320.737C459.263 314.446 456.4 306.013 457.412 297.128C457.621 295.299 457.985 293.524 458.491 291.818ZM439.705 289.751C433.218 289.024 426.626 288.273 419.96 287.502C419.452 289.182 419.088 290.932 418.882 292.738C417.86 301.708 420.961 310.198 426.68 316.312C433.628 311.641 438.56 304.067 439.582 295.096C439.788 293.29 439.824 291.503 439.705 289.751ZM418.656 287.351C412.46 286.633 406.202 285.899 399.907 285.151C400.018 286.925 399.976 288.733 399.768 290.559C398.79 299.14 394.385 306.496 388.074 311.418C392.746 316.671 399.295 320.288 406.831 321.147C413.63 321.922 420.152 320.328 425.574 317.021C419.709 310.653 416.541 301.869 417.598 292.591C417.804 290.786 418.161 289.036 418.656 287.351ZM398.601 284.996C393.059 284.337 387.489 283.669 381.908 282.993C381.374 284.725 380.993 286.53 380.78 288.396C379.841 296.637 382.382 304.472 387.235 310.432C393.305 305.716 397.544 298.654 398.483 290.413C398.692 288.582 398.727 286.771 398.601 284.996ZM380.605 282.836C374.479 282.093 368.341 281.342 362.215 280.587C362.348 282.447 362.312 284.346 362.094 286.266C361.025 295.639 355.867 303.552 348.603 308.425C353.116 312.758 359.035 315.7 365.732 316.463C373.267 317.322 380.463 315.271 386.197 311.204C381.155 304.988 378.518 296.83 379.496 288.249C379.709 286.383 380.083 284.574 380.605 282.836ZM360.906 280.425C354.221 279.6 347.552 278.769 340.927 277.937C340.331 279.782 339.909 281.712 339.681 283.712C338.648 292.783 341.831 301.363 347.673 307.492C354.744 302.834 359.775 295.191 360.809 286.12C361.029 284.193 361.056 282.289 360.906 280.425ZM339.622 277.773C333.827 277.045 328.068 276.317 322.364 275.591C322.538 277.598 322.516 279.651 322.279 281.729C321.267 290.614 316.579 298.186 309.907 303.102C314.531 307.997 320.843 311.348 328.058 312.17C334.755 312.933 341.183 311.398 346.556 308.192C340.574 301.809 337.329 292.939 338.397 283.566C338.625 281.563 339.04 279.627 339.622 277.773ZM321.05 275.423C315.102 274.666 309.215 273.911 303.413 273.163C302.733 275.152 302.255 277.244 302.007 279.419C301.032 287.978 303.811 296.1 309.035 302.138C315.484 297.43 320.019 290.142 320.995 281.583C321.232 279.496 321.244 277.435 321.05 275.423ZM302.105 272.994C295.887 272.192 289.769 271.398 283.777 270.615C284.01 272.808 284.009 275.058 283.749 277.338C282.703 286.519 277.733 294.298 270.704 299.193C275.266 303.746 281.341 306.847 288.243 307.633C295.458 308.455 302.362 306.61 307.969 302.881C302.574 296.59 299.711 288.157 300.723 279.272C300.971 277.094 301.44 274.995 302.105 272.994ZM282.457 270.443C276.087 269.611 269.865 268.793 263.822 267.994C263.022 270.17 262.467 272.476 262.193 274.882C261.182 283.751 264.202 292.15 269.798 298.248C276.621 293.565 281.454 286.061 282.464 277.192C282.726 274.901 282.714 272.64 282.457 270.443ZM262.51 267.821C256.383 267.01 250.446 266.221 244.734 265.457C245.049 267.875 245.079 270.369 244.79 272.899C243.755 281.981 238.88 289.693 231.969 294.596C236.554 299.261 242.707 302.444 249.713 303.242C256.615 304.029 263.232 302.374 268.702 298.965C262.954 292.614 259.862 283.916 260.908 274.735C261.183 272.325 261.728 270.011 262.51 267.821ZM243.405 265.279C237.168 264.445 231.208 263.642 225.569 262.879C224.62 265.266 223.967 267.816 223.663 270.491C222.664 279.258 225.603 287.565 231.075 293.645C237.774 288.952 242.507 281.519 243.506 272.752C243.796 270.209 243.75 267.703 243.405 265.279ZM224.251 262.701C209.116 260.651 196.377 258.894 186.971 257.575C185.825 260.207 185.046 263.051 184.704 266.051C182.854 282.29 194.516 296.952 210.755 298.803C217.76 299.601 224.473 297.884 229.989 294.37C224.359 288.038 221.343 279.427 222.378 270.345C222.684 267.665 223.323 265.105 224.251 262.701Z" fill="url(#paint1_linear_11_2175)"/>
<path d="M491.76 258.003C491.76 258.003 531.585 119.616 556.972 85.377L287.927 54.7174C224.218 97.3411 216.524 187.404 220.64 227.107C314.664 260.709 491.76 258.003 491.76 258.003Z" fill="white"/>
<path d="M491.76 258.003C491.76 258.003 531.585 119.616 556.972 85.377L287.927 54.7174C224.218 97.3411 216.524 187.404 220.64 227.107C314.664 260.709 491.76 258.003 491.76 258.003Z" fill="url(#paint2_linear_11_2175)" fill-opacity="0.78"/>
<rect width="2.78444" height="62.6498" transform="matrix(-0.923888 0.382664 0.382664 0.923888 508.875 326.42)" fill="#007FEA"/>
<rect width="5.56887" height="19.491" transform="matrix(-0.923888 0.382664 0.382664 0.923888 530.535 364.159)" fill="#007FEA"/>
<rect width="2.78444" height="62.6498" transform="matrix(-0.923888 0.382664 0.382664 0.923888 403.746 314.439)" fill="#007FEA"/>
<rect width="5.56887" height="19.491" transform="matrix(-0.923888 0.382664 0.382664 0.923888 425.406 352.179)" fill="#007FEA"/>
<rect width="2.78444" height="62.6498" transform="matrix(-0.923888 0.382664 0.382664 0.923888 304.15 303.09)" fill="#007FEA"/>
<rect width="5.56887" height="19.491" transform="matrix(-0.923888 0.382664 0.382664 0.923888 325.811 340.829)" fill="#007FEA"/>
<rect width="2.78444" height="62.6498" transform="matrix(-0.923888 0.382664 0.382664 0.923888 471.528 322.164)" fill="#007FEA"/>
<rect width="5.56887" height="19.491" transform="matrix(-0.923888 0.382664 0.382664 0.923888 493.188 359.903)" fill="#007FEA"/>
<rect width="2.78444" height="62.6498" transform="matrix(-0.923888 0.382664 0.382664 0.923888 366.399 310.184)" fill="#007FEA"/>
<rect width="5.56887" height="19.491" transform="matrix(-0.923888 0.382664 0.382664 0.923888 388.059 347.923)" fill="#007FEA"/>
<rect width="2.78444" height="62.6498" transform="matrix(-0.923888 0.382664 0.382664 0.923888 266.803 298.834)" fill="#007FEA"/>
<rect width="5.56887" height="19.491" transform="matrix(-0.923888 0.382664 0.382664 0.923888 288.464 336.573)" fill="#007FEA"/>
<rect width="2.78444" height="62.6498" transform="matrix(-0.923888 0.382664 0.382664 0.923888 441.092 318.695)" fill="#007FEA"/>
<rect width="5.56887" height="19.491" transform="matrix(-0.923888 0.382664 0.382664 0.923888 462.752 356.435)" fill="#007FEA"/>
<rect width="2.78444" height="62.6498" transform="matrix(-0.923888 0.382664 0.382664 0.923888 335.964 306.715)" fill="#007FEA"/>
<rect width="5.56887" height="19.491" transform="matrix(-0.923888 0.382664 0.382664 0.923888 357.625 344.454)" fill="#007FEA"/>
<rect width="2.78444" height="62.6498" transform="matrix(-0.923888 0.382664 0.382664 0.923888 236.368 295.365)" fill="#007FEA"/>
<rect width="5.56887" height="19.491" transform="matrix(-0.923888 0.382664 0.382664 0.923888 258.029 333.104)" fill="#007FEA"/>
<mask id="mask0_11_2175" style="mask-type:alpha" maskUnits="userSpaceOnUse" x="219" y="55" width="338" height="204">
<path d="M491.297 258.528C491.297 258.528 531.092 120.242 556.461 86.0273L287.613 55.3902C223.95 97.9827 216.262 187.98 220.375 227.654C314.33 261.231 491.297 258.528 491.297 258.528Z" fill="#1C0F70"/>
</mask>
<g mask="url(#mask0_11_2175)">
<path d="M294.018 92.9213C146.775 -57.0292 0.345911 10.869 -54.463 63.5619L-98.6893 132.797L438.836 466.439L648.057 98.2115C591.396 158.927 441.262 242.872 294.018 92.9213Z" fill="url(#paint3_linear_11_2175)" fill-opacity="0.3"/>
<path d="M440.078 141.203C617.284 28.2261 744.682 127.329 786.23 191.002L813.745 268.412L-28.48 431.442L62.5677 30.2821C104.116 102.19 262.872 254.18 440.078 141.203Z" fill="url(#paint4_linear_11_2175)" fill-opacity="0.3"/>
</g>
<path d="M217.824 240.383C201.585 238.532 186.923 250.194 185.073 266.433C183.222 282.672 194.884 297.334 211.123 299.185C227.362 301.035 242.024 289.373 243.875 273.134C245.725 256.895 233.892 242.214 217.824 240.383ZM211.883 292.518C199.234 291.077 190.317 279.671 191.739 267.193C193.161 254.715 204.586 245.627 217.064 247.049C229.543 248.471 238.63 259.896 237.208 272.374C235.786 284.853 224.361 293.94 211.883 292.518Z" fill="url(#paint5_linear_11_2175)"/>
<path d="M212.117 290.476C223.54 291.778 233.855 283.573 235.157 272.15C236.459 260.727 228.254 250.412 216.831 249.11C205.408 247.808 195.092 256.013 193.791 267.436C192.489 278.859 200.694 289.175 212.117 290.476Z" fill="white"/>
<path d="M211.881 292.525C224.437 293.956 235.776 284.938 237.207 272.382C238.637 259.826 229.619 248.487 217.063 247.057C204.507 245.626 193.169 254.644 191.738 267.2C190.307 279.756 199.326 291.095 211.881 292.525Z" fill="white"/>
<path d="M226.296 252.611C224.533 251.371 222.56 250.453 220.396 249.687C220.011 251.548 218.126 252.892 216.246 252.677C214.194 252.444 212.831 250.73 212.875 248.83C210.594 249.09 208.465 249.54 206.468 250.351C207.158 254.932 210.719 258.628 215.505 259.173C220.292 259.718 224.764 256.938 226.296 252.611Z" fill="url(#paint6_linear_11_2175)"/>
<path d="M231.453 271.193C231.667 269.312 233.4 267.778 235.3 267.822C235.04 265.541 234.59 263.412 233.779 261.415C229.369 262.124 225.673 265.686 225.147 270.301C224.602 275.087 227.553 279.579 231.881 281.111C233.121 279.348 234.038 277.375 234.633 275.191C232.582 274.958 231.219 273.244 231.453 271.193Z" fill="url(#paint7_linear_11_2175)"/>
<path d="M203.931 268.083C204.457 263.468 201.657 259.166 197.52 257.483C196.28 259.246 195.192 261.2 194.596 263.383C196.457 263.768 197.82 265.482 197.587 267.533C197.353 269.585 195.639 270.948 193.739 270.904C193.828 273.165 194.278 275.295 195.089 277.292C199.499 276.582 203.366 273.04 203.931 268.083Z" fill="url(#paint8_linear_11_2175)"/>
<path d="M202.499 286.775C204.262 288.015 206.235 288.932 208.399 289.699C208.784 287.838 210.669 286.494 212.549 286.708C214.601 286.942 215.964 288.656 215.92 290.556C218.201 290.296 220.33 289.846 222.327 289.035C221.637 284.454 218.076 280.758 213.29 280.213C208.503 279.667 204.011 282.619 202.499 286.775Z" fill="url(#paint9_linear_11_2175)"/>
<path d="M219.175 272.557L218.798 271.302L218.647 271.112L218.476 271.092C218.476 271.092 218.476 271.092 218.305 271.073C218.305 271.073 218.305 271.073 218.344 270.731L218.714 267.483C218.85 266.287 219.104 264.065 216.882 263.811C216.198 263.733 215.324 263.807 214.411 264.222L214.43 264.051L214.411 264.222L214.24 264.203L213.443 263.593L213.272 263.573L213.101 263.554L210.02 264.761L209.83 264.913L209.981 265.103L210.358 266.358L210.509 266.548L210.7 266.397L211.061 266.265C211.232 266.284 211.251 266.113 211.422 266.133L210.254 276.389L210.234 276.56L210.405 276.579L212.627 276.833L212.798 276.852L212.818 276.681L213.967 266.596C214.88 266.181 215.393 266.239 215.564 266.259C215.735 266.278 216.077 266.317 215.96 267.343L215.59 270.59C215.317 272.983 216.474 273.462 217.158 273.54C217.671 273.598 218.394 273.334 219.136 272.899L219.175 272.557Z" fill="url(#paint10_linear_11_2175)"/>
<path d="M256.755 244.819C240.516 242.969 225.854 254.631 224.003 270.87C222.153 287.109 233.815 301.771 250.054 303.621C266.293 305.472 280.955 293.809 282.805 277.571C284.656 261.332 272.823 246.65 256.755 244.819ZM250.813 296.955C238.164 295.513 229.248 284.108 230.67 271.629C232.092 259.151 243.517 250.064 255.995 251.486C268.473 252.908 277.561 264.333 276.139 276.811C274.717 289.289 263.292 298.377 250.813 296.955Z" fill="url(#paint11_linear_11_2175)"/>
<path d="M251.046 294.902C262.47 296.204 272.785 287.999 274.087 276.576C275.388 265.153 267.184 254.837 255.76 253.536C244.337 252.234 234.022 260.439 232.72 271.862C231.419 283.285 239.623 293.6 251.046 294.902Z" fill="white"/>
<path d="M250.813 296.954C263.369 298.385 274.707 289.366 276.138 276.81C277.569 264.255 268.55 252.916 255.994 251.485C243.438 250.054 232.1 259.073 230.669 271.629C229.238 284.185 238.257 295.523 250.813 296.954Z" fill="white"/>
<path d="M265.231 257.041C263.468 255.801 261.495 254.884 259.331 254.118C258.946 255.979 257.061 257.322 255.181 257.108C253.129 256.874 251.766 255.161 251.81 253.261C249.529 253.52 247.4 253.97 245.403 254.782C246.093 259.362 249.654 263.058 254.44 263.604C259.227 264.149 263.699 261.369 265.231 257.041Z" fill="url(#paint12_linear_11_2175)"/>
<path d="M270.383 275.635C270.598 273.755 272.331 272.221 274.231 272.264C273.971 269.983 273.521 267.854 272.71 265.857C268.3 266.567 264.604 270.128 264.078 274.743C263.533 279.53 266.484 284.022 270.811 285.554C272.051 283.79 272.969 281.817 273.564 279.634C271.513 279.4 270.15 277.686 270.383 275.635Z" fill="url(#paint13_linear_11_2175)"/>
<path d="M242.866 272.498C243.392 267.883 240.592 263.581 236.455 261.898C235.215 263.661 234.126 265.615 233.531 267.798C235.392 268.183 236.755 269.897 236.522 271.948C236.288 274 234.574 275.363 232.674 275.319C232.763 277.581 233.213 279.71 234.024 281.707C238.434 280.997 242.301 277.455 242.866 272.498Z" fill="url(#paint14_linear_11_2175)"/>
<path d="M241.424 291.21C243.187 292.45 245.161 293.367 247.324 294.133C247.709 292.272 249.594 290.929 251.474 291.143C253.526 291.377 254.889 293.09 254.845 294.99C257.126 294.731 259.255 294.281 261.252 293.469C260.562 288.889 257.001 285.193 252.215 284.647C247.428 284.102 242.936 287.053 241.424 291.21Z" fill="url(#paint15_linear_11_2175)"/>
<path d="M258.109 277.008L257.732 275.753L257.581 275.562L257.41 275.543C257.41 275.543 257.41 275.543 257.239 275.523C257.239 275.523 257.239 275.523 257.278 275.181L257.648 271.934C257.784 270.737 258.037 268.515 255.815 268.262C255.132 268.184 254.257 268.257 253.344 268.673L253.364 268.502L253.344 268.673L253.173 268.653L252.377 268.043L252.206 268.023L252.035 268.004L248.954 269.211L248.764 269.363L248.915 269.553L249.292 270.808L249.443 270.999L249.633 270.847L249.995 270.715C250.166 270.735 250.185 270.564 250.356 270.583L249.187 280.839L249.168 281.01L249.339 281.03L251.561 281.283L251.732 281.302L251.751 281.131L252.901 271.046C253.814 270.631 254.327 270.689 254.498 270.709C254.668 270.728 255.01 270.767 254.893 271.793L254.523 275.041C254.251 277.434 255.408 277.912 256.092 277.99C256.605 278.048 257.327 277.784 258.07 277.349L258.109 277.008Z" fill="url(#paint16_linear_11_2175)"/>
<path d="M295.685 249.256C279.446 247.405 264.784 259.067 262.934 275.306C261.083 291.545 272.745 306.207 288.984 308.058C305.223 309.908 319.885 298.246 321.736 282.007C323.586 265.768 311.753 251.087 295.685 249.256ZM289.744 301.391C277.095 299.95 268.178 288.544 269.6 276.066C271.022 263.588 282.447 254.5 294.925 255.922C307.404 257.344 316.491 268.769 315.069 281.247C313.647 293.726 302.222 302.813 289.744 301.391Z" fill="url(#paint17_linear_11_2175)"/>
<path d="M289.977 299.34C301.4 300.641 311.715 292.436 313.017 281.013C314.319 269.59 306.114 259.275 294.691 257.973C283.268 256.671 272.952 264.876 271.651 276.299C270.349 287.722 278.554 298.038 289.977 299.34Z" fill="white"/>
<path d="M289.744 301.389C302.299 302.82 313.638 293.801 315.069 281.245C316.5 268.689 307.481 257.351 294.925 255.92C282.369 254.489 271.031 263.508 269.6 276.064C268.169 288.619 277.188 299.958 289.744 301.389Z" fill="white"/>
<path d="M304.161 261.476C302.398 260.236 300.424 259.319 298.261 258.552C297.875 260.413 295.991 261.757 294.11 261.543C292.059 261.309 290.696 259.595 290.739 257.695C288.459 257.955 286.33 258.405 284.333 259.216C285.023 263.797 288.584 267.493 293.37 268.038C298.156 268.584 302.629 265.803 304.161 261.476Z" fill="url(#paint18_linear_11_2175)"/>
<path d="M309.314 280.07C309.528 278.189 311.262 276.655 313.161 276.699C312.902 274.418 312.452 272.289 311.64 270.292C307.231 271.001 303.535 274.563 303.009 279.178C302.464 283.964 305.415 288.456 309.742 289.988C310.982 288.225 311.9 286.251 312.495 284.068C310.443 283.835 309.08 282.121 309.314 280.07Z" fill="url(#paint19_linear_11_2175)"/>
<path d="M281.793 276.937C282.319 272.321 279.519 268.02 275.382 266.336C274.142 268.1 273.054 270.053 272.459 272.237C274.319 272.622 275.682 274.336 275.449 276.387C275.215 278.438 273.501 279.801 271.601 279.758C271.69 282.019 272.14 284.148 272.951 286.145C277.361 285.436 281.228 281.894 281.793 276.937Z" fill="url(#paint20_linear_11_2175)"/>
<path d="M280.354 295.644C282.118 296.884 284.091 297.802 286.255 298.568C286.64 296.707 288.525 295.363 290.405 295.578C292.456 295.811 293.819 297.525 293.776 299.425C296.056 299.165 298.186 298.715 300.183 297.904C299.493 293.323 295.931 289.627 291.145 289.082C286.359 288.537 281.867 291.488 280.354 295.644Z" fill="url(#paint21_linear_11_2175)"/>
<path d="M297.037 281.444L296.661 280.189L296.509 279.999L296.338 279.979C296.338 279.979 296.338 279.979 296.167 279.96C296.167 279.96 296.167 279.96 296.206 279.618L296.576 276.37C296.713 275.174 296.966 272.951 294.744 272.698C294.06 272.62 293.186 272.694 292.273 273.109L292.292 272.938L292.273 273.109L292.102 273.09L291.306 272.479L291.135 272.46L290.964 272.441L287.883 273.648L287.692 273.799L287.844 273.99L288.22 275.245L288.372 275.435L288.562 275.284L288.923 275.152C289.094 275.171 289.114 275 289.285 275.02L288.116 285.276L288.096 285.447L288.267 285.466L290.49 285.719L290.661 285.739L290.68 285.568L291.829 275.483C292.742 275.067 293.255 275.126 293.426 275.145C293.597 275.165 293.939 275.204 293.822 276.229L293.452 279.477C293.179 281.87 294.337 282.348 295.021 282.426C295.533 282.485 296.256 282.221 296.998 281.786L297.037 281.444Z" fill="url(#paint22_linear_11_2175)"/>
<path d="M334.616 253.692C318.377 251.842 303.715 263.504 301.864 279.743C300.014 295.982 311.676 310.644 327.915 312.494C344.154 314.345 358.816 302.683 360.666 286.444C362.517 270.205 350.684 255.523 334.616 253.692ZM328.674 305.828C316.025 304.386 307.109 292.981 308.531 280.502C309.953 268.024 321.378 258.937 333.856 260.359C346.334 261.781 355.422 273.206 354 285.684C352.578 298.162 341.153 307.25 328.674 305.828Z" fill="url(#paint23_linear_11_2175)"/>
<path d="M328.908 303.775C340.331 305.077 350.646 296.872 351.948 285.449C353.249 274.026 345.045 263.71 333.622 262.409C322.198 261.107 311.883 269.312 310.581 280.735C309.28 292.158 317.484 302.473 328.908 303.775Z" fill="white"/>
<path d="M328.674 305.827C341.23 307.258 352.568 298.239 353.999 285.684C355.43 273.128 346.411 261.789 333.855 260.358C321.299 258.927 309.961 267.946 308.53 280.502C307.099 293.058 316.118 304.396 328.674 305.827Z" fill="white"/>
<path d="M343.092 265.914C341.329 264.674 339.356 263.757 337.192 262.991C336.807 264.852 334.922 266.195 333.042 265.981C330.99 265.747 329.627 264.034 329.671 262.134C327.39 262.393 325.261 262.843 323.264 263.655C323.954 268.235 327.515 271.931 332.302 272.477C337.088 273.022 341.56 270.242 343.092 265.914Z" fill="url(#paint24_linear_11_2175)"/>
<path d="M348.244 284.508C348.459 282.628 350.192 281.094 352.092 281.137C351.832 278.856 351.382 276.727 350.571 274.73C346.161 275.44 342.465 279.001 341.939 283.616C341.394 288.403 344.345 292.895 348.672 294.427C349.912 292.663 350.83 290.69 351.425 288.507C349.374 288.273 348.011 286.559 348.244 284.508Z" fill="url(#paint25_linear_11_2175)"/>
<path d="M320.725 281.371C321.251 276.756 318.451 272.454 314.314 270.771C313.074 272.534 311.986 274.488 311.39 276.671C313.251 277.056 314.614 278.77 314.381 280.821C314.147 282.873 312.433 284.236 310.533 284.192C310.622 286.454 311.072 288.583 311.883 290.58C316.293 289.87 320.16 286.328 320.725 281.371Z" fill="url(#paint26_linear_11_2175)"/>
<path d="M319.286 300.083C321.049 301.323 323.022 302.24 325.186 303.006C325.571 301.145 327.456 299.802 329.336 300.016C331.388 300.25 332.751 301.963 332.707 303.863C334.988 303.604 337.117 303.154 339.114 302.342C338.424 297.762 334.863 294.066 330.077 293.52C325.29 292.975 320.798 295.926 319.286 300.083Z" fill="url(#paint27_linear_11_2175)"/>
<path d="M335.969 285.881L335.592 284.626L335.441 284.435L335.27 284.416C335.27 284.416 335.27 284.416 335.099 284.396C335.099 284.396 335.099 284.396 335.138 284.054L335.508 280.807C335.645 279.61 335.898 277.388 333.676 277.135C332.992 277.057 332.118 277.13 331.205 277.546L331.224 277.375L331.205 277.546L331.034 277.526L330.237 276.916L330.066 276.897L329.896 276.877L326.814 278.084L326.624 278.236L326.775 278.426L327.152 279.681L327.303 279.872L327.494 279.72L327.855 279.588C328.026 279.608 328.045 279.437 328.216 279.456L327.048 289.712L327.028 289.883L327.199 289.903L329.421 290.156L329.592 290.175L329.612 290.004L330.761 279.919C331.674 279.504 332.187 279.562 332.358 279.582C332.529 279.601 332.871 279.64 332.754 280.666L332.384 283.914C332.111 286.307 333.269 286.785 333.952 286.863C334.465 286.921 335.188 286.657 335.93 286.222L335.969 285.881Z" fill="url(#paint28_linear_11_2175)"/>
<path d="M373.546 258.128C357.307 256.277 342.645 267.939 340.795 284.178C338.944 300.417 350.606 315.079 366.845 316.93C383.084 318.78 397.746 307.118 399.597 290.879C401.447 274.64 389.614 259.959 373.546 258.128ZM367.605 310.263C354.956 308.822 346.039 297.416 347.461 284.938C348.883 272.46 360.308 263.372 372.786 264.794C385.265 266.216 394.352 277.641 392.93 290.119C391.508 302.598 380.083 311.685 367.605 310.263Z" fill="url(#paint29_linear_11_2175)"/>
<path d="M367.838 308.212C379.261 309.513 389.576 301.309 390.878 289.885C392.18 278.462 383.975 268.147 372.552 266.845C361.129 265.544 350.814 273.748 349.512 285.172C348.21 296.595 356.415 306.91 367.838 308.212Z" fill="white"/>
<path d="M367.605 310.261C380.16 311.692 391.499 302.673 392.93 290.117C394.361 277.561 385.342 266.223 372.786 264.792C360.23 263.361 348.892 272.38 347.461 284.936C346.03 297.492 355.049 308.83 367.605 310.261Z" fill="white"/>
<path d="M382.022 270.348C380.259 269.108 378.285 268.191 376.122 267.425C375.736 269.285 373.852 270.629 371.971 270.415C369.92 270.181 368.557 268.467 368.6 266.567C366.32 266.827 364.191 267.277 362.194 268.088C362.884 272.669 366.445 276.365 371.231 276.91C376.017 277.456 380.49 274.675 382.022 270.348Z" fill="url(#paint30_linear_11_2175)"/>
<path d="M387.175 288.942C387.389 287.061 389.123 285.527 391.022 285.571C390.763 283.29 390.313 281.161 389.501 279.164C385.092 279.873 381.396 283.435 380.87 288.05C380.325 292.836 383.276 297.328 387.603 298.86C388.843 297.097 389.761 295.124 390.356 292.94C388.304 292.707 386.941 290.993 387.175 288.942Z" fill="url(#paint31_linear_11_2175)"/>
<path d="M359.654 285.809C360.18 281.193 357.38 276.892 353.243 275.208C352.003 276.972 350.915 278.926 350.319 281.109C352.18 281.494 353.543 283.208 353.31 285.259C353.076 287.31 351.362 288.673 349.462 288.63C349.551 290.891 350.001 293.02 350.812 295.017C355.222 294.308 359.089 290.766 359.654 285.809Z" fill="url(#paint32_linear_11_2175)"/>
<path d="M358.215 304.516C359.979 305.756 361.952 306.674 364.116 307.44C364.501 305.579 366.386 304.235 368.266 304.45C370.317 304.683 371.68 306.397 371.637 308.297C373.918 308.037 376.047 307.587 378.044 306.776C377.354 302.195 373.792 298.499 369.006 297.954C364.22 297.409 359.728 300.36 358.215 304.516Z" fill="url(#paint33_linear_11_2175)"/>
<path d="M374.899 290.316L374.523 289.061L374.371 288.871L374.2 288.851C374.2 288.851 374.2 288.851 374.029 288.832C374.029 288.832 374.029 288.832 374.068 288.49L374.438 285.242C374.575 284.046 374.828 281.823 372.606 281.57C371.922 281.492 371.048 281.566 370.135 281.981L370.154 281.81L370.135 281.981L369.964 281.962L369.168 281.352L368.997 281.332L368.826 281.313L365.745 282.52L365.554 282.671L365.706 282.862L366.082 284.117L366.234 284.307L366.424 284.156L366.785 284.024C366.956 284.043 366.976 283.872 367.147 283.892L365.978 294.148L365.958 294.319L366.129 294.338L368.352 294.592L368.523 294.611L368.542 294.44L369.691 284.355C370.604 283.939 371.117 283.998 371.288 284.017C371.459 284.037 371.801 284.076 371.684 285.101L371.314 288.349C371.041 290.742 372.199 291.221 372.883 291.298C373.395 291.357 374.118 291.093 374.86 290.658L374.899 290.316Z" fill="url(#paint34_linear_11_2175)"/>
<path d="M412.477 262.564C396.238 260.714 381.576 272.376 379.725 288.615C377.875 304.854 389.537 319.516 405.776 321.366C422.015 323.217 436.677 311.555 438.527 295.316C440.378 279.077 428.545 264.395 412.477 262.564ZM406.535 314.7C393.886 313.258 384.97 301.853 386.392 289.375C387.814 276.896 399.239 267.809 411.717 269.231C424.195 270.653 433.283 282.078 431.861 294.556C430.439 307.034 419.014 316.122 406.535 314.7Z" fill="url(#paint35_linear_11_2175)"/>
<path d="M406.769 312.648C418.192 313.95 428.508 305.745 429.81 294.322C431.111 282.899 422.906 272.584 411.483 271.282C400.06 269.98 389.745 278.185 388.443 289.608C387.142 301.031 395.346 311.347 406.769 312.648Z" fill="white"/>
<path d="M406.535 314.699C419.091 316.13 430.429 307.111 431.86 294.556C433.291 282 424.272 270.661 411.716 269.23C399.16 267.8 387.822 276.818 386.391 289.374C384.96 301.93 393.979 313.268 406.535 314.699Z" fill="white"/>
<path d="M420.953 274.786C419.19 273.547 417.217 272.629 415.053 271.863C414.668 273.724 412.783 275.067 410.903 274.853C408.851 274.619 407.488 272.906 407.532 271.006C405.251 271.266 403.122 271.716 401.125 272.527C401.815 277.108 405.376 280.803 410.162 281.349C414.949 281.894 419.421 279.114 420.953 274.786Z" fill="url(#paint36_linear_11_2175)"/>
<path d="M426.108 293.38C426.323 291.5 428.056 289.966 429.956 290.009C429.696 287.729 429.246 285.599 428.435 283.602C424.025 284.312 420.329 287.873 419.803 292.488C419.258 297.275 422.209 301.767 426.536 303.299C427.776 301.535 428.694 299.562 429.289 297.379C427.238 297.145 425.875 295.431 426.108 293.38Z" fill="url(#paint37_linear_11_2175)"/>
<path d="M398.587 290.243C399.113 285.628 396.313 281.326 392.176 279.643C390.936 281.406 389.847 283.36 389.252 285.543C391.113 285.929 392.476 287.642 392.243 289.694C392.009 291.745 390.295 293.108 388.395 293.065C388.484 295.326 388.934 297.455 389.745 299.452C394.155 298.742 398.022 295.2 398.587 290.243Z" fill="url(#paint38_linear_11_2175)"/>
<path d="M397.149 308.955C398.912 310.195 400.885 311.112 403.049 311.878C403.434 310.017 405.319 308.674 407.199 308.888C409.25 309.122 410.613 310.836 410.57 312.735C412.851 312.476 414.98 312.026 416.977 311.214C416.287 306.634 412.726 302.938 407.939 302.392C403.153 301.847 398.661 304.798 397.149 308.955Z" fill="url(#paint39_linear_11_2175)"/>
<path d="M413.83 294.753L413.453 293.498L413.302 293.307L413.131 293.288C413.131 293.288 413.131 293.288 412.96 293.268C412.96 293.268 412.96 293.268 412.999 292.926L413.369 289.679C413.505 288.482 413.759 286.26 411.537 286.007C410.853 285.929 409.979 286.002 409.066 286.418L409.085 286.247L409.066 286.418L408.895 286.398L408.098 285.788L407.927 285.769L407.756 285.749L404.675 286.956L404.485 287.108L404.636 287.298L405.013 288.553L405.164 288.744L405.355 288.592L405.716 288.46C405.887 288.48 405.906 288.309 406.077 288.328L404.909 298.584L404.889 298.755L405.06 298.775L407.282 299.028L407.453 299.048L407.473 298.877L408.622 288.791C409.535 288.376 410.048 288.434 410.219 288.454C410.39 288.473 410.732 288.512 410.615 289.538L410.245 292.786C409.972 295.179 411.129 295.657 411.813 295.735C412.326 295.793 413.049 295.529 413.791 295.095L413.83 294.753Z" fill="url(#paint40_linear_11_2175)"/>
<path d="M451.407 267.001C435.168 265.15 420.506 276.812 418.656 293.051C416.805 309.29 428.467 323.952 444.706 325.803C460.945 327.653 475.607 315.991 477.458 299.752C479.308 283.513 467.475 268.832 451.407 267.001ZM445.466 319.136C432.817 317.695 423.9 306.289 425.322 293.811C426.744 281.333 438.169 272.245 450.647 273.667C463.126 275.089 472.213 286.514 470.791 298.993C469.369 311.471 457.944 320.558 445.466 319.136Z" fill="url(#paint41_linear_11_2175)"/>
<path d="M445.701 317.085C457.124 318.386 467.439 310.182 468.741 298.759C470.043 287.336 461.838 277.02 450.415 275.718C438.992 274.417 428.676 282.622 427.375 294.045C426.073 305.468 434.278 315.783 445.701 317.085Z" fill="white"/>
<path d="M445.467 319.134C458.022 320.565 469.361 311.546 470.792 298.99C472.223 286.434 463.204 275.096 450.648 273.665C438.092 272.234 426.754 281.253 425.323 293.809C423.892 306.365 432.911 317.703 445.467 319.134Z" fill="white"/>
<path d="M459.886 279.221C458.123 277.981 456.149 277.064 453.986 276.298C453.6 278.158 451.716 279.502 449.835 279.288C447.784 279.054 446.421 277.34 446.464 275.441C444.184 275.7 442.055 276.15 440.057 276.961C440.748 281.542 444.309 285.238 449.095 285.783C453.881 286.329 458.354 283.548 459.886 279.221Z" fill="url(#paint42_linear_11_2175)"/>
<path d="M465.039 297.815C465.253 295.934 466.986 294.4 468.886 294.444C468.627 292.163 468.177 290.034 467.365 288.037C462.956 288.746 459.26 292.308 458.734 296.923C458.188 301.709 461.14 306.201 465.467 307.733C466.707 305.97 467.624 303.997 468.22 301.813C466.168 301.58 464.805 299.866 465.039 297.815Z" fill="url(#paint43_linear_11_2175)"/>
<path d="M437.517 294.682C438.043 290.067 435.243 285.765 431.106 284.081C429.866 285.845 428.778 287.799 428.183 289.982C430.044 290.367 431.407 292.081 431.173 294.132C430.939 296.183 429.226 297.546 427.326 297.503C427.414 299.764 427.864 301.893 428.676 303.89C433.085 303.181 436.952 299.639 437.517 294.682Z" fill="url(#paint44_linear_11_2175)"/>
<path d="M436.079 313.389C437.843 314.629 439.816 315.547 441.98 316.313C442.365 314.452 444.25 313.108 446.13 313.323C448.181 313.556 449.544 315.27 449.501 317.17C451.781 316.91 453.911 316.46 455.908 315.649C455.218 311.068 451.656 307.372 446.87 306.827C442.084 306.282 437.592 309.233 436.079 313.389Z" fill="url(#paint45_linear_11_2175)"/>
<path d="M452.761 299.189L452.385 297.934L452.233 297.744L452.062 297.724C452.062 297.724 452.062 297.724 451.891 297.705C451.891 297.705 451.891 297.705 451.93 297.363L452.3 294.115C452.437 292.919 452.69 290.696 450.468 290.443C449.784 290.365 448.91 290.439 447.997 290.854L448.016 290.683L447.997 290.854L447.826 290.835L447.03 290.225L446.859 290.205L446.688 290.186L443.607 291.393L443.416 291.544L443.568 291.735L443.944 292.99L444.096 293.18L444.286 293.029L444.647 292.897C444.818 292.916 444.838 292.745 445.009 292.765L443.84 303.021L443.82 303.192L443.991 303.211L446.214 303.465L446.384 303.484L446.404 303.313L447.553 293.228C448.466 292.812 448.979 292.871 449.15 292.89C449.321 292.91 449.663 292.949 449.546 293.974L449.176 297.222C448.903 299.615 450.061 300.094 450.745 300.171C451.257 300.23 451.98 299.966 452.722 299.531L452.761 299.189Z" fill="url(#paint46_linear_11_2175)"/>
<path d="M490.338 271.437C474.099 269.587 459.437 281.249 457.586 297.488C455.736 313.727 467.398 328.389 483.637 330.239C499.876 332.09 514.538 320.428 516.388 304.189C518.239 287.95 506.406 273.268 490.338 271.437ZM484.396 323.573C471.747 322.131 462.831 310.726 464.253 298.248C465.675 285.769 477.1 276.682 489.578 278.104C502.056 279.526 511.144 290.951 509.722 303.429C508.3 315.907 496.875 324.995 484.396 323.573Z" fill="url(#paint47_linear_11_2175)"/>
<path d="M484.629 321.522C496.052 322.824 506.368 314.619 507.67 303.196C508.971 291.773 500.766 281.458 489.343 280.156C477.92 278.854 467.605 287.059 466.303 298.482C465.001 309.905 473.206 320.221 484.629 321.522Z" fill="white"/>
<path d="M484.395 323.572C496.951 325.003 508.289 315.985 509.72 303.429C511.151 290.873 502.132 279.534 489.576 278.103C477.02 276.673 465.682 285.691 464.251 298.247C462.82 310.803 471.839 322.142 484.395 323.572Z" fill="white"/>
<path d="M498.813 283.659C497.05 282.42 495.077 281.502 492.913 280.736C492.528 282.597 490.643 283.941 488.763 283.726C486.711 283.492 485.348 281.779 485.392 279.879C483.111 280.139 480.982 280.589 478.985 281.4C479.675 285.981 483.236 289.676 488.023 290.222C492.809 290.767 497.281 287.987 498.813 283.659Z" fill="url(#paint48_linear_11_2175)"/>
<path d="M503.967 302.253C504.182 300.373 505.915 298.839 507.815 298.882C507.555 296.602 507.105 294.472 506.294 292.475C501.884 293.185 498.188 296.746 497.662 301.361C497.117 306.148 500.068 310.64 504.395 312.172C505.635 310.408 506.553 308.435 507.148 306.252C505.097 306.018 503.734 304.304 503.967 302.253Z" fill="url(#paint49_linear_11_2175)"/>
<path d="M476.445 299.118C476.971 294.503 474.172 290.201 470.035 288.518C468.795 290.281 467.706 292.235 467.111 294.418C468.972 294.804 470.335 296.517 470.101 298.569C469.868 300.62 468.154 301.983 466.254 301.94C466.343 304.201 466.793 306.33 467.604 308.327C472.014 307.617 475.881 304.075 476.445 299.118Z" fill="url(#paint50_linear_11_2175)"/>
<path d="M475.008 317.828C476.771 319.068 478.744 319.985 480.908 320.751C481.293 318.89 483.178 317.547 485.058 317.761C487.109 317.995 488.473 319.709 488.429 321.608C490.71 321.349 492.839 320.899 494.836 320.087C494.146 315.507 490.585 311.811 485.798 311.266C481.012 310.72 476.52 313.671 475.008 317.828Z" fill="url(#paint51_linear_11_2175)"/>
<path d="M491.69 303.626L491.313 302.371L491.162 302.18L490.991 302.161C490.991 302.161 490.991 302.161 490.82 302.141C490.82 302.141 490.82 302.141 490.859 301.799L491.229 298.552C491.365 297.355 491.619 295.133 489.396 294.88C488.713 294.802 487.839 294.875 486.925 295.291L486.945 295.12L486.925 295.291L486.754 295.271L485.958 294.661L485.787 294.642L485.616 294.622L482.535 295.829L482.345 295.981L482.496 296.171L482.873 297.426L483.024 297.617L483.215 297.465L483.576 297.333C483.747 297.353 483.766 297.182 483.937 297.201L482.768 307.457L482.749 307.628L482.92 307.648L485.142 307.901L485.313 307.921L485.333 307.75L486.482 297.664C487.395 297.249 487.908 297.307 488.079 297.327C488.25 297.346 488.591 297.385 488.475 298.411L488.104 301.659C487.832 304.052 488.989 304.53 489.673 304.608C490.186 304.666 490.909 304.402 491.651 303.968L491.69 303.626Z" fill="url(#paint52_linear_11_2175)"/>
<path d="M529.268 275.874C513.029 274.023 498.372 285.645 496.527 301.834C494.682 318.023 506.349 332.644 522.588 334.494C538.827 336.345 553.484 324.723 555.329 308.535C557.174 292.346 545.336 277.705 529.268 275.874ZM523.345 327.849C510.696 326.407 501.776 315.033 503.194 302.593C504.611 290.154 516.032 281.098 528.511 282.52C540.989 283.942 550.08 295.335 548.662 307.775C547.245 320.215 535.824 329.271 523.345 327.849Z" fill="url(#paint53_linear_11_2175)"/>
<path d="M523.579 325.803C535.002 327.105 545.314 318.928 546.611 307.54C547.909 296.153 539.701 285.866 528.278 284.564C516.855 283.262 506.543 291.439 505.245 302.826C503.947 314.214 512.156 324.501 523.579 325.803Z" fill="white"/>
<path d="M523.345 327.846C535.901 329.277 547.236 320.29 548.662 307.773C550.088 295.255 541.066 283.948 528.51 282.518C515.954 281.087 504.62 290.074 503.193 302.591C501.767 315.108 510.789 326.415 523.345 327.846Z" fill="white"/>
<path d="M537.749 288.06C535.985 286.823 534.012 285.908 531.848 285.143C531.463 286.998 529.579 288.337 527.699 288.123C525.648 287.889 524.284 286.18 524.327 284.286C522.046 284.544 519.917 284.992 517.92 285.8C518.612 290.367 522.175 294.053 526.961 294.598C531.747 295.144 536.218 292.374 537.749 288.06Z" fill="url(#paint54_linear_11_2175)"/>
<path d="M542.907 306.598C543.121 304.723 544.854 303.194 546.753 303.238C546.493 300.964 546.042 298.842 545.23 296.85C540.821 297.556 537.126 301.105 536.602 305.706C536.058 310.478 539.011 314.957 543.339 316.486C544.578 314.729 545.495 312.762 546.089 310.585C544.038 310.352 542.674 308.643 542.907 306.598Z" fill="url(#paint55_linear_11_2175)"/>
<path d="M515.389 303.463C515.914 298.862 513.112 294.573 508.975 292.893C507.736 294.65 506.648 296.598 506.054 298.774C507.915 299.159 509.278 300.868 509.045 302.913C508.812 304.958 507.099 306.316 505.199 306.272C505.289 308.527 505.739 310.649 506.551 312.641C510.961 311.935 514.826 308.405 515.389 303.463Z" fill="url(#paint56_linear_11_2175)"/>
<path d="M513.954 322.114C515.718 323.35 517.692 324.266 519.855 325.03C520.24 323.175 522.124 321.836 524.004 322.051C526.056 322.284 527.419 323.993 527.377 325.887C529.657 325.629 531.786 325.181 533.783 324.373C533.091 319.806 529.529 316.121 524.742 315.575C519.956 315.03 515.465 317.97 513.954 322.114Z" fill="url(#paint57_linear_11_2175)"/>
<path d="M530.632 307.965L530.255 306.714L530.104 306.524L529.933 306.504C529.933 306.504 529.933 306.504 529.762 306.485C529.762 306.485 529.762 306.485 529.801 306.144L530.17 302.906C530.306 301.714 530.558 299.498 528.336 299.245C527.652 299.167 526.778 299.24 525.865 299.654L525.885 299.484L525.865 299.654L525.694 299.634L524.898 299.026L524.727 299.006L524.556 298.987L521.475 300.189L521.285 300.34L521.437 300.53L521.813 301.782L521.965 301.971L522.155 301.82L522.517 301.689C522.687 301.708 522.707 301.538 522.878 301.558L521.713 311.782L521.693 311.952L521.864 311.972L524.086 312.225L524.257 312.245L524.277 312.074L525.422 302.02C526.335 301.606 526.848 301.665 527.019 301.684C527.19 301.704 527.532 301.743 527.415 302.765L527.046 306.003C526.775 308.389 527.932 308.866 528.616 308.944C529.129 309.002 529.851 308.739 530.593 308.306L530.632 307.965Z" fill="url(#paint58_linear_11_2175)"/>
<g opacity="0.66">
<path d="M148.009 289.134C-135.012 167.463 -373.874 244.744 -457.927 298.593L-520.508 366.453L898.023 603.093L819.949 227.097C734.28 288.469 431.031 410.805 148.009 289.134Z" fill="url(#paint59_linear_11_2175)" fill-opacity="0.3"/>
<path d="M579.039 310.229C862.06 188.558 1100.92 265.838 1184.98 319.687L1247.56 387.548L-81.0005 430L-31.7466 278.201C53.9229 339.573 296.017 431.9 579.039 310.229Z" fill="url(#paint60_linear_11_2175)" fill-opacity="0.3"/>
</g>
</g>
<defs>
<linearGradient id="paint0_linear_11_2175" x1="6.87984" y1="0" x2="6.87984" y2="35.7634" gradientUnits="userSpaceOnUse">
<stop stop-color="#523BE4"/>
<stop offset="1" stop-color="#267BF9"/>
</linearGradient>
<linearGradient id="paint1_linear_11_2175" x1="331.089" y1="389.557" x2="349.872" y2="224.733" gradientUnits="userSpaceOnUse">
<stop stop-color="#00DEE7"/>
<stop offset="1" stop-color="#523BE4"/>
</linearGradient>
<linearGradient id="paint2_linear_11_2175" x1="403.521" y1="5.11932" x2="382.445" y2="190.064" gradientUnits="userSpaceOnUse">
<stop stop-color="#B6DBFC"/>
<stop offset="1" stop-color="#267BF9"/>
</linearGradient>
<linearGradient id="paint3_linear_11_2175" x1="291.644" y1="109.303" x2="223.883" y2="215.381" gradientUnits="userSpaceOnUse">
<stop stop-color="#513DE4"/>
<stop offset="1" stop-color="#267BF9"/>
</linearGradient>
<linearGradient id="paint4_linear_11_2175" x1="438.705" y1="157.698" x2="480.863" y2="276.302" gradientUnits="userSpaceOnUse">
<stop stop-color="#513DE4"/>
<stop offset="1" stop-color="#267BF9"/>
</linearGradient>
<linearGradient id="paint5_linear_11_2175" x1="233.845" y1="291.742" x2="194.076" y2="246.645" gradientUnits="userSpaceOnUse">
<stop stop-color="#00DEE7"/>
<stop offset="0.0751114" stop-color="#05CCEC"/>
<stop offset="0.2244" stop-color="#139FFA"/>
<stop offset="0.2719" stop-color="#188FFF"/>
<stop offset="0.401" stop-color="#1D87FD"/>
<stop offset="0.5988" stop-color="#2C72F6"/>
<stop offset="0.8394" stop-color="#444FEA"/>
<stop offset="0.9605" stop-color="#523BE4"/>
</linearGradient>
<linearGradient id="paint6_linear_11_2175" x1="225.171" y1="257.506" x2="206.02" y2="249.682" gradientUnits="userSpaceOnUse">
<stop stop-color="#00DEE7"/>
<stop offset="0.0215771" stop-color="#02D7E9"/>
<stop offset="0.1529" stop-color="#0EB0F5"/>
<stop offset="0.2577" stop-color="#1598FC"/>
<stop offset="0.3223" stop-color="#188FFF"/>
<stop offset="0.4419" stop-color="#1D87FD"/>
<stop offset="0.6253" stop-color="#2C72F6"/>
<stop offset="0.8482" stop-color="#444FEA"/>
<stop offset="0.9605" stop-color="#523BE4"/>
</linearGradient>
<linearGradient id="paint7_linear_11_2175" x1="238.744" y1="276.858" x2="226.889" y2="267.085" gradientUnits="userSpaceOnUse">
<stop offset="0.1199" stop-color="#00DEE7"/>
<stop offset="0.1691" stop-color="#07C5EE"/>
<stop offset="0.241" stop-color="#10A8F7"/>
<stop offset="0.3027" stop-color="#1695FD"/>
<stop offset="0.3469" stop-color="#188FFF"/>
<stop offset="0.6204" stop-color="#3368F2"/>
<stop offset="0.9022" stop-color="#523BE4"/>
</linearGradient>
<linearGradient id="paint8_linear_11_2175" x1="201.22" y1="274.774" x2="194.063" y2="259.58" gradientUnits="userSpaceOnUse">
<stop stop-color="#00DEE7"/>
<stop offset="0.0232223" stop-color="#02D7E9"/>
<stop offset="0.1645" stop-color="#0EB0F5"/>
<stop offset="0.2773" stop-color="#1598FC"/>
<stop offset="0.3469" stop-color="#188FFF"/>
<stop offset="0.6204" stop-color="#3368F2"/>
<stop offset="0.9022" stop-color="#523BE4"/>
</linearGradient>
<linearGradient id="paint9_linear_11_2175" x1="223.205" y1="286.385" x2="203.223" y2="284.108" gradientUnits="userSpaceOnUse">
<stop stop-color="#00DEE7"/>
<stop offset="0.0232223" stop-color="#02D7E9"/>
<stop offset="0.1645" stop-color="#0EB0F5"/>
<stop offset="0.2773" stop-color="#1598FC"/>
<stop offset="0.3469" stop-color="#188FFF"/>
<stop offset="0.6204" stop-color="#3368F2"/>
<stop offset="0.9022" stop-color="#523BE4"/>
</linearGradient>
<linearGradient id="paint10_linear_11_2175" x1="209.236" y1="269.732" x2="219.427" y2="270.893" gradientUnits="userSpaceOnUse">
<stop offset="0.3469" stop-color="#188FFF"/>
<stop offset="0.6204" stop-color="#3368F2"/>
<stop offset="0.9022" stop-color="#523BE4"/>
</linearGradient>
<linearGradient id="paint11_linear_11_2175" x1="272.776" y1="296.178" x2="233.007" y2="251.082" gradientUnits="userSpaceOnUse">
<stop stop-color="#00DEE7"/>
<stop offset="0.0751114" stop-color="#05CCEC"/>
<stop offset="0.2244" stop-color="#139FFA"/>
<stop offset="0.2719" stop-color="#188FFF"/>
<stop offset="0.401" stop-color="#1D87FD"/>
<stop offset="0.5988" stop-color="#2C72F6"/>
<stop offset="0.8394" stop-color="#444FEA"/>
<stop offset="0.9605" stop-color="#523BE4"/>
</linearGradient>
<linearGradient id="paint12_linear_11_2175" x1="264.106" y1="261.937" x2="244.955" y2="254.113" gradientUnits="userSpaceOnUse">
<stop stop-color="#00DEE7"/>
<stop offset="0.0215771" stop-color="#02D7E9"/>
<stop offset="0.1529" stop-color="#0EB0F5"/>
<stop offset="0.2577" stop-color="#1598FC"/>
<stop offset="0.3223" stop-color="#188FFF"/>
<stop offset="0.4419" stop-color="#1D87FD"/>
<stop offset="0.6253" stop-color="#2C72F6"/>
<stop offset="0.8482" stop-color="#444FEA"/>
<stop offset="0.9605" stop-color="#523BE4"/>
</linearGradient>
<linearGradient id="paint13_linear_11_2175" x1="277.675" y1="281.3" x2="265.819" y2="271.527" gradientUnits="userSpaceOnUse">
<stop offset="0.1199" stop-color="#00DEE7"/>
<stop offset="0.1691" stop-color="#07C5EE"/>
<stop offset="0.241" stop-color="#10A8F7"/>
<stop offset="0.3027" stop-color="#1695FD"/>
<stop offset="0.3469" stop-color="#188FFF"/>
<stop offset="0.6204" stop-color="#3368F2"/>
<stop offset="0.9022" stop-color="#523BE4"/>
</linearGradient>
<linearGradient id="paint14_linear_11_2175" x1="240.155" y1="279.189" x2="232.998" y2="263.995" gradientUnits="userSpaceOnUse">
<stop stop-color="#00DEE7"/>
<stop offset="0.0232223" stop-color="#02D7E9"/>
<stop offset="0.1645" stop-color="#0EB0F5"/>
<stop offset="0.2773" stop-color="#1598FC"/>
<stop offset="0.3469" stop-color="#188FFF"/>
<stop offset="0.6204" stop-color="#3368F2"/>
<stop offset="0.9022" stop-color="#523BE4"/>
</linearGradient>
<linearGradient id="paint15_linear_11_2175" x1="262.13" y1="290.82" x2="242.148" y2="288.543" gradientUnits="userSpaceOnUse">
<stop stop-color="#00DEE7"/>
<stop offset="0.0232223" stop-color="#02D7E9"/>
<stop offset="0.1645" stop-color="#0EB0F5"/>
<stop offset="0.2773" stop-color="#1598FC"/>
<stop offset="0.3469" stop-color="#188FFF"/>
<stop offset="0.6204" stop-color="#3368F2"/>
<stop offset="0.9022" stop-color="#523BE4"/>
</linearGradient>
<linearGradient id="paint16_linear_11_2175" x1="248.17" y1="274.182" x2="258.36" y2="275.343" gradientUnits="userSpaceOnUse">
<stop offset="0.3469" stop-color="#188FFF"/>
<stop offset="0.6204" stop-color="#3368F2"/>
<stop offset="0.9022" stop-color="#523BE4"/>
</linearGradient>
<linearGradient id="paint17_linear_11_2175" x1="311.706" y1="300.615" x2="271.937" y2="255.518" gradientUnits="userSpaceOnUse">
<stop stop-color="#00DEE7"/>
<stop offset="0.0751114" stop-color="#05CCEC"/>
<stop offset="0.2244" stop-color="#139FFA"/>
<stop offset="0.2719" stop-color="#188FFF"/>
<stop offset="0.401" stop-color="#1D87FD"/>
<stop offset="0.5988" stop-color="#2C72F6"/>
<stop offset="0.8394" stop-color="#444FEA"/>
<stop offset="0.9605" stop-color="#523BE4"/>
</linearGradient>
<linearGradient id="paint18_linear_11_2175" x1="303.036" y1="266.371" x2="283.885" y2="258.547" gradientUnits="userSpaceOnUse">
<stop stop-color="#00DEE7"/>
<stop offset="0.0215771" stop-color="#02D7E9"/>
<stop offset="0.1529" stop-color="#0EB0F5"/>
<stop offset="0.2577" stop-color="#1598FC"/>
<stop offset="0.3223" stop-color="#188FFF"/>
<stop offset="0.4419" stop-color="#1D87FD"/>
<stop offset="0.6253" stop-color="#2C72F6"/>
<stop offset="0.8482" stop-color="#444FEA"/>
<stop offset="0.9605" stop-color="#523BE4"/>
</linearGradient>
<linearGradient id="paint19_linear_11_2175" x1="316.605" y1="285.735" x2="304.75" y2="275.962" gradientUnits="userSpaceOnUse">
<stop offset="0.1199" stop-color="#00DEE7"/>
<stop offset="0.1691" stop-color="#07C5EE"/>
<stop offset="0.241" stop-color="#10A8F7"/>
<stop offset="0.3027" stop-color="#1695FD"/>
<stop offset="0.3469" stop-color="#188FFF"/>
<stop offset="0.6204" stop-color="#3368F2"/>
<stop offset="0.9022" stop-color="#523BE4"/>
</linearGradient>
<linearGradient id="paint20_linear_11_2175" x1="279.082" y1="283.628" x2="271.926" y2="268.434" gradientUnits="userSpaceOnUse">
<stop stop-color="#00DEE7"/>
<stop offset="0.0232223" stop-color="#02D7E9"/>
<stop offset="0.1645" stop-color="#0EB0F5"/>
<stop offset="0.2773" stop-color="#1598FC"/>
<stop offset="0.3469" stop-color="#188FFF"/>
<stop offset="0.6204" stop-color="#3368F2"/>
<stop offset="0.9022" stop-color="#523BE4"/>
</linearGradient>
<linearGradient id="paint21_linear_11_2175" x1="301.06" y1="295.254" x2="281.078" y2="292.977" gradientUnits="userSpaceOnUse">
<stop stop-color="#00DEE7"/>
<stop offset="0.0232223" stop-color="#02D7E9"/>
<stop offset="0.1645" stop-color="#0EB0F5"/>
<stop offset="0.2773" stop-color="#1598FC"/>
<stop offset="0.3469" stop-color="#188FFF"/>
<stop offset="0.6204" stop-color="#3368F2"/>
<stop offset="0.9022" stop-color="#523BE4"/>
</linearGradient>
<linearGradient id="paint22_linear_11_2175" x1="287.099" y1="278.619" x2="297.289" y2="279.78" gradientUnits="userSpaceOnUse">
<stop offset="0.3469" stop-color="#188FFF"/>
<stop offset="0.6204" stop-color="#3368F2"/>
<stop offset="0.9022" stop-color="#523BE4"/>
</linearGradient>
<linearGradient id="paint23_linear_11_2175" x1="350.637" y1="305.052" x2="310.868" y2="259.955" gradientUnits="userSpaceOnUse">
<stop stop-color="#00DEE7"/>
<stop offset="0.0751114" stop-color="#05CCEC"/>
<stop offset="0.2244" stop-color="#139FFA"/>
<stop offset="0.2719" stop-color="#188FFF"/>
<stop offset="0.401" stop-color="#1D87FD"/>
<stop offset="0.5988" stop-color="#2C72F6"/>
<stop offset="0.8394" stop-color="#444FEA"/>
<stop offset="0.9605" stop-color="#523BE4"/>
</linearGradient>
<linearGradient id="paint24_linear_11_2175" x1="341.967" y1="270.81" x2="322.816" y2="262.986" gradientUnits="userSpaceOnUse">
<stop stop-color="#00DEE7"/>
<stop offset="0.0215771" stop-color="#02D7E9"/>
<stop offset="0.1529" stop-color="#0EB0F5"/>
<stop offset="0.2577" stop-color="#1598FC"/>
<stop offset="0.3223" stop-color="#188FFF"/>
<stop offset="0.4419" stop-color="#1D87FD"/>
<stop offset="0.6253" stop-color="#2C72F6"/>
<stop offset="0.8482" stop-color="#444FEA"/>
<stop offset="0.9605" stop-color="#523BE4"/>
</linearGradient>
<linearGradient id="paint25_linear_11_2175" x1="355.536" y1="290.173" x2="343.68" y2="280.4" gradientUnits="userSpaceOnUse">
<stop offset="0.1199" stop-color="#00DEE7"/>
<stop offset="0.1691" stop-color="#07C5EE"/>
<stop offset="0.241" stop-color="#10A8F7"/>
<stop offset="0.3027" stop-color="#1695FD"/>
<stop offset="0.3469" stop-color="#188FFF"/>
<stop offset="0.6204" stop-color="#3368F2"/>
<stop offset="0.9022" stop-color="#523BE4"/>
</linearGradient>
<linearGradient id="paint26_linear_11_2175" x1="318.014" y1="288.062" x2="310.857" y2="272.868" gradientUnits="userSpaceOnUse">
<stop stop-color="#00DEE7"/>
<stop offset="0.0232223" stop-color="#02D7E9"/>
<stop offset="0.1645" stop-color="#0EB0F5"/>
<stop offset="0.2773" stop-color="#1598FC"/>
<stop offset="0.3469" stop-color="#188FFF"/>
<stop offset="0.6204" stop-color="#3368F2"/>
<stop offset="0.9022" stop-color="#523BE4"/>
</linearGradient>
<linearGradient id="paint27_linear_11_2175" x1="339.992" y1="299.693" x2="320.01" y2="297.416" gradientUnits="userSpaceOnUse">
<stop stop-color="#00DEE7"/>
<stop offset="0.0232223" stop-color="#02D7E9"/>
<stop offset="0.1645" stop-color="#0EB0F5"/>
<stop offset="0.2773" stop-color="#1598FC"/>
<stop offset="0.3469" stop-color="#188FFF"/>
<stop offset="0.6204" stop-color="#3368F2"/>
<stop offset="0.9022" stop-color="#523BE4"/>
</linearGradient>
<linearGradient id="paint28_linear_11_2175" x1="326.03" y1="283.055" x2="336.221" y2="284.216" gradientUnits="userSpaceOnUse">
<stop offset="0.3469" stop-color="#188FFF"/>
<stop offset="0.6204" stop-color="#3368F2"/>
<stop offset="0.9022" stop-color="#523BE4"/>
</linearGradient>
<linearGradient id="paint29_linear_11_2175" x1="389.567" y1="309.487" x2="349.798" y2="264.39" gradientUnits="userSpaceOnUse">
<stop stop-color="#00DEE7"/>
<stop offset="0.0751114" stop-color="#05CCEC"/>
<stop offset="0.2244" stop-color="#139FFA"/>
<stop offset="0.2719" stop-color="#188FFF"/>
<stop offset="0.401" stop-color="#1D87FD"/>
<stop offset="0.5988" stop-color="#2C72F6"/>
<stop offset="0.8394" stop-color="#444FEA"/>
<stop offset="0.9605" stop-color="#523BE4"/>
</linearGradient>
<linearGradient id="paint30_linear_11_2175" x1="380.897" y1="275.243" x2="361.746" y2="267.419" gradientUnits="userSpaceOnUse">
<stop stop-color="#00DEE7"/>
<stop offset="0.0215771" stop-color="#02D7E9"/>
<stop offset="0.1529" stop-color="#0EB0F5"/>
<stop offset="0.2577" stop-color="#1598FC"/>
<stop offset="0.3223" stop-color="#188FFF"/>
<stop offset="0.4419" stop-color="#1D87FD"/>
<stop offset="0.6253" stop-color="#2C72F6"/>
<stop offset="0.8482" stop-color="#444FEA"/>
<stop offset="0.9605" stop-color="#523BE4"/>
</linearGradient>
<linearGradient id="paint31_linear_11_2175" x1="394.466" y1="294.607" x2="382.611" y2="284.834" gradientUnits="userSpaceOnUse">
<stop offset="0.1199" stop-color="#00DEE7"/>
<stop offset="0.1691" stop-color="#07C5EE"/>
<stop offset="0.241" stop-color="#10A8F7"/>
<stop offset="0.3027" stop-color="#1695FD"/>
<stop offset="0.3469" stop-color="#188FFF"/>
<stop offset="0.6204" stop-color="#3368F2"/>
<stop offset="0.9022" stop-color="#523BE4"/>
</linearGradient>
<linearGradient id="paint32_linear_11_2175" x1="356.943" y1="292.5" x2="349.786" y2="277.306" gradientUnits="userSpaceOnUse">
<stop stop-color="#00DEE7"/>
<stop offset="0.0232223" stop-color="#02D7E9"/>
<stop offset="0.1645" stop-color="#0EB0F5"/>
<stop offset="0.2773" stop-color="#1598FC"/>
<stop offset="0.3469" stop-color="#188FFF"/>
<stop offset="0.6204" stop-color="#3368F2"/>
<stop offset="0.9022" stop-color="#523BE4"/>
</linearGradient>
<linearGradient id="paint33_linear_11_2175" x1="378.921" y1="304.126" x2="358.939" y2="301.849" gradientUnits="userSpaceOnUse">
<stop stop-color="#00DEE7"/>
<stop offset="0.0232223" stop-color="#02D7E9"/>
<stop offset="0.1645" stop-color="#0EB0F5"/>
<stop offset="0.2773" stop-color="#1598FC"/>
<stop offset="0.3469" stop-color="#188FFF"/>
<stop offset="0.6204" stop-color="#3368F2"/>
<stop offset="0.9022" stop-color="#523BE4"/>
</linearGradient>
<linearGradient id="paint34_linear_11_2175" x1="364.961" y1="287.491" x2="375.151" y2="288.652" gradientUnits="userSpaceOnUse">
<stop offset="0.3469" stop-color="#188FFF"/>
<stop offset="0.6204" stop-color="#3368F2"/>
<stop offset="0.9022" stop-color="#523BE4"/>
</linearGradient>
<linearGradient id="paint35_linear_11_2175" x1="428.498" y1="313.924" x2="388.729" y2="268.827" gradientUnits="userSpaceOnUse">
<stop stop-color="#00DEE7"/>
<stop offset="0.0751114" stop-color="#05CCEC"/>
<stop offset="0.2244" stop-color="#139FFA"/>
<stop offset="0.2719" stop-color="#188FFF"/>
<stop offset="0.401" stop-color="#1D87FD"/>
<stop offset="0.5988" stop-color="#2C72F6"/>
<stop offset="0.8394" stop-color="#444FEA"/>
<stop offset="0.9605" stop-color="#523BE4"/>
</linearGradient>
<linearGradient id="paint36_linear_11_2175" x1="419.828" y1="279.682" x2="400.677" y2="271.858" gradientUnits="userSpaceOnUse">
<stop stop-color="#00DEE7"/>
<stop offset="0.0215771" stop-color="#02D7E9"/>
<stop offset="0.1529" stop-color="#0EB0F5"/>
<stop offset="0.2577" stop-color="#1598FC"/>
<stop offset="0.3223" stop-color="#188FFF"/>
<stop offset="0.4419" stop-color="#1D87FD"/>
<stop offset="0.6253" stop-color="#2C72F6"/>
<stop offset="0.8482" stop-color="#444FEA"/>
<stop offset="0.9605" stop-color="#523BE4"/>
</linearGradient>
<linearGradient id="paint37_linear_11_2175" x1="433.399" y1="299.045" x2="421.544" y2="289.272" gradientUnits="userSpaceOnUse">
<stop offset="0.1199" stop-color="#00DEE7"/>
<stop offset="0.1691" stop-color="#07C5EE"/>
<stop offset="0.241" stop-color="#10A8F7"/>
<stop offset="0.3027" stop-color="#1695FD"/>
<stop offset="0.3469" stop-color="#188FFF"/>
<stop offset="0.6204" stop-color="#3368F2"/>
<stop offset="0.9022" stop-color="#523BE4"/>
</linearGradient>
<linearGradient id="paint38_linear_11_2175" x1="395.876" y1="296.934" x2="388.719" y2="281.741" gradientUnits="userSpaceOnUse">
<stop stop-color="#00DEE7"/>
<stop offset="0.0232223" stop-color="#02D7E9"/>
<stop offset="0.1645" stop-color="#0EB0F5"/>
<stop offset="0.2773" stop-color="#1598FC"/>
<stop offset="0.3469" stop-color="#188FFF"/>
<stop offset="0.6204" stop-color="#3368F2"/>
<stop offset="0.9022" stop-color="#523BE4"/>
</linearGradient>
<linearGradient id="paint39_linear_11_2175" x1="417.854" y1="308.565" x2="397.873" y2="306.288" gradientUnits="userSpaceOnUse">
<stop stop-color="#00DEE7"/>
<stop offset="0.0232223" stop-color="#02D7E9"/>
<stop offset="0.1645" stop-color="#0EB0F5"/>
<stop offset="0.2773" stop-color="#1598FC"/>
<stop offset="0.3469" stop-color="#188FFF"/>
<stop offset="0.6204" stop-color="#3368F2"/>
<stop offset="0.9022" stop-color="#523BE4"/>
</linearGradient>
<linearGradient id="paint40_linear_11_2175" x1="403.891" y1="291.927" x2="414.082" y2="293.088" gradientUnits="userSpaceOnUse">
<stop offset="0.3469" stop-color="#188FFF"/>
<stop offset="0.6204" stop-color="#3368F2"/>
<stop offset="0.9022" stop-color="#523BE4"/>
</linearGradient>
<linearGradient id="paint41_linear_11_2175" x1="467.428" y1="318.36" x2="427.659" y2="273.264" gradientUnits="userSpaceOnUse">
<stop stop-color="#00DEE7"/>
<stop offset="0.0751114" stop-color="#05CCEC"/>
<stop offset="0.2244" stop-color="#139FFA"/>
<stop offset="0.2719" stop-color="#188FFF"/>
<stop offset="0.401" stop-color="#1D87FD"/>
<stop offset="0.5988" stop-color="#2C72F6"/>
<stop offset="0.8394" stop-color="#444FEA"/>
<stop offset="0.9605" stop-color="#523BE4"/>
</linearGradient>
<linearGradient id="paint42_linear_11_2175" x1="458.76" y1="284.117" x2="439.61" y2="276.292" gradientUnits="userSpaceOnUse">
<stop stop-color="#00DEE7"/>
<stop offset="0.0215771" stop-color="#02D7E9"/>
<stop offset="0.1529" stop-color="#0EB0F5"/>
<stop offset="0.2577" stop-color="#1598FC"/>
<stop offset="0.3223" stop-color="#188FFF"/>
<stop offset="0.4419" stop-color="#1D87FD"/>
<stop offset="0.6253" stop-color="#2C72F6"/>
<stop offset="0.8482" stop-color="#444FEA"/>
<stop offset="0.9605" stop-color="#523BE4"/>
</linearGradient>
<linearGradient id="paint43_linear_11_2175" x1="472.33" y1="303.48" x2="460.475" y2="293.707" gradientUnits="userSpaceOnUse">
<stop offset="0.1199" stop-color="#00DEE7"/>
<stop offset="0.1691" stop-color="#07C5EE"/>
<stop offset="0.241" stop-color="#10A8F7"/>
<stop offset="0.3027" stop-color="#1695FD"/>
<stop offset="0.3469" stop-color="#188FFF"/>
<stop offset="0.6204" stop-color="#3368F2"/>
<stop offset="0.9022" stop-color="#523BE4"/>
</linearGradient>
<linearGradient id="paint44_linear_11_2175" x1="434.807" y1="301.373" x2="427.65" y2="286.179" gradientUnits="userSpaceOnUse">
<stop stop-color="#00DEE7"/>
<stop offset="0.0232223" stop-color="#02D7E9"/>
<stop offset="0.1645" stop-color="#0EB0F5"/>
<stop offset="0.2773" stop-color="#1598FC"/>
<stop offset="0.3469" stop-color="#188FFF"/>
<stop offset="0.6204" stop-color="#3368F2"/>
<stop offset="0.9022" stop-color="#523BE4"/>
</linearGradient>
<linearGradient id="paint45_linear_11_2175" x1="456.785" y1="312.999" x2="436.803" y2="310.722" gradientUnits="userSpaceOnUse">
<stop stop-color="#00DEE7"/>
<stop offset="0.0232223" stop-color="#02D7E9"/>
<stop offset="0.1645" stop-color="#0EB0F5"/>
<stop offset="0.2773" stop-color="#1598FC"/>
<stop offset="0.3469" stop-color="#188FFF"/>
<stop offset="0.6204" stop-color="#3368F2"/>
<stop offset="0.9022" stop-color="#523BE4"/>
</linearGradient>
<linearGradient id="paint46_linear_11_2175" x1="442.823" y1="296.364" x2="453.013" y2="297.525" gradientUnits="userSpaceOnUse">
<stop offset="0.3469" stop-color="#188FFF"/>
<stop offset="0.6204" stop-color="#3368F2"/>
<stop offset="0.9022" stop-color="#523BE4"/>
</linearGradient>
<linearGradient id="paint47_linear_11_2175" x1="506.359" y1="322.797" x2="466.59" y2="277.7" gradientUnits="userSpaceOnUse">
<stop stop-color="#00DEE7"/>
<stop offset="0.0751114" stop-color="#05CCEC"/>
<stop offset="0.2244" stop-color="#139FFA"/>
<stop offset="0.2719" stop-color="#188FFF"/>
<stop offset="0.401" stop-color="#1D87FD"/>
<stop offset="0.5988" stop-color="#2C72F6"/>
<stop offset="0.8394" stop-color="#444FEA"/>
<stop offset="0.9605" stop-color="#523BE4"/>
</linearGradient>
<linearGradient id="paint48_linear_11_2175" x1="497.688" y1="288.555" x2="478.537" y2="280.731" gradientUnits="userSpaceOnUse">
<stop stop-color="#00DEE7"/>
<stop offset="0.0215771" stop-color="#02D7E9"/>
<stop offset="0.1529" stop-color="#0EB0F5"/>
<stop offset="0.2577" stop-color="#1598FC"/>
<stop offset="0.3223" stop-color="#188FFF"/>
<stop offset="0.4419" stop-color="#1D87FD"/>
<stop offset="0.6253" stop-color="#2C72F6"/>
<stop offset="0.8482" stop-color="#444FEA"/>
<stop offset="0.9605" stop-color="#523BE4"/>
</linearGradient>
<linearGradient id="paint49_linear_11_2175" x1="511.259" y1="307.918" x2="499.403" y2="298.145" gradientUnits="userSpaceOnUse">
<stop offset="0.1199" stop-color="#00DEE7"/>
<stop offset="0.1691" stop-color="#07C5EE"/>
<stop offset="0.241" stop-color="#10A8F7"/>
<stop offset="0.3027" stop-color="#1695FD"/>
<stop offset="0.3469" stop-color="#188FFF"/>
<stop offset="0.6204" stop-color="#3368F2"/>
<stop offset="0.9022" stop-color="#523BE4"/>
</linearGradient>
<linearGradient id="paint50_linear_11_2175" x1="473.735" y1="305.809" x2="466.578" y2="290.616" gradientUnits="userSpaceOnUse">
<stop stop-color="#00DEE7"/>
<stop offset="0.0232223" stop-color="#02D7E9"/>
<stop offset="0.1645" stop-color="#0EB0F5"/>
<stop offset="0.2773" stop-color="#1598FC"/>
<stop offset="0.3469" stop-color="#188FFF"/>
<stop offset="0.6204" stop-color="#3368F2"/>
<stop offset="0.9022" stop-color="#523BE4"/>
</linearGradient>
<linearGradient id="paint51_linear_11_2175" x1="495.713" y1="317.438" x2="475.732" y2="315.161" gradientUnits="userSpaceOnUse">
<stop stop-color="#00DEE7"/>
<stop offset="0.0232223" stop-color="#02D7E9"/>
<stop offset="0.1645" stop-color="#0EB0F5"/>
<stop offset="0.2773" stop-color="#1598FC"/>
<stop offset="0.3469" stop-color="#188FFF"/>
<stop offset="0.6204" stop-color="#3368F2"/>
<stop offset="0.9022" stop-color="#523BE4"/>
</linearGradient>
<linearGradient id="paint52_linear_11_2175" x1="481.751" y1="300.8" x2="491.942" y2="301.961" gradientUnits="userSpaceOnUse">
<stop offset="0.3469" stop-color="#188FFF"/>
<stop offset="0.6204" stop-color="#3368F2"/>
<stop offset="0.9022" stop-color="#523BE4"/>
</linearGradient>
<linearGradient id="paint53_linear_11_2175" x1="545.307" y1="327.082" x2="505.662" y2="281.988" gradientUnits="userSpaceOnUse">
<stop stop-color="#00DEE7"/>
<stop offset="0.0751114" stop-color="#05CCEC"/>
<stop offset="0.2244" stop-color="#139FFA"/>
<stop offset="0.2719" stop-color="#188FFF"/>
<stop offset="0.401" stop-color="#1D87FD"/>
<stop offset="0.5988" stop-color="#2C72F6"/>
<stop offset="0.8394" stop-color="#444FEA"/>
<stop offset="0.9605" stop-color="#523BE4"/>
</linearGradient>
<linearGradient id="paint54_linear_11_2175" x1="536.625" y1="292.94" x2="517.485" y2="285.102" gradientUnits="userSpaceOnUse">
<stop stop-color="#00DEE7"/>
<stop offset="0.0215771" stop-color="#02D7E9"/>
<stop offset="0.1529" stop-color="#0EB0F5"/>
<stop offset="0.2577" stop-color="#1598FC"/>
<stop offset="0.3223" stop-color="#188FFF"/>
<stop offset="0.4419" stop-color="#1D87FD"/>
<stop offset="0.6253" stop-color="#2C72F6"/>
<stop offset="0.8482" stop-color="#444FEA"/>
<stop offset="0.9605" stop-color="#523BE4"/>
</linearGradient>
<linearGradient id="paint55_linear_11_2175" x1="550.2" y1="312.248" x2="538.37" y2="302.467" gradientUnits="userSpaceOnUse">
<stop offset="0.1199" stop-color="#00DEE7"/>
<stop offset="0.1691" stop-color="#07C5EE"/>
<stop offset="0.241" stop-color="#10A8F7"/>
<stop offset="0.3027" stop-color="#1695FD"/>
<stop offset="0.3469" stop-color="#188FFF"/>
<stop offset="0.6204" stop-color="#3368F2"/>
<stop offset="0.9022" stop-color="#523BE4"/>
</linearGradient>
<linearGradient id="paint56_linear_11_2175" x1="512.681" y1="310.133" x2="505.561" y2="294.963" gradientUnits="userSpaceOnUse">
<stop stop-color="#00DEE7"/>
<stop offset="0.0232223" stop-color="#02D7E9"/>
<stop offset="0.1645" stop-color="#0EB0F5"/>
<stop offset="0.2773" stop-color="#1598FC"/>
<stop offset="0.3469" stop-color="#188FFF"/>
<stop offset="0.6204" stop-color="#3368F2"/>
<stop offset="0.9022" stop-color="#523BE4"/>
</linearGradient>
<linearGradient id="paint57_linear_11_2175" x1="534.659" y1="321.732" x2="514.677" y2="319.455" gradientUnits="userSpaceOnUse">
<stop stop-color="#00DEE7"/>
<stop offset="0.0232223" stop-color="#02D7E9"/>
<stop offset="0.1645" stop-color="#0EB0F5"/>
<stop offset="0.2773" stop-color="#1598FC"/>
<stop offset="0.3469" stop-color="#188FFF"/>
<stop offset="0.6204" stop-color="#3368F2"/>
<stop offset="0.9022" stop-color="#523BE4"/>
</linearGradient>
<linearGradient id="paint58_linear_11_2175" x1="520.693" y1="305.145" x2="530.883" y2="306.306" gradientUnits="userSpaceOnUse">
<stop offset="0.3469" stop-color="#188FFF"/>
<stop offset="0.6204" stop-color="#3368F2"/>
<stop offset="0.9022" stop-color="#523BE4"/>
</linearGradient>
<linearGradient id="paint59_linear_11_2175" x1="147.136" y1="304.347" x2="115.804" y2="425.073" gradientUnits="userSpaceOnUse">
<stop stop-color="#513DE4"/>
<stop offset="1" stop-color="#267BF9"/>
</linearGradient>
<linearGradient id="paint60_linear_11_2175" x1="520.621" y1="340.831" x2="551.952" y2="461.556" gradientUnits="userSpaceOnUse">
<stop stop-color="#513DE4"/>
<stop offset="1" stop-color="#267BF9"/>
</linearGradient>
<clipPath id="clip0_11_2175">
<rect width="681" height="404.11" fill="white"/>
</clipPath>
</defs>
</svg>
