<svg width="681" height="405" viewBox="0 0 681 405" fill="none" xmlns="http://www.w3.org/2000/svg">
<g clip-path="url(#clip0_11_1694)">
<rect width="681" height="404.11" fill="#E1F1FE"/>
<g opacity="0.66">
<path d="M379.599 278.972C640.168 148.787 860.081 231.475 937.466 289.093L995.083 361.702L82.48 627.984L-182.732 244.703C-103.858 310.37 119.03 409.158 379.599 278.972Z" fill="url(#paint0_linear_11_1694)" fill-opacity="0.15"/>
<path d="M139.277 309.901C-121.292 179.716 -341.205 262.404 -418.59 320.022L-476.206 392.631L829.792 645.832L757.911 243.522C679.038 309.189 399.846 440.087 139.277 309.901Z" fill="url(#paint1_linear_11_1694)" fill-opacity="0.15"/>
</g>
<circle cx="477.946" cy="27.959" r="2.41553" transform="rotate(-15 477.946 27.959)" fill="#E1F1FE"/>
<circle cx="478.51" cy="44.0606" r="2.41553" transform="rotate(-15 478.51 44.0606)" fill="#E1F1FE"/>
<path d="M232.707 176.527L230.133 154.699L239.389 100.63L264.5 136.999L256.5 173.999L255.5 197.499L243 202.499L235 189.999L232.707 176.527Z" fill="url(#paint2_linear_11_1694)" fill-opacity="0.3"/>
<path d="M376.5 142L350 112.5L356.05 69.3721L381.546 99.5938L406.5 154.5L405.5 162.5L391 154L384.5 156L376.5 142Z" fill="url(#paint3_linear_11_1694)" fill-opacity="0.3"/>
<path d="M242.31 205.504L258.5 198.499L258.5 212.499L344 259.999L393.5 176.499L384 158.499L391.008 156.455L445.772 187.873L460.976 196.04L457.764 202.388L437.536 224.678L409.697 244.536L346.229 268.936L269.898 281.995L222.484 272.342L211.409 258.172L242.31 205.504Z" fill="url(#paint4_linear_11_1694)" fill-opacity="0.9"/>
<path d="M454.353 212.651L417.869 243.813L346.261 271.148L268.419 283.858L220.253 274.563L212.389 264.161L221.729 280.074L269.896 289.369L347.738 276.659L419.346 249.324L457.399 217.266L462.043 197.266L459.054 202.444L454.353 212.651Z" fill="#444FEA" fill-opacity="0.7"/>
<path d="M395.732 176.534L344.479 262.528L256.905 213.732L258.417 174.433L286.649 46.7053L374.963 143.204L395.732 176.534Z" fill="url(#paint5_linear_11_1694)" fill-opacity="0.7"/>
<path d="M369.057 137.158L328.89 204.348L260.319 166.294L258.452 174.563L256.928 213.817L344.479 262.528L395.755 176.619L374.998 143.335L369.057 137.158Z" fill="url(#paint6_linear_11_1694)" fill-opacity="0.5"/>
<path d="M404.238 27.6834L435.012 80.6403L457.927 156.991L460.698 196.368L406.802 166.391L411.045 121.86L410.283 79.2833L404.238 27.6834Z" fill="url(#paint7_linear_11_1694)" fill-opacity="0.6"/>
<path d="M410.404 129.4L406.802 166.391L460.698 196.368L457.927 156.99L457.518 155.463L410.404 129.4Z" fill="url(#paint8_linear_11_1694)" fill-opacity="0.8"/>
<path d="M175.642 83.9515L175.469 145.201L193.799 222.78L211.088 258.267L242.775 205.358L216.835 168.914L196.206 131.661L175.642 83.9515Z" fill="url(#paint9_linear_11_1694)" fill-opacity="0.6"/>
<path d="M221.161 175.126L242.775 205.36L211.088 258.268L193.799 222.781L193.39 221.253L221.161 175.126Z" fill="url(#paint10_linear_11_1694)" fill-opacity="0.8"/>
<path d="M323.287 181.932C303.754 187.166 292.165 207.24 297.398 226.773C302.632 246.305 322.706 257.895 342.239 252.661C361.771 247.428 373.361 227.354 368.127 207.821C362.894 188.288 342.614 176.754 323.287 181.932ZM340.09 244.643C324.875 248.719 309.439 239.633 305.417 224.624C301.395 209.615 310.426 193.973 325.436 189.951C340.445 185.929 356.087 194.96 360.109 209.97C364.13 224.979 355.099 240.621 340.09 244.643Z" fill="url(#paint11_linear_11_1694)"/>
<path d="M339.43 242.178C353.17 238.496 361.324 224.373 357.642 210.633C353.96 196.893 339.837 188.739 326.097 192.421C312.357 196.102 304.203 210.225 307.885 223.965C311.566 237.705 325.69 245.859 339.43 242.178Z" fill="white"/>
<path d="M340.09 244.647C355.193 240.6 364.155 225.076 360.108 209.973C356.062 194.871 340.538 185.908 325.435 189.955C310.333 194.002 301.37 209.525 305.417 224.628C309.464 239.731 324.987 248.693 340.09 244.647Z" fill="white"/>
<path d="M338.589 192.17C335.997 191.542 333.309 191.381 330.471 191.48C330.871 193.797 329.311 196.198 327.049 196.804C324.582 197.466 322.236 196.111 321.424 193.904C318.917 195.237 316.67 196.721 314.739 198.561C317.61 203.521 323.386 206.16 329.143 204.618C334.9 203.075 338.788 197.846 338.589 192.17Z" fill="url(#paint12_linear_11_1694)"/>
<path d="M352.952 211.232C352.346 208.97 353.646 206.418 355.852 205.606C354.519 203.099 353.036 200.852 351.196 198.921C346.442 201.737 343.802 207.513 345.29 213.064C346.832 218.821 352.267 222.654 357.943 222.455C358.571 219.863 358.732 217.175 358.427 214.392C355.96 215.053 353.613 213.699 352.952 211.232Z" fill="url(#paint13_linear_11_1694)"/>
<path d="M319.852 220.101C318.364 214.549 313.19 210.867 307.665 210.805C307.037 213.398 306.67 216.14 306.975 218.923C309.292 218.523 311.638 219.878 312.299 222.345C312.96 224.812 311.606 227.158 309.399 227.97C310.527 230.533 312.01 232.78 313.85 234.711C318.604 231.894 321.449 226.063 319.852 220.101Z" fill="url(#paint14_linear_11_1694)"/>
<path d="M326.678 242.291C329.27 242.919 331.958 243.08 334.796 242.981C334.395 240.664 335.956 238.263 338.217 237.657C340.685 236.996 343.031 238.35 343.843 240.557C346.35 239.224 348.597 237.74 350.528 235.901C347.657 230.941 341.881 228.301 336.124 229.844C330.367 231.386 326.534 236.821 326.678 242.291Z" fill="url(#paint15_linear_11_1694)"/>
<path d="M339.443 218.376L338.44 217.102L338.179 216.952L337.974 217.007C337.974 217.007 337.974 217.007 337.768 217.062C337.768 217.062 337.768 217.062 337.658 216.651L336.611 212.744C336.226 211.305 335.509 208.632 332.836 209.348C332.014 209.568 331.041 210.05 330.178 210.942L330.123 210.736L330.178 210.942L329.973 210.997L328.779 210.656L328.574 210.711L328.368 210.766L325.369 213.553L325.218 213.813L325.479 213.964L326.481 215.238L326.742 215.388L326.893 215.128L327.249 214.812C327.454 214.757 327.399 214.551 327.605 214.496L330.91 226.833L330.965 227.038L331.171 226.983L333.844 226.267L334.05 226.212L333.994 226.006L330.744 213.875C331.607 212.983 332.224 212.818 332.429 212.763C332.635 212.708 333.046 212.597 333.377 213.831L334.423 217.738C335.195 220.616 336.744 220.642 337.566 220.421C338.183 220.256 338.896 219.624 339.553 218.787L339.443 218.376Z" fill="url(#paint16_linear_11_1694)"/>
<circle cx="205.741" cy="234.685" r="3.62329" transform="rotate(-15 205.741 234.685)" fill="#E1F1FE"/>
<circle cx="416.25" cy="157.022" r="3.62329" transform="rotate(75 416.25 157.022)" fill="#E1F1FE"/>
<circle cx="317.438" cy="154.055" r="13.1088" transform="rotate(75 317.438 154.055)" fill="#E1F1FE"/>
<circle cx="227.404" cy="198.872" r="3.62329" transform="rotate(-15 227.404 198.872)" fill="#E1F1FE"/>
<circle cx="452.064" cy="178.687" r="3.62329" transform="rotate(75 452.064 178.687)" fill="#E1F1FE"/>
<path d="M145.087 373.301C145.087 358 129 336 113.5 312.5C87.8338 273.587 97.6618 260.5 69 197.603C82.2054 197.603 97.6618 225.479 97.6618 225.479L94.5105 175C94.5105 175 109.967 183.589 112.218 206.041C114.469 228.493 119.121 243.863 119.121 243.863L132.326 201.671C132.326 201.671 142.53 214.479 141.33 224.575C140.429 231.507 136.828 253.959 134.727 266.918C133.677 272.945 137.128 290.479 141.33 295L169 323L172 309.753C172 309.753 156.5 270 166 254C166 254 190.76 304.329 193.461 309.753C194.362 311.712 195.5 315.89 195.5 318L189 360.5L191 472L118.82 471.247L145.087 373.301Z" fill="url(#paint17_linear_11_1694)" fill-opacity="0.5"/>
<path d="M494.5 350.5C492.5 327.5 526.5 291.973 526.5 291.973C560.83 240.473 522.626 305.027 581 167.603C567.795 167.603 552.338 195.479 552.338 195.479L555.49 145C555.49 145 540.033 153.589 537.782 176.041C535.531 198.493 530.879 213.863 530.879 213.863L517.674 171.671C517.674 171.671 507.47 184.479 508.67 194.575C509.571 201.507 513.172 223.959 515.273 236.918C516.323 242.945 514.523 249.274 510.321 253.795L482.86 284.384C482.86 284.384 502.068 244.452 487.812 226.973C470.105 262.836 455.552 286.548 452.851 291.973C451.95 293.932 451.5 295.89 451.5 298L459 338.027V442L531.18 441.247L494.5 350.5Z" fill="url(#paint18_linear_11_1694)" fill-opacity="0.5"/>
<path d="M272 164.5L291.5 64L362.5 141.5" stroke="#E1F1FE" stroke-width="2"/>
<path d="M179.5 100.5V142.5L195.5 210" stroke="#E1F1FE" stroke-width="2"/>
<path d="M410 44.5L429.5 79.5L449 143.5" stroke="#E1F1FE" stroke-width="2"/>
<circle cx="332.5" cy="217.5" r="37.5" stroke="#E1F1FE" stroke-width="2"/>
</g>
<defs>
<linearGradient id="paint0_linear_11_1694" x1="380.404" y1="295.251" x2="418.521" y2="421.629" gradientUnits="userSpaceOnUse">
<stop stop-color="#513DE4"/>
<stop offset="1" stop-color="#267BF9"/>
</linearGradient>
<linearGradient id="paint1_linear_11_1694" x1="138.473" y1="326.179" x2="100.355" y2="452.556" gradientUnits="userSpaceOnUse">
<stop stop-color="#513DE4"/>
<stop offset="1" stop-color="#267BF9"/>
</linearGradient>
<linearGradient id="paint2_linear_11_1694" x1="247.618" y1="164.35" x2="256.05" y2="195.82" gradientUnits="userSpaceOnUse">
<stop stop-color="#513DE4"/>
<stop offset="1" stop-color="#267BF9"/>
</linearGradient>
<linearGradient id="paint3_linear_11_1694" x1="364.278" y1="133.093" x2="372.711" y2="164.563" gradientUnits="userSpaceOnUse">
<stop stop-color="#513DE4"/>
<stop offset="1" stop-color="#267BF9"/>
</linearGradient>
<linearGradient id="paint4_linear_11_1694" x1="317.867" y1="282.162" x2="301.071" y2="224.144" gradientUnits="userSpaceOnUse">
<stop stop-color="#513DE4"/>
<stop offset="1" stop-color="#267BF9"/>
</linearGradient>
<linearGradient id="paint5_linear_11_1694" x1="313.543" y1="147.456" x2="330.427" y2="210.466" gradientUnits="userSpaceOnUse">
<stop stop-color="#513DE4"/>
<stop offset="1" stop-color="#267BF9"/>
</linearGradient>
<linearGradient id="paint6_linear_11_1694" x1="328.547" y1="203.45" x2="337.217" y2="235.806" gradientUnits="userSpaceOnUse">
<stop stop-color="#513DE4"/>
<stop offset="1" stop-color="#267BF9"/>
</linearGradient>
<linearGradient id="paint7_linear_11_1694" x1="414.372" y1="119.984" x2="426.525" y2="165.34" gradientUnits="userSpaceOnUse">
<stop stop-color="#513DE4"/>
<stop offset="1" stop-color="#267BF9"/>
</linearGradient>
<linearGradient id="paint8_linear_11_1694" x1="426.856" y1="166.574" x2="432.175" y2="186.424" gradientUnits="userSpaceOnUse">
<stop stop-color="#513DE4"/>
<stop offset="1" stop-color="#267BF9"/>
</linearGradient>
<linearGradient id="paint9_linear_11_1694" x1="204.347" y1="162.046" x2="217.764" y2="212.116" gradientUnits="userSpaceOnUse">
<stop stop-color="#513DE4"/>
<stop offset="1" stop-color="#267BF9"/>
</linearGradient>
<linearGradient id="paint10_linear_11_1694" x1="218.129" y1="213.481" x2="224.001" y2="235.394" gradientUnits="userSpaceOnUse">
<stop stop-color="#513DE4"/>
<stop offset="1" stop-color="#267BF9"/>
</linearGradient>
<linearGradient id="paint11_linear_11_1694" x1="365.02" y1="233.79" x2="298.789" y2="199.911" gradientUnits="userSpaceOnUse">
<stop stop-color="#00DEE7"/>
<stop offset="0.0751114" stop-color="#05CCEC"/>
<stop offset="0.2244" stop-color="#139FFA"/>
<stop offset="0.2719" stop-color="#188FFF"/>
<stop offset="0.401" stop-color="#1D87FD"/>
<stop offset="0.5988" stop-color="#2C72F6"/>
<stop offset="0.8394" stop-color="#444FEA"/>
<stop offset="0.9605" stop-color="#523BE4"/>
</linearGradient>
<linearGradient id="paint12_linear_11_1694" x1="339.513" y1="198.316" x2="313.92" y2="197.993" gradientUnits="userSpaceOnUse">
<stop stop-color="#00DEE7"/>
<stop offset="0.0215771" stop-color="#02D7E9"/>
<stop offset="0.1529" stop-color="#0EB0F5"/>
<stop offset="0.2577" stop-color="#1598FC"/>
<stop offset="0.3223" stop-color="#188FFF"/>
<stop offset="0.4419" stop-color="#1D87FD"/>
<stop offset="0.6253" stop-color="#2C72F6"/>
<stop offset="0.8482" stop-color="#444FEA"/>
<stop offset="0.9605" stop-color="#523BE4"/>
</linearGradient>
<linearGradient id="paint13_linear_11_1694" x1="363.914" y1="214.446" x2="345.835" y2="208.572" gradientUnits="userSpaceOnUse">
<stop offset="0.1199" stop-color="#00DEE7"/>
<stop offset="0.1691" stop-color="#07C5EE"/>
<stop offset="0.241" stop-color="#10A8F7"/>
<stop offset="0.3027" stop-color="#1695FD"/>
<stop offset="0.3469" stop-color="#188FFF"/>
<stop offset="0.6204" stop-color="#3368F2"/>
<stop offset="0.9022" stop-color="#523BE4"/>
</linearGradient>
<linearGradient id="paint14_linear_11_1694" x1="319.766" y1="229.032" x2="304.637" y2="214.787" gradientUnits="userSpaceOnUse">
<stop stop-color="#00DEE7"/>
<stop offset="0.0232223" stop-color="#02D7E9"/>
<stop offset="0.1645" stop-color="#0EB0F5"/>
<stop offset="0.2773" stop-color="#1598FC"/>
<stop offset="0.3469" stop-color="#188FFF"/>
<stop offset="0.6204" stop-color="#3368F2"/>
<stop offset="0.9022" stop-color="#523BE4"/>
</linearGradient>
<linearGradient id="paint15_linear_11_1694" x1="350.337" y1="232.453" x2="326.302" y2="238.893" gradientUnits="userSpaceOnUse">
<stop stop-color="#00DEE7"/>
<stop offset="0.0232223" stop-color="#02D7E9"/>
<stop offset="0.1645" stop-color="#0EB0F5"/>
<stop offset="0.2773" stop-color="#1598FC"/>
<stop offset="0.3469" stop-color="#188FFF"/>
<stop offset="0.6204" stop-color="#3368F2"/>
<stop offset="0.9022" stop-color="#523BE4"/>
</linearGradient>
<linearGradient id="paint16_linear_11_1694" x1="326.72" y1="219.63" x2="338.978" y2="216.346" gradientUnits="userSpaceOnUse">
<stop offset="0.3469" stop-color="#188FFF"/>
<stop offset="0.6204" stop-color="#3368F2"/>
<stop offset="0.9022" stop-color="#523BE4"/>
</linearGradient>
<linearGradient id="paint17_linear_11_1694" x1="114.495" y1="406.5" x2="114.495" y2="159" gradientUnits="userSpaceOnUse">
<stop offset="0.207944" stop-color="#513DE4"/>
<stop offset="1" stop-color="#267BF9"/>
</linearGradient>
<linearGradient id="paint18_linear_11_1694" x1="535.505" y1="376.5" x2="535.505" y2="129" gradientUnits="userSpaceOnUse">
<stop offset="0.207944" stop-color="#513DE4"/>
<stop offset="1" stop-color="#267BF9"/>
</linearGradient>
<clipPath id="clip0_11_1694">
<rect width="681" height="404.11" fill="white"/>
</clipPath>
</defs>
</svg>
