<svg width="1069" height="487" viewBox="0 0 1069 487" fill="none" xmlns="http://www.w3.org/2000/svg">
<path d="M307.796 32.9491C191.158 32.9491 96.6206 127.487 96.6206 244.124C96.6206 360.762 191.158 455.3 307.796 455.3C424.433 455.3 518.971 360.762 518.971 244.124C518.971 127.487 423.206 32.9491 307.796 32.9491ZM307.796 407.417C216.941 407.417 144.503 333.751 144.503 244.124C144.503 154.498 218.169 80.8319 307.796 80.8319C397.423 80.8319 471.088 154.498 471.088 244.124C471.088 333.751 397.423 407.417 307.796 407.417Z" fill="url(#paint0_linear_11_160)"/>
<path d="M307.796 392.686C389.843 392.686 456.355 326.174 456.355 244.127C456.355 162.08 389.843 95.5673 307.796 95.5673C225.749 95.5673 159.236 162.08 159.236 244.127C159.236 326.174 225.749 392.686 307.796 392.686Z" fill="white"/>
<path d="M307.793 407.417C397.977 407.417 471.086 334.308 471.086 244.124C471.086 153.94 397.977 80.8315 307.793 80.8315C217.61 80.8315 144.501 153.94 144.501 244.124C144.501 334.308 217.61 407.417 307.793 407.417Z" fill="white"/>
<path d="M377.777 112.76C364.272 105.393 349.539 100.482 333.578 96.7986C332.35 110.304 320.073 121.354 306.567 121.354C291.834 121.354 280.784 110.304 279.556 96.7986C263.595 100.482 248.862 105.393 235.357 112.76C243.951 144.681 272.19 168.009 306.567 168.009C340.945 168.009 370.411 144.681 377.777 112.76Z" fill="url(#paint1_linear_11_160)"/>
<path d="M429.343 240.443C429.343 226.938 440.393 214.66 453.898 213.432C450.215 197.471 445.304 182.738 437.937 169.233C407.243 177.827 383.916 206.066 383.916 239.215C383.916 273.593 408.471 303.059 440.393 310.426C447.759 296.92 452.67 282.187 455.126 266.226C440.393 266.226 429.343 255.176 429.343 240.443Z" fill="url(#paint2_linear_11_160)"/>
<path d="M231.672 240.443C231.672 207.294 208.344 179.055 177.65 170.461C170.284 183.966 164.145 198.699 161.689 214.66C175.195 215.888 186.245 226.938 186.245 241.671C186.245 256.404 175.195 267.454 161.689 268.682C164.145 284.643 169.056 299.376 176.423 312.881C207.117 304.287 231.672 276.049 231.672 240.443Z" fill="url(#paint3_linear_11_160)"/>
<path d="M236.584 374.265C250.09 381.631 264.823 386.542 280.784 390.226C282.012 376.72 294.289 365.671 307.795 365.671C322.528 365.671 333.578 376.72 334.806 390.226C350.766 386.542 365.5 381.631 379.005 374.265C370.411 342.343 342.172 319.016 307.795 319.016C273.417 319.016 243.951 343.571 236.584 374.265Z" fill="url(#paint4_linear_11_160)"/>
<path d="M343.402 260.087L339.719 251.492L338.491 250.264H337.263C337.263 250.264 337.263 250.264 336.035 250.264C336.035 250.264 336.035 250.264 336.035 247.809V224.481C336.035 215.887 336.035 199.926 320.074 199.926C315.163 199.926 309.025 201.154 302.886 204.837H301.658L295.519 201.154H294.291H293.064L272.192 212.204L270.964 213.432L272.192 214.659L275.875 223.254L277.103 224.481L278.33 223.254L280.786 222.026C282.5 221 282 221 283.241 220.798V294.464V295.692H284.469H300.43H301.658V294.464V222.026C307.797 218.343 311.48 218.343 312.708 218.343C313.936 218.343 316.391 218.343 316.391 225.709V249.037C316.391 266.225 324.985 268.681 329.897 268.681C333.58 268.681 338.491 266.225 343.402 262.542V260.087Z" fill="url(#paint5_linear_11_160)"/>
<path d="M566.467 312.204V189.874H614.939C624.234 189.874 632.129 191.563 638.725 194.843C645.322 198.122 650.319 202.793 653.817 208.755C657.315 214.718 659.014 221.773 659.014 229.822C659.014 237.971 657.215 244.927 653.717 250.79C650.219 256.653 645.122 261.125 638.426 264.206C631.729 267.287 623.734 268.877 614.24 268.877H581.758V248.107H610.042C615.039 248.107 619.137 247.412 622.435 246.12C625.733 244.828 628.132 242.741 629.831 240.058C631.43 237.375 632.229 233.996 632.229 229.922C632.229 225.847 631.43 222.469 629.831 219.686C628.231 216.904 625.733 214.817 622.435 213.326C619.137 211.836 614.939 211.14 609.942 211.14H592.452V312.303H566.467V312.204ZM632.829 256.554L663.411 312.204H634.728L604.845 256.554H632.829Z" fill="#1E1E1E"/>
<path d="M717.078 313.993C707.784 313.993 699.688 312.006 692.892 308.031C686.096 304.056 680.899 298.491 677.201 291.435C673.504 284.38 671.705 276.032 671.705 266.691C671.705 257.251 673.504 248.903 677.201 241.848C680.899 234.693 686.096 229.227 692.892 225.252C699.688 221.277 707.784 219.29 717.078 219.29C726.373 219.29 734.468 221.277 741.264 225.252C748.06 229.227 753.257 234.792 756.955 241.848C760.653 248.903 762.452 257.251 762.452 266.691C762.452 276.132 760.653 284.38 756.955 291.435C753.257 298.491 748.06 304.056 741.264 308.031C734.468 312.006 726.373 313.993 717.078 313.993ZM698.789 207.961C695.391 207.961 692.393 206.768 689.894 204.383C687.395 201.998 686.196 199.117 686.196 195.837C686.196 192.459 687.395 189.577 689.894 187.192C692.393 184.807 695.291 183.714 698.789 183.714C702.287 183.714 705.185 184.906 707.684 187.192C710.082 189.577 711.282 192.359 711.282 195.837C711.282 199.117 710.082 201.998 707.684 204.383C705.185 206.768 702.187 207.961 698.789 207.961ZM717.178 294.317C721.376 294.317 724.974 293.125 727.772 290.74C730.57 288.355 732.769 285.075 734.268 280.902C735.767 276.728 736.467 271.958 736.467 266.592C736.467 261.225 735.767 256.456 734.268 252.282C732.769 248.108 730.67 244.829 727.772 242.344C724.974 239.959 721.376 238.668 717.178 238.668C712.881 238.668 709.283 239.86 706.384 242.344C703.486 244.729 701.287 248.108 699.888 252.282C698.389 256.456 697.69 261.225 697.69 266.592C697.69 271.958 698.389 276.728 699.888 280.902C701.387 285.075 703.486 288.355 706.384 290.74C709.283 293.125 712.881 294.317 717.178 294.317ZM735.468 207.961C732.07 207.961 729.071 206.768 726.573 204.383C724.074 201.998 722.875 199.117 722.875 195.837C722.875 192.459 724.074 189.577 726.573 187.192C729.071 184.807 731.97 183.714 735.468 183.714C738.966 183.714 741.864 184.906 744.362 187.192C746.761 189.577 747.96 192.359 747.96 195.837C747.96 199.117 746.761 201.998 744.362 204.383C741.964 206.768 738.966 207.961 735.468 207.961Z" fill="#1E1E1E"/>
<path d="M804.728 259.139V312.205H779.143V220.483H803.528V236.681H804.628C806.627 231.314 810.125 227.141 814.922 223.961C819.719 220.88 825.516 219.29 832.412 219.29C838.808 219.29 844.405 220.681 849.202 223.464C853.999 226.246 857.697 230.221 860.295 235.389C862.894 240.556 864.293 246.717 864.293 253.773V312.205H838.708V258.344C838.708 252.779 837.309 248.307 834.41 245.227C831.512 242.047 827.415 240.457 822.317 240.457C818.919 240.457 815.821 241.152 813.223 242.643C810.624 244.134 808.526 246.22 807.126 249.102C805.527 251.885 804.828 255.263 804.728 259.139Z" fill="#1E1E1E"/>
<path d="M918.361 313.697C911.365 313.697 904.968 311.909 899.372 308.331C893.675 304.754 889.178 299.388 885.879 292.431C882.581 285.376 880.882 276.73 880.882 266.594C880.882 256.06 882.581 247.315 885.979 240.359C889.377 233.403 893.875 228.136 899.571 224.658C905.268 221.18 911.465 219.391 918.261 219.391C923.458 219.391 927.755 220.286 931.153 221.975C934.651 223.664 937.45 225.851 939.548 228.434C941.647 231.018 943.346 233.502 944.445 235.987H945.245V189.977H970.73V312.306H945.545V297.599H944.445C943.246 300.183 941.547 302.667 939.348 305.151C937.15 307.636 934.351 309.722 930.853 311.312C927.455 312.902 923.258 313.697 918.361 313.697ZM926.456 293.425C930.553 293.425 934.051 292.332 936.95 290.046C939.848 287.761 942.047 284.68 943.546 280.606C945.045 276.531 945.845 271.762 945.845 266.296C945.845 260.83 945.045 256.06 943.546 252.085C942.047 248.11 939.848 244.93 936.95 242.744C934.051 240.558 930.553 239.465 926.456 239.465C922.258 239.465 918.66 240.558 915.862 242.844C912.964 245.129 910.765 248.309 909.366 252.284C907.867 256.259 907.167 260.93 907.167 266.296C907.167 271.662 907.967 276.333 909.466 280.407C910.965 284.481 913.164 287.661 915.962 289.947C918.66 292.332 922.258 293.425 926.456 293.425Z" fill="#1E1E1E"/>
<defs>
<linearGradient id="paint0_linear_11_160" x1="462.894" y1="384.168" x2="144.471" y2="96.5435" gradientUnits="userSpaceOnUse">
<stop stop-color="#00DEE7"/>
<stop offset="0.0751114" stop-color="#05CCEC"/>
<stop offset="0.2244" stop-color="#139FFA"/>
<stop offset="0.2719" stop-color="#188FFF"/>
<stop offset="0.401" stop-color="#1D87FD"/>
<stop offset="0.5988" stop-color="#2C72F6"/>
<stop offset="0.8394" stop-color="#444FEA"/>
<stop offset="0.9605" stop-color="#523BE4"/>
</linearGradient>
<linearGradient id="paint1_linear_11_160" x1="373.753" y1="148.381" x2="231.643" y2="108.378" gradientUnits="userSpaceOnUse">
<stop stop-color="#00DEE7"/>
<stop offset="0.0215771" stop-color="#02D7E9"/>
<stop offset="0.1529" stop-color="#0EB0F5"/>
<stop offset="0.2577" stop-color="#1598FC"/>
<stop offset="0.3223" stop-color="#188FFF"/>
<stop offset="0.4419" stop-color="#1D87FD"/>
<stop offset="0.6253" stop-color="#2C72F6"/>
<stop offset="0.8482" stop-color="#444FEA"/>
<stop offset="0.9605" stop-color="#523BE4"/>
</linearGradient>
<linearGradient id="paint2_linear_11_160" x1="485.619" y1="274.72" x2="393.663" y2="215.004" gradientUnits="userSpaceOnUse">
<stop offset="0.1199" stop-color="#00DEE7"/>
<stop offset="0.1691" stop-color="#07C5EE"/>
<stop offset="0.241" stop-color="#10A8F7"/>
<stop offset="0.3027" stop-color="#1695FD"/>
<stop offset="0.3469" stop-color="#188FFF"/>
<stop offset="0.6204" stop-color="#3368F2"/>
<stop offset="0.9022" stop-color="#523BE4"/>
</linearGradient>
<linearGradient id="paint3_linear_11_160" x1="217.861" y1="290.077" x2="154.837" y2="188.127" gradientUnits="userSpaceOnUse">
<stop stop-color="#00DEE7"/>
<stop offset="0.0232223" stop-color="#02D7E9"/>
<stop offset="0.1645" stop-color="#0EB0F5"/>
<stop offset="0.2773" stop-color="#1598FC"/>
<stop offset="0.3469" stop-color="#188FFF"/>
<stop offset="0.6204" stop-color="#3368F2"/>
<stop offset="0.9022" stop-color="#523BE4"/>
</linearGradient>
<linearGradient id="paint4_linear_11_160" x1="383.085" y1="354.768" x2="239.564" y2="354.768" gradientUnits="userSpaceOnUse">
<stop stop-color="#00DEE7"/>
<stop offset="0.0232223" stop-color="#02D7E9"/>
<stop offset="0.1645" stop-color="#0EB0F5"/>
<stop offset="0.2773" stop-color="#1598FC"/>
<stop offset="0.3469" stop-color="#188FFF"/>
<stop offset="0.6204" stop-color="#3368F2"/>
<stop offset="0.9022" stop-color="#523BE4"/>
</linearGradient>
<linearGradient id="paint5_linear_11_160" x1="270.65" y1="248.083" x2="343.843" y2="248.083" gradientUnits="userSpaceOnUse">
<stop offset="0.3469" stop-color="#188FFF"/>
<stop offset="0.6204" stop-color="#3368F2"/>
<stop offset="0.9022" stop-color="#523BE4"/>
</linearGradient>
</defs>
</svg>
