<svg width="681" height="405" viewBox="0 0 681 405" fill="none" xmlns="http://www.w3.org/2000/svg">
<g clip-path="url(#clip0_11_2057)">
<rect width="681" height="404.11" fill="#E1F1FE"/>
<g opacity="0.66">
<path d="M419.038 310.229C702.059 188.558 940.921 265.838 1024.97 319.687L1087.56 387.548L96.3168 636.413L-191.747 278.201C-106.078 339.573 136.017 431.9 419.038 310.229Z" fill="url(#paint0_linear_11_2057)" fill-opacity="0.3"/>
<path d="M419.038 310.229C702.059 188.558 940.921 265.838 1024.97 319.687L1087.56 387.548L96.3168 636.413L-191.747 278.201C-106.078 339.573 136.017 431.9 419.038 310.229Z" fill="url(#paint1_linear_11_2057)" fill-opacity="0.3"/>
<path d="M158.01 339.134C-125.012 217.463 -363.874 294.744 -447.927 348.593L-510.508 416.453L908.024 653.093L829.949 277.097C744.28 338.469 441.031 460.805 158.01 339.134Z" fill="url(#paint2_linear_11_2057)" fill-opacity="0.3"/>
<path d="M158.186 339.131C-124.835 217.46 -363.697 294.741 -447.75 348.59L-510.331 416.45L908.2 653.091L830.126 277.094C744.456 338.466 441.208 460.802 158.186 339.131Z" fill="url(#paint3_linear_11_2057)" fill-opacity="0.3"/>
</g>
<path fill-rule="evenodd" clip-rule="evenodd" d="M515.147 161.447C571.912 159.606 583.865 115.594 586.284 93.5274C569.122 101.895 554.209 103.817 545.061 104.04L481.486 62.4863L470.92 69.9442L522.731 126.017C522.886 130.549 522.067 141.036 515.147 161.447Z" fill="url(#paint4_linear_11_2057)" fill-opacity="0.7"/>
<path fill-rule="evenodd" clip-rule="evenodd" d="M513.404 168.168C512.312 171.033 511.105 174.081 509.77 177.32C600.085 176.599 600.51 86.0525 600.51 86.0525C597.679 87.8439 594.898 89.4676 592.175 90.9393C588.227 114.851 572.899 162.627 513.404 168.168Z" fill="url(#paint5_linear_11_2057)" fill-opacity="0.7"/>
<path fill-rule="evenodd" clip-rule="evenodd" d="M222.989 358.488L230.311 365.81C230.775 366.181 231.424 366.181 231.794 365.81L313.648 283.957C309.343 282.551 305.188 280.817 301.211 278.783L222.989 357.005C222.618 357.468 222.618 358.117 222.989 358.488ZM304.849 275.144C308.905 277.12 313.15 278.768 317.549 280.055L333.153 264.451C328.197 263.882 323.424 262.74 318.899 261.095L304.849 275.144ZM399.553 180.44L413.598 166.395C415.583 170.443 417.24 174.679 418.536 179.068L402.951 194.653C402.373 189.725 401.217 184.964 399.553 180.44ZM322.744 257.25L395.716 184.277C397.248 189.015 398.183 194.011 398.43 199.174L337.682 259.923C332.487 259.681 327.48 258.76 322.744 257.25ZM422.433 175.171C421.02 170.876 419.276 166.729 417.234 162.759L537.298 42.6953L546.103 51.5009L422.433 175.171Z" fill="url(#paint6_linear_11_2057)" fill-opacity="0.7"/>
<path d="M498.575 105.32L484.208 90.9528C483.93 90.6747 483.93 90.1186 484.208 89.8405L505.051 69L520.53 84.4793L499.688 105.32C499.317 105.598 498.853 105.598 498.575 105.32Z" fill="#444FEA"/>
<path d="M495.493 105.821L483.179 93.5058C482.94 93.2674 482.94 92.7907 483.179 92.5524L484.732 91L498 104.269L496.447 105.821C496.129 106.06 495.731 106.06 495.493 105.821Z" fill="#E1F1FE"/>
<path d="M238.575 362.949L224.208 348.582C223.93 348.304 223.93 347.748 224.208 347.47L292 282L307.479 297.479L239.688 362.949C239.317 363.227 238.853 363.227 238.575 362.949Z" fill="#444FEA"/>
<path d="M494.493 106.821L482.179 94.5058C481.94 94.2674 481.94 93.7907 482.179 93.5524L483.732 92L497 105.269L495.447 106.821C495.129 107.06 494.731 107.06 494.493 106.821Z" fill="#444FEA"/>
<path fill-rule="evenodd" clip-rule="evenodd" d="M350.628 287.607L414.116 355.337L445.816 323.637L390.725 272.043C379.169 280.346 365.475 285.861 350.628 287.607ZM267.195 156.354L232.629 123.982L214.369 142.242L255.608 186.237C257.593 175.438 261.59 165.343 267.195 156.354ZM259.826 190.738C261.37 179.52 265.2 169.032 270.83 159.759L284.748 172.793C280.134 181.526 277.515 191.448 277.515 201.938C277.515 204.73 277.698 207.481 278.051 210.18L259.826 190.738ZM346.41 283.107C361.478 282.015 375.408 276.822 387.09 268.639L373.164 255.596C363.607 261.471 352.395 264.869 340.445 264.869C336.251 264.869 332.159 264.461 328.204 263.685L346.41 283.107ZM321.922 256.983C327.728 258.931 333.955 259.989 340.445 259.989C350.982 259.989 360.902 257.12 369.459 252.127L288.452 176.263C284.579 184.021 282.395 192.745 282.395 201.938C282.395 207.101 283.071 212.113 284.341 216.89L321.922 256.983ZM414.116 355.337L445.816 323.637L455.92 360.065C457.032 363.958 453.324 367.48 449.524 366.275L414.116 355.337Z" fill="url(#paint7_linear_11_2057)" fill-opacity="0.7"/>
<path fill-rule="evenodd" clip-rule="evenodd" d="M414.116 355.336L350.628 287.606C352.866 287.343 355.078 286.994 357.26 286.563L417.475 350.121L417.476 350.12L418.894 350.558L414.116 355.336ZM442.594 326.858L450.069 353.806C450.936 356.841 448.045 359.587 445.082 358.648L418.894 350.558L414.116 355.337L449.524 366.274C453.324 367.479 457.031 363.957 455.919 360.064L445.816 323.636L442.594 326.858ZM387.888 273.996C388.847 273.363 389.793 272.712 390.724 272.042L445.816 323.636L442.594 326.858L442.191 325.404L442.191 325.405L387.888 273.996ZM384.242 270.544C385.205 269.928 386.155 269.293 387.089 268.638L373.163 255.596C372.205 256.185 371.23 256.749 370.239 257.287L384.242 270.544ZM366.494 253.742C367.499 253.232 368.488 252.693 369.458 252.126L288.452 176.262C288.043 177.081 287.653 177.911 287.282 178.752L366.494 253.742ZM282.693 207.856L331.427 259.295C328.157 258.788 324.981 258.008 321.922 256.982L284.34 216.889C283.561 213.96 283.006 210.943 282.693 207.856ZM283.537 175.207C283.924 174.392 284.327 173.587 284.747 172.792L270.83 159.758C270.389 160.484 269.96 161.217 269.541 161.957L283.537 175.207ZM260.865 184.817L277.516 202.392C277.535 205.028 277.716 207.627 278.051 210.179L259.826 190.737C260.101 188.739 260.448 186.765 260.865 184.817ZM265.896 158.505L244.237 138.001L230 152.238L256.847 180.575C256.372 182.439 255.958 184.326 255.607 186.236L214.368 142.241L232.628 123.981L267.194 156.353C266.751 157.064 266.318 157.781 265.896 158.505ZM336.597 264.753L353.241 282.321C350.993 282.676 348.714 282.939 346.409 283.106L328.204 263.684C330.94 264.221 333.741 264.581 336.597 264.753Z" fill="url(#paint8_linear_11_2057)" fill-opacity="0.7"/>
<path d="M140.695 63.8513L219.41 142.566L232.977 128.999L154.262 50.2842L140.695 63.8513Z" fill="#3368F2"/>
<path d="M246.254 128.617L235.872 118.236C235.594 117.958 235.224 117.865 234.853 118.051L215.944 126.115C215.759 126.207 215.573 126.393 215.481 126.578L207.417 145.487C207.231 145.858 207.324 146.228 207.602 146.506L217.983 156.888C218.261 157.166 218.632 157.259 219.003 157.073L237.912 149.009C238.097 148.916 238.282 148.731 238.375 148.546L246.439 129.637C246.625 129.266 246.532 128.895 246.254 128.617Z" fill="#444FEA"/>
<path d="M340.314 120.859C295.364 120.859 258.931 157.293 258.931 202.243C258.931 247.193 295.364 283.626 340.314 283.626C385.264 283.626 421.697 247.193 421.697 202.243C421.697 157.293 384.791 120.859 340.314 120.859ZM340.314 265.173C305.3 265.173 277.384 236.783 277.384 202.243C277.384 167.702 305.773 139.313 340.314 139.313C374.854 139.313 403.244 167.702 403.244 202.243C403.244 236.783 374.854 265.173 340.314 265.173Z" fill="url(#paint9_linear_11_2057)"/>
<path d="M340.313 259.496C371.932 259.496 397.565 233.863 397.565 202.243C397.565 170.624 371.932 144.991 340.313 144.991C308.693 144.991 283.061 170.624 283.061 202.243C283.061 233.863 308.693 259.496 340.313 259.496Z" fill="white"/>
<path d="M340.313 265.173C375.068 265.173 403.243 236.998 403.243 202.243C403.243 167.487 375.068 139.312 340.313 139.312C305.557 139.312 277.383 167.487 277.383 202.243C277.383 236.998 305.557 265.173 340.313 265.173Z" fill="white"/>
<path d="M367.282 151.617C362.077 148.778 356.399 146.885 350.248 145.466C349.775 150.671 345.044 154.929 339.839 154.929C334.161 154.929 329.903 150.671 329.429 145.466C323.278 146.885 317.6 148.778 312.396 151.617C315.708 163.919 326.591 172.909 339.839 172.909C353.087 172.909 364.443 163.919 367.282 151.617Z" fill="url(#paint10_linear_11_2057)"/>
<path d="M387.155 200.823C387.155 195.618 391.414 190.887 396.619 190.414C395.199 184.263 393.307 178.585 390.468 173.38C378.639 176.692 369.649 187.575 369.649 200.35C369.649 213.598 379.112 224.954 391.414 227.793C394.253 222.588 396.145 216.91 397.092 210.759C391.414 210.759 387.155 206.501 387.155 200.823Z" fill="url(#paint11_linear_11_2057)"/>
<path d="M310.977 200.823C310.977 188.047 301.987 177.165 290.158 173.853C287.319 179.057 284.953 184.735 284.007 190.886C289.212 191.359 293.47 195.618 293.47 201.296C293.47 206.974 289.212 211.232 284.007 211.705C284.953 217.856 286.846 223.534 289.685 228.739C301.514 225.427 310.977 214.544 310.977 200.823Z" fill="url(#paint12_linear_11_2057)"/>
<path d="M312.871 252.397C318.076 255.236 323.754 257.128 329.905 258.548C330.378 253.343 335.11 249.085 340.314 249.085C345.992 249.085 350.251 253.343 350.724 258.548C356.875 257.128 362.553 255.236 367.758 252.397C364.445 240.095 353.563 231.104 340.314 231.104C327.066 231.104 315.71 240.568 312.871 252.397Z" fill="url(#paint13_linear_11_2057)"/>
<path d="M354.035 208.395L352.616 205.083L352.143 204.609H351.669C351.669 204.609 351.669 204.609 351.196 204.609C351.196 204.609 351.196 204.609 351.196 203.663V194.673C351.196 191.361 351.196 185.21 345.045 185.21C343.153 185.21 340.787 185.683 338.421 187.103V186.629V187.103H337.948L335.582 185.683H335.109H334.636L326.592 189.942L326.119 190.415L326.592 190.888L328.012 194.2L328.485 194.673L328.958 194.2L329.904 193.727C330.377 193.727 330.377 193.254 330.85 193.254V221.643V222.116H331.324H337.475H337.948V221.643V193.727C340.314 192.307 341.733 192.307 342.206 192.307C342.679 192.307 343.626 192.307 343.626 195.146V204.136C343.626 210.761 346.938 211.707 348.831 211.707C350.25 211.707 352.143 210.761 354.035 209.341V208.395Z" fill="url(#paint14_linear_11_2057)"/>
<path d="M193.519 169.972C190.89 167.107 190.641 162.787 192.924 159.64C208.637 137.971 228.556 119.692 251.491 105.893C254.822 103.888 259.105 104.506 261.733 107.371L271.02 117.49C271.709 118.241 271.537 119.435 270.664 119.96C245.066 135.361 222.834 155.763 205.297 179.947C204.699 180.772 203.495 180.841 202.806 180.091L193.519 169.972Z" fill="#444FEA"/>
<path d="M131.124 47.6954C131.338 43.6055 134.606 40.3376 138.696 40.1238L159.25 39.0496C166.571 38.667 170.508 47.5121 165.325 52.6955L143.696 74.3244C138.512 79.5078 129.667 75.5705 130.05 68.25L131.124 47.6954Z" fill="#4B45E7"/>
<path d="M505 69L499 105.5" stroke="#E1F1FE" stroke-width="3"/>
<path d="M522.81 83.3149L483.76 90.3078" stroke="#E1F1FE" stroke-width="3"/>
<path d="M292.5 314.24L256 308.24" stroke="#E1F1FE" stroke-width="3"/>
<path d="M278.185 332.05L271.192 293" stroke="#E1F1FE" stroke-width="3"/>
<path d="M308.5 301.24L272 295.24" stroke="#E1F1FE" stroke-width="3"/>
<path d="M294.185 319.05L287.192 280" stroke="#E1F1FE" stroke-width="3"/>
<path d="M277.5 329.24L241 323.24" stroke="#E1F1FE" stroke-width="3"/>
<path d="M263.185 347.05L256.192 308" stroke="#E1F1FE" stroke-width="3"/>
<path d="M263.5 344.24L227 338.24" stroke="#E1F1FE" stroke-width="3"/>
<path d="M248.338 359.57L242.192 323" stroke="#E1F1FE" stroke-width="3"/>
<path d="M168.24 55L162.24 91.5" stroke="#E1F1FE" stroke-width="3"/>
<path d="M186.05 69.3149L147 76.3078" stroke="#E1F1FE" stroke-width="3"/>
<path d="M183.24 70L177.24 106.5" stroke="#E1F1FE" stroke-width="3"/>
<path d="M201.05 84.3149L162 91.3078" stroke="#E1F1FE" stroke-width="3"/>
<path d="M198.24 84L192.24 120.5" stroke="#E1F1FE" stroke-width="3"/>
<path d="M213.57 99.1615L177 105.308" stroke="#E1F1FE" stroke-width="3"/>
<path d="M213.24 101L207.24 137.5" stroke="#E1F1FE" stroke-width="3"/>
<path d="M231.05 115.315L192 122.308" stroke="#E1F1FE" stroke-width="3"/>
<circle cx="510" cy="79" r="2" fill="#E1F1FE"/>
<circle cx="508" cy="92" r="2" fill="#E1F1FE"/>
<circle cx="497" cy="82" r="2" fill="#E1F1FE"/>
<circle cx="494" cy="95" r="2" fill="#E1F1FE"/>
<path d="M215 138.5L219 129L230.5 124" stroke="#E1F1FE" stroke-width="2"/>
<path d="M240.5 137L236.5 146.5L225 151.5" stroke="#E1F1FE" stroke-width="2"/>
<circle cx="228" cy="138" r="3" fill="#E1F1FE"/>
<circle cx="145.5" cy="54.5" r="4.5" fill="#E1F1FE"/>
<circle cx="231" cy="128" r="1" fill="#E1F1FE"/>
<circle cx="237" cy="135" r="1" fill="#E1F1FE"/>
<circle cx="218" cy="141" r="1" fill="#E1F1FE"/>
<circle cx="224" cy="148" r="1" fill="#E1F1FE"/>
</g>
<defs>
<linearGradient id="paint0_linear_11_2057" x1="419.912" y1="325.443" x2="451.243" y2="446.169" gradientUnits="userSpaceOnUse">
<stop stop-color="#513DE4"/>
<stop offset="1" stop-color="#267BF9"/>
</linearGradient>
<linearGradient id="paint1_linear_11_2057" x1="419.912" y1="325.443" x2="451.243" y2="446.169" gradientUnits="userSpaceOnUse">
<stop stop-color="#513DE4"/>
<stop offset="1" stop-color="#267BF9"/>
</linearGradient>
<linearGradient id="paint2_linear_11_2057" x1="157.136" y1="354.347" x2="125.805" y2="475.073" gradientUnits="userSpaceOnUse">
<stop stop-color="#513DE4"/>
<stop offset="1" stop-color="#267BF9"/>
</linearGradient>
<linearGradient id="paint3_linear_11_2057" x1="157.313" y1="354.344" x2="125.981" y2="475.07" gradientUnits="userSpaceOnUse">
<stop stop-color="#513DE4"/>
<stop offset="1" stop-color="#267BF9"/>
</linearGradient>
<linearGradient id="paint4_linear_11_2057" x1="543.354" y1="132.765" x2="544.644" y2="152.336" gradientUnits="userSpaceOnUse">
<stop stop-color="#513DE4"/>
<stop offset="1" stop-color="#267BF9"/>
</linearGradient>
<linearGradient id="paint5_linear_11_2057" x1="545.199" y1="134.821" x2="547.936" y2="155.704" gradientUnits="userSpaceOnUse">
<stop stop-color="#513DE4"/>
<stop offset="1" stop-color="#267BF9"/>
</linearGradient>
<linearGradient id="paint6_linear_11_2057" x1="343.308" y1="209.863" x2="343.308" y2="295.388" gradientUnits="userSpaceOnUse">
<stop stop-color="#513DE4"/>
<stop offset="1" stop-color="#267BF9"/>
</linearGradient>
<linearGradient id="paint7_linear_11_2057" x1="335.244" y1="237.173" x2="335.244" y2="307.982" gradientUnits="userSpaceOnUse">
<stop stop-color="#513DE4"/>
<stop offset="1" stop-color="#267BF9"/>
</linearGradient>
<linearGradient id="paint8_linear_11_2057" x1="335.244" y1="237.172" x2="335.244" y2="307.981" gradientUnits="userSpaceOnUse">
<stop stop-color="#513DE4"/>
<stop offset="1" stop-color="#267BF9"/>
</linearGradient>
<linearGradient id="paint9_linear_11_2057" x1="400.086" y1="256.213" x2="277.371" y2="145.368" gradientUnits="userSpaceOnUse">
<stop stop-color="#00DEE7"/>
<stop offset="0.0751114" stop-color="#05CCEC"/>
<stop offset="0.2244" stop-color="#139FFA"/>
<stop offset="0.2719" stop-color="#188FFF"/>
<stop offset="0.401" stop-color="#1D87FD"/>
<stop offset="0.5988" stop-color="#2C72F6"/>
<stop offset="0.8394" stop-color="#444FEA"/>
<stop offset="0.9605" stop-color="#523BE4"/>
</linearGradient>
<linearGradient id="paint10_linear_11_2057" x1="365.731" y1="165.345" x2="310.964" y2="149.928" gradientUnits="userSpaceOnUse">
<stop stop-color="#00DEE7"/>
<stop offset="0.0215771" stop-color="#02D7E9"/>
<stop offset="0.1529" stop-color="#0EB0F5"/>
<stop offset="0.2577" stop-color="#1598FC"/>
<stop offset="0.3223" stop-color="#188FFF"/>
<stop offset="0.4419" stop-color="#1D87FD"/>
<stop offset="0.6253" stop-color="#2C72F6"/>
<stop offset="0.8482" stop-color="#444FEA"/>
<stop offset="0.9605" stop-color="#523BE4"/>
</linearGradient>
<linearGradient id="paint11_linear_11_2057" x1="408.843" y1="214.033" x2="373.405" y2="191.019" gradientUnits="userSpaceOnUse">
<stop offset="0.1199" stop-color="#00DEE7"/>
<stop offset="0.1691" stop-color="#07C5EE"/>
<stop offset="0.241" stop-color="#10A8F7"/>
<stop offset="0.3027" stop-color="#1695FD"/>
<stop offset="0.3469" stop-color="#188FFF"/>
<stop offset="0.6204" stop-color="#3368F2"/>
<stop offset="0.9022" stop-color="#523BE4"/>
</linearGradient>
<linearGradient id="paint12_linear_11_2057" x1="305.654" y1="219.95" x2="281.366" y2="180.661" gradientUnits="userSpaceOnUse">
<stop stop-color="#00DEE7"/>
<stop offset="0.0232223" stop-color="#02D7E9"/>
<stop offset="0.1645" stop-color="#0EB0F5"/>
<stop offset="0.2773" stop-color="#1598FC"/>
<stop offset="0.3469" stop-color="#188FFF"/>
<stop offset="0.6204" stop-color="#3368F2"/>
<stop offset="0.9022" stop-color="#523BE4"/>
</linearGradient>
<linearGradient id="paint13_linear_11_2057" x1="369.33" y1="244.883" x2="314.02" y2="244.883" gradientUnits="userSpaceOnUse">
<stop stop-color="#00DEE7"/>
<stop offset="0.0232223" stop-color="#02D7E9"/>
<stop offset="0.1645" stop-color="#0EB0F5"/>
<stop offset="0.2773" stop-color="#1598FC"/>
<stop offset="0.3469" stop-color="#188FFF"/>
<stop offset="0.6204" stop-color="#3368F2"/>
<stop offset="0.9022" stop-color="#523BE4"/>
</linearGradient>
<linearGradient id="paint14_linear_11_2057" x1="325.998" y1="203.769" x2="354.205" y2="203.769" gradientUnits="userSpaceOnUse">
<stop offset="0.3469" stop-color="#188FFF"/>
<stop offset="0.6204" stop-color="#3368F2"/>
<stop offset="0.9022" stop-color="#523BE4"/>
</linearGradient>
<clipPath id="clip0_11_2057">
<rect width="681" height="404.11" fill="white"/>
</clipPath>
</defs>
</svg>
