<svg width="1069" height="488" viewBox="0 0 1069 488" fill="none" xmlns="http://www.w3.org/2000/svg">
<path d="M308.3 32.2998C191.5 32.2998 97 126.8 97 243.6C97 360.4 191.5 454.9 308.3 454.9C425.1 454.9 519.6 360.4 519.6 243.6C519.6 126.8 425.1 32.2998 308.3 32.2998ZM308.3 408C217.6 408 143.9 334.4 143.9 243.6C143.9 152.8 217.6 79.2998 308.3 79.2998C399 79.2998 472.7 152.9 472.7 243.7C472.7 334.5 399 408 308.3 408Z" fill="url(#paint0_linear_1018_56233)"/>
<path d="M308.3 393.1C390.866 393.1 457.8 326.166 457.8 243.6C457.8 161.033 390.866 94.0996 308.3 94.0996C225.733 94.0996 158.8 161.033 158.8 243.6C158.8 326.166 225.733 393.1 308.3 393.1Z" fill="white"/>
<path d="M308.3 408C399.096 408 472.7 334.395 472.7 243.6C472.7 152.804 399.096 79.1997 308.3 79.1997C217.504 79.1997 143.9 152.804 143.9 243.6C143.9 334.395 217.504 408 308.3 408Z" fill="white"/>
<path d="M379.4 112.2C365.7 104.7 350.8 99.4997 335.3 96.6997C333.7 110.4 322.3 121.2 308.3 121.2C294 121.2 282.5 110.3 281.3 96.6997C265.8 99.7997 250.9 104.8 237.2 112.2C245.3 143.9 274.2 167.5 308.4 167.5C342.6 167.5 371.4 143.9 379.4 112.2Z" fill="url(#paint1_linear_1018_56233)"/>
<path d="M430.4 240.8C430.4 226.8 441 215.3 454.6 214.1C451.5 198.6 445.9 183.7 438.1 170.3C407 178.7 384 207.3 384 240.8C384 275.6 408.2 304.5 440.5 312.3C447.6 298.6 452.6 283.7 455.1 267.9C441.6 266.6 430.4 255.1 430.4 240.8Z" fill="url(#paint2_linear_1018_56233)"/>
<path d="M232.2 240.8C232.2 206.9 209.2 178.7 178.1 170.3C170.3 183.7 164.7 198.6 161.6 214.1C175.3 215.7 185.8 226.8 185.8 240.8C185.8 255.1 174.6 266.6 160.6 267.8C163.1 283.6 168.1 298.6 175.2 312.2C207.9 304.5 232.2 275.6 232.2 240.8Z" fill="url(#paint3_linear_1018_56233)"/>
<path d="M237.1 375C250.8 382.5 265.7 387.7 281.2 390.5C282.8 376.8 294.2 366 308.2 366C322.5 366 334 376.9 335.2 390.5C350.7 387.4 365.6 382.4 379.3 375C371.2 343.3 342.3 319.7 308.1 319.7C273.9 319.7 245.2 343.4 237.1 375Z" fill="url(#paint4_linear_1018_56233)"/>
<path d="M316.9 228.2V200.4H299.7V228.2L272.2 201.1L259.8 213.5L299.7 253.4V297.4H316.9V253.1L356.8 213.5L344.3 200.4L316.9 228.2Z" fill="url(#paint5_linear_1018_56233)"/>
<path d="M567.1 313.3V190.2H615.6C624.9 190.2 632.8 191.9 639.4 195.2C646 198.5 651 203.2 654.5 209.2C658 215.2 659.7 222.3 659.7 230.4C659.7 238.6 657.9 245.6 654.4 251.5C650.9 257.4 645.8 261.9 639.1 265C632.4 268.1 624.4 269.7 614.9 269.7H582.4V248.8H610.7C615.7 248.8 619.8 248.1 623.1 246.8C626.4 245.5 628.8 243.4 630.5 240.7C632.1 238 632.9 234.6 632.9 230.5C632.9 226.4 632.1 223 630.5 220.2C628.9 217.4 626.4 215.3 623.1 213.8C619.8 212.3 615.6 211.6 610.6 211.6H593.1V313.4H567.1V313.3ZM633.5 257.3L664.1 313.3H635.4L605.5 257.3H633.5Z" fill="#1E1E1E"/>
<path d="M717.8 315.1C708.5 315.1 700.4 313.1 693.6 309.1C686.8 305.1 681.6 299.5 677.9 292.4C674.2 285.3 672.4 276.9 672.4 267.5C672.4 258 674.2 249.6 677.9 242.5C681.6 235.3 686.8 229.8 693.6 225.8C700.4 221.8 708.5 219.8 717.8 219.8C727.1 219.8 735.2 221.8 742 225.8C748.8 229.8 754 235.4 757.7 242.5C761.4 249.6 763.2 258 763.2 267.5C763.2 277 761.4 285.3 757.7 292.4C754 299.5 748.8 305.1 742 309.1C735.2 313.1 727.1 315.1 717.8 315.1ZM699.5 208.4C696.1 208.4 693.1 207.2 690.6 204.8C688.1 202.4 686.9 199.5 686.9 196.2C686.9 192.8 688.1 189.9 690.6 187.5C693.1 185.1 696 184 699.5 184C703 184 705.9 185.2 708.4 187.5C710.8 189.9 712 192.7 712 196.2C712 199.5 710.8 202.4 708.4 204.8C705.9 207.2 702.9 208.4 699.5 208.4ZM717.9 295.3C722.1 295.3 725.7 294.1 728.5 291.7C731.3 289.3 733.5 286 735 281.8C736.5 277.6 737.2 272.8 737.2 267.4C737.2 262 736.5 257.2 735 253C733.5 248.8 731.4 245.5 728.5 243C725.7 240.6 722.1 239.3 717.9 239.3C713.6 239.3 710 240.5 707.1 243C704.2 245.4 702 248.8 700.6 253C699.1 257.2 698.4 262 698.4 267.4C698.4 272.8 699.1 277.6 700.6 281.8C702.1 286 704.2 289.3 707.1 291.7C710 294.1 713.6 295.3 717.9 295.3ZM736.2 208.4C732.8 208.4 729.8 207.2 727.3 204.8C724.8 202.4 723.6 199.5 723.6 196.2C723.6 192.8 724.8 189.9 727.3 187.5C729.8 185.1 732.7 184 736.2 184C739.7 184 742.6 185.2 745.1 187.5C747.5 189.9 748.7 192.7 748.7 196.2C748.7 199.5 747.5 202.4 745.1 204.8C742.7 207.2 739.7 208.4 736.2 208.4Z" fill="#1E1E1E"/>
<path d="M805.5 259.9V313.3H779.9V221H804.3V237.3H805.4C807.4 231.9 810.9 227.7 815.7 224.5C820.5 221.4 826.3 219.8 833.2 219.8C839.6 219.8 845.2 221.2 850 224C854.8 226.8 858.5 230.8 861.1 236C863.7 241.2 865.1 247.4 865.1 254.5V313.3H839.5V259.1C839.5 253.5 838.1 249 835.2 245.9C832.3 242.7 828.2 241.1 823.1 241.1C819.7 241.1 816.6 241.8 814 243.3C811.4 244.8 809.3 246.9 807.9 249.8C806.3 252.6 805.6 256 805.5 259.9Z" fill="#1E1E1E"/>
<path d="M919.2 314.8C912.2 314.8 905.8 313 900.2 309.4C894.5 305.8 890 300.4 886.7 293.4C883.4 286.3 881.7 277.6 881.7 267.4C881.7 256.8 883.4 248 886.8 241C890.2 234 894.7 228.7 900.4 225.2C906.1 221.7 912.3 219.9 919.1 219.9C924.3 219.9 928.6 220.8 932 222.5C935.5 224.2 938.3 226.4 940.4 229C942.5 231.6 944.2 234.1 945.3 236.6H946.1V190.3H971.6V313.4H946.4V298.6H945.3C944.1 301.2 942.4 303.7 940.2 306.2C938 308.7 935.2 310.8 931.7 312.4C928.3 314 924.1 314.8 919.2 314.8ZM927.3 294.4C931.4 294.4 934.9 293.3 937.8 291C940.7 288.7 942.9 285.6 944.4 281.5C945.9 277.4 946.7 272.6 946.7 267.1C946.7 261.6 945.9 256.8 944.4 252.8C942.9 248.8 940.7 245.6 937.8 243.4C934.9 241.2 931.4 240.1 927.3 240.1C923.1 240.1 919.5 241.2 916.7 243.5C913.8 245.8 911.6 249 910.2 253C908.7 257 908 261.7 908 267.1C908 272.5 908.8 277.2 910.3 281.3C911.8 285.4 914 288.6 916.8 290.9C919.5 293.3 923.1 294.4 927.3 294.4Z" fill="#1E1E1E"/>
<defs>
<linearGradient id="paint0_linear_1018_56233" x1="464.425" y1="384.65" x2="145.008" y2="96.1291" gradientUnits="userSpaceOnUse">
<stop stop-color="#00DEE7"/>
<stop offset="0.0751114" stop-color="#05CCEC"/>
<stop offset="0.2244" stop-color="#139FFA"/>
<stop offset="0.2719" stop-color="#188FFF"/>
<stop offset="0.401" stop-color="#1D87FD"/>
<stop offset="0.5988" stop-color="#2C72F6"/>
<stop offset="0.8394" stop-color="#444FEA"/>
<stop offset="0.9605" stop-color="#523BE4"/>
</linearGradient>
<linearGradient id="paint1_linear_1018_56233" x1="375.007" y1="148.121" x2="232.453" y2="107.994" gradientUnits="userSpaceOnUse">
<stop stop-color="#00DEE7"/>
<stop offset="0.0215771" stop-color="#02D7E9"/>
<stop offset="0.1529" stop-color="#0EB0F5"/>
<stop offset="0.2577" stop-color="#1598FC"/>
<stop offset="0.3223" stop-color="#188FFF"/>
<stop offset="0.4419" stop-color="#1D87FD"/>
<stop offset="0.6253" stop-color="#2C72F6"/>
<stop offset="0.8482" stop-color="#444FEA"/>
<stop offset="0.9605" stop-color="#523BE4"/>
</linearGradient>
<linearGradient id="paint2_linear_1018_56233" x1="487.221" y1="274.859" x2="394.978" y2="214.956" gradientUnits="userSpaceOnUse">
<stop offset="0.1199" stop-color="#00DEE7"/>
<stop offset="0.1691" stop-color="#07C5EE"/>
<stop offset="0.241" stop-color="#10A8F7"/>
<stop offset="0.3027" stop-color="#1695FD"/>
<stop offset="0.3469" stop-color="#188FFF"/>
<stop offset="0.6204" stop-color="#3368F2"/>
<stop offset="0.9022" stop-color="#523BE4"/>
</linearGradient>
<linearGradient id="paint3_linear_1018_56233" x1="218.629" y1="290.263" x2="155.409" y2="187.995" gradientUnits="userSpaceOnUse">
<stop stop-color="#00DEE7"/>
<stop offset="0.0232223" stop-color="#02D7E9"/>
<stop offset="0.1645" stop-color="#0EB0F5"/>
<stop offset="0.2773" stop-color="#1598FC"/>
<stop offset="0.3469" stop-color="#188FFF"/>
<stop offset="0.6204" stop-color="#3368F2"/>
<stop offset="0.9022" stop-color="#523BE4"/>
</linearGradient>
<linearGradient id="paint4_linear_1018_56233" x1="384.367" y1="355.161" x2="240.4" y2="355.161" gradientUnits="userSpaceOnUse">
<stop stop-color="#00DEE7"/>
<stop offset="0.0232223" stop-color="#02D7E9"/>
<stop offset="0.1645" stop-color="#0EB0F5"/>
<stop offset="0.2773" stop-color="#1598FC"/>
<stop offset="0.3469" stop-color="#188FFF"/>
<stop offset="0.6204" stop-color="#3368F2"/>
<stop offset="0.9022" stop-color="#523BE4"/>
</linearGradient>
<linearGradient id="paint5_linear_1018_56233" x1="372.45" y1="272.801" x2="266.984" y2="222.747" gradientUnits="userSpaceOnUse">
<stop offset="0.3469" stop-color="#188FFF"/>
<stop offset="0.6204" stop-color="#3368F2"/>
<stop offset="0.9022" stop-color="#523BE4"/>
</linearGradient>
</defs>
</svg>
